G04 MADE WITH FRITZING*
G04 WWW.FRITZING.ORG*
G04 DOUBLE SIDED*
G04 HOLES PLATED*
G04 CONTOUR ON CENTER OF CONTOUR VECTOR*
%ASAXBY*%
%FSLAX23Y23*%
%MOIN*%
%OFA0B0*%
%SFA1.0B1.0*%
%ADD10C,0.187165*%
%ADD11C,0.049370*%
%ADD12C,0.088000*%
%ADD13C,0.085000*%
%ADD14C,0.076000*%
%ADD15C,0.120000*%
%ADD16C,0.072000*%
%ADD17R,0.088000X0.088000*%
%ADD18R,0.001000X0.001000*%
%LNMASK0*%
G90*
G70*
G54D10*
X119Y125D03*
X119Y2400D03*
X2394Y125D03*
X2394Y2400D03*
G54D11*
X1944Y949D03*
X1819Y1525D03*
X1694Y1800D03*
X1619Y1850D03*
G54D12*
X919Y2400D03*
X1019Y2400D03*
X1019Y425D03*
X919Y425D03*
X2294Y325D03*
X2294Y425D03*
X2294Y525D03*
X2144Y125D03*
X2044Y125D03*
X1944Y125D03*
X2294Y725D03*
X2294Y825D03*
X2294Y925D03*
X1669Y125D03*
X1569Y125D03*
X1469Y125D03*
X1369Y125D03*
X2294Y1450D03*
X2294Y1350D03*
X2294Y1250D03*
X2294Y1150D03*
X2144Y2400D03*
X2044Y2400D03*
X1944Y2400D03*
X1844Y2400D03*
X2294Y2175D03*
X2294Y2075D03*
X2294Y1975D03*
X2294Y1875D03*
X2294Y1775D03*
X2294Y1675D03*
G54D13*
X1044Y1725D03*
X644Y1725D03*
X1044Y1600D03*
X644Y1600D03*
G54D12*
X469Y2400D03*
X569Y2400D03*
X669Y2400D03*
X819Y125D03*
X919Y125D03*
X1019Y125D03*
G54D14*
X444Y475D03*
X444Y573D03*
X366Y573D03*
X366Y475D03*
G54D15*
X259Y287D03*
X259Y761D03*
G54D16*
X1769Y1350D03*
X1669Y1350D03*
X1569Y1350D03*
X1469Y1350D03*
X1369Y1350D03*
X1269Y1350D03*
X1169Y1350D03*
X1069Y1350D03*
X969Y1350D03*
X869Y1350D03*
X769Y1350D03*
X669Y1350D03*
X569Y1350D03*
X469Y1350D03*
X369Y1350D03*
X269Y1350D03*
X669Y2150D03*
X769Y2150D03*
X869Y2150D03*
X969Y2150D03*
X1069Y2150D03*
X1169Y2150D03*
X1269Y2150D03*
X1369Y2150D03*
X1469Y2150D03*
X1569Y2150D03*
X1669Y2150D03*
X1769Y2150D03*
G54D13*
X669Y1175D03*
X1069Y1175D03*
X1469Y2025D03*
X1469Y1625D03*
X1144Y1475D03*
X1544Y1475D03*
G54D17*
X469Y2400D03*
X819Y125D03*
G54D18*
X1338Y2390D02*
X1349Y2390D01*
X1438Y2390D02*
X1449Y2390D01*
X1333Y2389D02*
X1354Y2389D01*
X1433Y2389D02*
X1454Y2389D01*
X1330Y2388D02*
X1357Y2388D01*
X1430Y2388D02*
X1457Y2388D01*
X1327Y2387D02*
X1360Y2387D01*
X1427Y2387D02*
X1460Y2387D01*
X1325Y2386D02*
X1362Y2386D01*
X1425Y2386D02*
X1462Y2386D01*
X1324Y2385D02*
X1363Y2385D01*
X1424Y2385D02*
X1463Y2385D01*
X1322Y2384D02*
X1365Y2384D01*
X1422Y2384D02*
X1465Y2384D01*
X1321Y2383D02*
X1366Y2383D01*
X1421Y2383D02*
X1466Y2383D01*
X1319Y2382D02*
X1368Y2382D01*
X1419Y2382D02*
X1468Y2382D01*
X1318Y2381D02*
X1369Y2381D01*
X1418Y2381D02*
X1469Y2381D01*
X1317Y2380D02*
X1370Y2380D01*
X1417Y2380D02*
X1470Y2380D01*
X1316Y2379D02*
X1371Y2379D01*
X1416Y2379D02*
X1471Y2379D01*
X1315Y2378D02*
X1372Y2378D01*
X1415Y2378D02*
X1472Y2378D01*
X1314Y2377D02*
X1373Y2377D01*
X1414Y2377D02*
X1473Y2377D01*
X1313Y2376D02*
X1374Y2376D01*
X1413Y2376D02*
X1474Y2376D01*
X1312Y2375D02*
X1375Y2375D01*
X1412Y2375D02*
X1475Y2375D01*
X1312Y2374D02*
X1375Y2374D01*
X1412Y2374D02*
X1475Y2374D01*
X1311Y2373D02*
X1376Y2373D01*
X1411Y2373D02*
X1476Y2373D01*
X1310Y2372D02*
X1377Y2372D01*
X1410Y2372D02*
X1477Y2372D01*
X1310Y2371D02*
X1377Y2371D01*
X1410Y2371D02*
X1477Y2371D01*
X1309Y2370D02*
X1378Y2370D01*
X1409Y2370D02*
X1478Y2370D01*
X1309Y2369D02*
X1378Y2369D01*
X1409Y2369D02*
X1478Y2369D01*
X1308Y2368D02*
X1379Y2368D01*
X1408Y2368D02*
X1479Y2368D01*
X1308Y2367D02*
X1379Y2367D01*
X1408Y2367D02*
X1479Y2367D01*
X1307Y2366D02*
X1380Y2366D01*
X1407Y2366D02*
X1480Y2366D01*
X1307Y2365D02*
X1380Y2365D01*
X1407Y2365D02*
X1480Y2365D01*
X1306Y2364D02*
X1381Y2364D01*
X1406Y2364D02*
X1481Y2364D01*
X1306Y2363D02*
X1381Y2363D01*
X1406Y2363D02*
X1481Y2363D01*
X1306Y2362D02*
X1381Y2362D01*
X1406Y2362D02*
X1481Y2362D01*
X1305Y2361D02*
X1382Y2361D01*
X1405Y2361D02*
X1482Y2361D01*
X1305Y2360D02*
X1382Y2360D01*
X1405Y2360D02*
X1482Y2360D01*
X1305Y2359D02*
X1382Y2359D01*
X1405Y2359D02*
X1482Y2359D01*
X1305Y2358D02*
X1382Y2358D01*
X1405Y2358D02*
X1482Y2358D01*
X1305Y2357D02*
X1382Y2357D01*
X1405Y2357D02*
X1482Y2357D01*
X1304Y2356D02*
X1383Y2356D01*
X1404Y2356D02*
X1483Y2356D01*
X1304Y2355D02*
X1383Y2355D01*
X1404Y2355D02*
X1483Y2355D01*
X1304Y2354D02*
X1383Y2354D01*
X1404Y2354D02*
X1483Y2354D01*
X1304Y2353D02*
X1383Y2353D01*
X1404Y2353D02*
X1483Y2353D01*
X1304Y2352D02*
X1383Y2352D01*
X1404Y2352D02*
X1483Y2352D01*
X1304Y2351D02*
X1383Y2351D01*
X1404Y2351D02*
X1483Y2351D01*
X1304Y2350D02*
X1383Y2350D01*
X1404Y2350D02*
X1483Y2350D01*
X1304Y2349D02*
X1383Y2349D01*
X1404Y2349D02*
X1483Y2349D01*
X1304Y2348D02*
X1383Y2348D01*
X1404Y2348D02*
X1483Y2348D01*
X1304Y2347D02*
X1383Y2347D01*
X1404Y2347D02*
X1483Y2347D01*
X1304Y2346D02*
X1383Y2346D01*
X1404Y2346D02*
X1483Y2346D01*
X1305Y2345D02*
X1383Y2345D01*
X1404Y2345D02*
X1482Y2345D01*
X1305Y2344D02*
X1382Y2344D01*
X1405Y2344D02*
X1482Y2344D01*
X1305Y2343D02*
X1382Y2343D01*
X1405Y2343D02*
X1482Y2343D01*
X1305Y2342D02*
X1382Y2342D01*
X1405Y2342D02*
X1482Y2342D01*
X1305Y2341D02*
X1382Y2341D01*
X1405Y2341D02*
X1482Y2341D01*
X1306Y2340D02*
X1381Y2340D01*
X1406Y2340D02*
X1481Y2340D01*
X1306Y2339D02*
X1381Y2339D01*
X1406Y2339D02*
X1481Y2339D01*
X1306Y2338D02*
X1381Y2338D01*
X1406Y2338D02*
X1481Y2338D01*
X1306Y2337D02*
X1381Y2337D01*
X1406Y2337D02*
X1481Y2337D01*
X1307Y2336D02*
X1380Y2336D01*
X1407Y2336D02*
X1480Y2336D01*
X1307Y2335D02*
X1380Y2335D01*
X1407Y2335D02*
X1480Y2335D01*
X1308Y2334D02*
X1379Y2334D01*
X1408Y2334D02*
X1479Y2334D01*
X1308Y2333D02*
X1379Y2333D01*
X1408Y2333D02*
X1479Y2333D01*
X1309Y2332D02*
X1378Y2332D01*
X1409Y2332D02*
X1478Y2332D01*
X1309Y2331D02*
X1378Y2331D01*
X1409Y2331D02*
X1478Y2331D01*
X1310Y2330D02*
X1377Y2330D01*
X1410Y2330D02*
X1477Y2330D01*
X1311Y2329D02*
X1377Y2329D01*
X1410Y2329D02*
X1477Y2329D01*
X1311Y2328D02*
X1376Y2328D01*
X1411Y2328D02*
X1476Y2328D01*
X1312Y2327D02*
X1375Y2327D01*
X1412Y2327D02*
X1475Y2327D01*
X1313Y2326D02*
X1374Y2326D01*
X1413Y2326D02*
X1474Y2326D01*
X1313Y2325D02*
X1374Y2325D01*
X1413Y2325D02*
X1474Y2325D01*
X1314Y2324D02*
X1373Y2324D01*
X1414Y2324D02*
X1473Y2324D01*
X1315Y2323D02*
X1372Y2323D01*
X1415Y2323D02*
X1472Y2323D01*
X1316Y2322D02*
X1371Y2322D01*
X1416Y2322D02*
X1471Y2322D01*
X1317Y2321D02*
X1370Y2321D01*
X1417Y2321D02*
X1470Y2321D01*
X1318Y2320D02*
X1369Y2320D01*
X1418Y2320D02*
X1469Y2320D01*
X1320Y2319D02*
X1367Y2319D01*
X1420Y2319D02*
X1467Y2319D01*
X1321Y2318D02*
X1366Y2318D01*
X1421Y2318D02*
X1466Y2318D01*
X1323Y2317D02*
X1364Y2317D01*
X1423Y2317D02*
X1464Y2317D01*
X1324Y2316D02*
X1363Y2316D01*
X1424Y2316D02*
X1463Y2316D01*
X1326Y2315D02*
X1361Y2315D01*
X1426Y2315D02*
X1461Y2315D01*
X1328Y2314D02*
X1359Y2314D01*
X1428Y2314D02*
X1459Y2314D01*
X1331Y2313D02*
X1356Y2313D01*
X1431Y2313D02*
X1456Y2313D01*
X1334Y2312D02*
X1353Y2312D01*
X1434Y2312D02*
X1453Y2312D01*
X1339Y2311D02*
X1348Y2311D01*
X1439Y2311D02*
X1448Y2311D01*
D02*
G04 End of Mask0*
M02*