G04 MADE WITH FRITZING*
G04 WWW.FRITZING.ORG*
G04 DOUBLE SIDED*
G04 HOLES PLATED*
G04 CONTOUR ON CENTER OF CONTOUR VECTOR*
%ASAXBY*%
%FSLAX23Y23*%
%MOIN*%
%OFA0B0*%
%SFA1.0B1.0*%
%ADD10C,0.075000*%
%ADD11C,0.177165*%
%ADD12C,0.039370*%
%ADD13C,0.078000*%
%ADD14C,0.066000*%
%ADD15C,0.110000*%
%ADD16C,0.062000*%
%ADD17C,0.070000*%
%ADD18R,0.078000X0.078000*%
%ADD19C,0.032000*%
%ADD20C,0.024000*%
%ADD21C,0.016000*%
%ADD22R,0.001000X0.001000*%
%LNCOPPER0*%
G90*
G70*
G54D10*
X1571Y2049D03*
X2072Y1685D03*
X272Y2401D03*
G54D11*
X119Y125D03*
X119Y2400D03*
X2394Y125D03*
X2394Y2400D03*
G54D12*
X1944Y949D03*
X1819Y1525D03*
X1694Y1800D03*
X1619Y1850D03*
G54D13*
X919Y2400D03*
X1019Y2400D03*
X1019Y425D03*
X919Y425D03*
X2294Y325D03*
X2294Y425D03*
X2294Y525D03*
X2144Y125D03*
X2044Y125D03*
X1944Y125D03*
X2294Y725D03*
X2294Y825D03*
X2294Y925D03*
X1669Y125D03*
X1569Y125D03*
X1469Y125D03*
X1369Y125D03*
X2294Y1450D03*
X2294Y1350D03*
X2294Y1250D03*
X2294Y1150D03*
X2144Y2400D03*
X2044Y2400D03*
X1944Y2400D03*
X1844Y2400D03*
X2294Y2175D03*
X2294Y2075D03*
X2294Y1975D03*
X2294Y1875D03*
X2294Y1775D03*
X2294Y1675D03*
G54D10*
X1044Y1725D03*
X644Y1725D03*
X1044Y1600D03*
X644Y1600D03*
G54D13*
X469Y2400D03*
X569Y2400D03*
X669Y2400D03*
X819Y125D03*
X919Y125D03*
X1019Y125D03*
G54D14*
X444Y475D03*
X444Y573D03*
X366Y573D03*
X366Y475D03*
G54D15*
X259Y287D03*
X259Y761D03*
G54D16*
X1769Y1350D03*
X1669Y1350D03*
X1569Y1350D03*
X1469Y1350D03*
X1369Y1350D03*
X1269Y1350D03*
X1169Y1350D03*
X1069Y1350D03*
X969Y1350D03*
X869Y1350D03*
X769Y1350D03*
X669Y1350D03*
X569Y1350D03*
X469Y1350D03*
X369Y1350D03*
X269Y1350D03*
X669Y2150D03*
X769Y2150D03*
X869Y2150D03*
X969Y2150D03*
X1069Y2150D03*
X1169Y2150D03*
X1269Y2150D03*
X1369Y2150D03*
X1469Y2150D03*
X1569Y2150D03*
X1669Y2150D03*
X1769Y2150D03*
G54D10*
X669Y1175D03*
X1069Y1175D03*
X1469Y2025D03*
X1469Y1625D03*
X1144Y1475D03*
X1544Y1475D03*
G54D17*
X1344Y2350D03*
X1444Y2350D03*
G54D18*
X469Y2400D03*
X819Y125D03*
G54D19*
X571Y2249D02*
X645Y2174D01*
D02*
X570Y2364D02*
X571Y2249D01*
D02*
X1270Y2401D02*
X1318Y2368D01*
D02*
X1055Y2400D02*
X1270Y2401D01*
G54D20*
D02*
X1444Y2425D02*
X1444Y2376D01*
D02*
X1520Y2474D02*
X1444Y2425D01*
D02*
X1995Y2474D02*
X1520Y2474D01*
D02*
X2028Y2425D02*
X1995Y2474D01*
G54D19*
D02*
X845Y474D02*
X890Y444D01*
D02*
X479Y475D02*
X845Y474D01*
D02*
X270Y525D02*
X336Y491D01*
D02*
X668Y876D02*
X270Y625D01*
D02*
X270Y625D02*
X270Y525D01*
D02*
X669Y1141D02*
X668Y876D01*
D02*
X1571Y175D02*
X1570Y160D01*
D02*
X420Y224D02*
X1520Y224D01*
D02*
X1520Y224D02*
X1571Y175D01*
D02*
X369Y275D02*
X420Y224D01*
D02*
X367Y440D02*
X369Y275D01*
G54D21*
D02*
X1469Y2025D02*
X1469Y2127D01*
D02*
X1469Y2002D02*
X1469Y2025D01*
G54D19*
D02*
X2045Y375D02*
X2044Y160D01*
D02*
X2094Y424D02*
X2045Y375D01*
D02*
X2259Y425D02*
X2094Y424D01*
D02*
X1945Y75D02*
X1945Y89D01*
D02*
X1994Y25D02*
X1945Y75D01*
D02*
X2244Y49D02*
X2219Y25D01*
D02*
X2294Y274D02*
X2244Y225D01*
D02*
X2244Y225D02*
X2244Y49D01*
D02*
X2219Y25D02*
X1994Y25D01*
D02*
X2294Y289D02*
X2294Y274D01*
D02*
X2345Y325D02*
X2330Y325D01*
D02*
X2394Y674D02*
X2394Y375D01*
D02*
X2345Y725D02*
X2394Y674D01*
D02*
X2394Y375D02*
X2345Y325D01*
D02*
X2330Y725D02*
X2345Y725D01*
G54D21*
D02*
X1970Y926D02*
X2270Y925D01*
D02*
X1954Y940D02*
X1970Y926D01*
G54D19*
D02*
X2345Y726D02*
X2330Y725D01*
D02*
X2345Y1349D02*
X2394Y1300D01*
D02*
X2394Y1300D02*
X2394Y775D01*
D02*
X2394Y775D02*
X2345Y726D01*
D02*
X2330Y1350D02*
X2345Y1349D01*
G54D20*
D02*
X2069Y1475D02*
X1573Y1475D01*
D02*
X2195Y1675D02*
X2069Y1475D01*
D02*
X2264Y1675D02*
X2195Y1675D01*
G54D19*
D02*
X2044Y176D02*
X2044Y160D01*
D02*
X1993Y224D02*
X2044Y176D01*
D02*
X1670Y176D02*
X1719Y224D01*
D02*
X1719Y224D02*
X1993Y224D01*
D02*
X1670Y160D02*
X1670Y176D01*
D02*
X1569Y75D02*
X1569Y89D01*
D02*
X1894Y125D02*
X1844Y24D01*
D02*
X1844Y24D02*
X1620Y24D01*
D02*
X1620Y24D02*
X1569Y75D01*
D02*
X1909Y125D02*
X1894Y125D01*
G54D20*
D02*
X645Y1525D02*
X645Y1571D01*
D02*
X594Y1474D02*
X645Y1525D01*
D02*
X420Y1474D02*
X594Y1474D01*
D02*
X370Y1426D02*
X420Y1474D01*
D02*
X370Y1379D02*
X370Y1426D01*
G54D21*
D02*
X1195Y1950D02*
X1620Y1949D01*
D02*
X1670Y1999D02*
X1670Y2127D01*
D02*
X1620Y1949D02*
X1670Y1999D01*
D02*
X1044Y1826D02*
X1195Y1950D01*
D02*
X1044Y1748D02*
X1044Y1826D01*
D02*
X1769Y2026D02*
X1769Y2127D01*
D02*
X1644Y1900D02*
X1769Y2026D01*
D02*
X1294Y1899D02*
X1644Y1900D01*
D02*
X1144Y1775D02*
X1294Y1899D01*
D02*
X1144Y1674D02*
X1144Y1775D01*
D02*
X1063Y1614D02*
X1144Y1674D01*
G54D20*
D02*
X2193Y1449D02*
X2069Y1249D01*
D02*
X2069Y1249D02*
X420Y1249D01*
D02*
X420Y1249D02*
X369Y1300D01*
D02*
X2264Y1450D02*
X2193Y1449D01*
D02*
X369Y1300D02*
X369Y1321D01*
D02*
X645Y1625D02*
X645Y1628D01*
D02*
X645Y1696D02*
X645Y1625D01*
D02*
X2345Y1349D02*
X2325Y1349D01*
D02*
X2394Y2024D02*
X2394Y1400D01*
D02*
X2345Y2075D02*
X2394Y2024D01*
D02*
X2394Y1400D02*
X2345Y1349D01*
D02*
X2325Y2075D02*
X2345Y2075D01*
D02*
X2194Y2075D02*
X2264Y2075D01*
D02*
X2045Y2200D02*
X2194Y2075D01*
D02*
X2044Y2370D02*
X2045Y2200D01*
G54D21*
D02*
X2045Y1774D02*
X1828Y1535D01*
D02*
X2270Y1775D02*
X2045Y1774D01*
D02*
X2045Y1875D02*
X2270Y1875D01*
D02*
X1969Y1800D02*
X2045Y1875D01*
D02*
X1708Y1800D02*
X1969Y1800D01*
D02*
X2045Y1975D02*
X1945Y1850D01*
D02*
X1945Y1850D02*
X1633Y1850D01*
D02*
X2270Y1975D02*
X2045Y1975D01*
G36*
X1510Y2144D02*
X1510Y2140D01*
X1508Y2140D01*
X1508Y2134D01*
X1506Y2134D01*
X1506Y2130D01*
X1504Y2130D01*
X1504Y2126D01*
X1502Y2126D01*
X1502Y2124D01*
X1500Y2124D01*
X1500Y2122D01*
X1498Y2122D01*
X1498Y2120D01*
X1496Y2120D01*
X1496Y2118D01*
X1494Y2118D01*
X1494Y2116D01*
X1490Y2116D01*
X1490Y2114D01*
X1488Y2114D01*
X1488Y2110D01*
X1558Y2110D01*
X1558Y2112D01*
X1552Y2112D01*
X1552Y2114D01*
X1548Y2114D01*
X1548Y2116D01*
X1546Y2116D01*
X1546Y2118D01*
X1542Y2118D01*
X1542Y2120D01*
X1540Y2120D01*
X1540Y2122D01*
X1538Y2122D01*
X1538Y2126D01*
X1536Y2126D01*
X1536Y2128D01*
X1534Y2128D01*
X1534Y2132D01*
X1532Y2132D01*
X1532Y2136D01*
X1530Y2136D01*
X1530Y2144D01*
X1510Y2144D01*
G37*
D02*
G36*
X1610Y2144D02*
X1610Y2140D01*
X1608Y2140D01*
X1608Y2134D01*
X1606Y2134D01*
X1606Y2130D01*
X1604Y2130D01*
X1604Y2126D01*
X1602Y2126D01*
X1602Y2124D01*
X1600Y2124D01*
X1600Y2122D01*
X1598Y2122D01*
X1598Y2120D01*
X1596Y2120D01*
X1596Y2118D01*
X1594Y2118D01*
X1594Y2116D01*
X1590Y2116D01*
X1590Y2114D01*
X1586Y2114D01*
X1586Y2112D01*
X1580Y2112D01*
X1580Y2110D01*
X1652Y2110D01*
X1652Y2114D01*
X1648Y2114D01*
X1648Y2116D01*
X1646Y2116D01*
X1646Y2118D01*
X1642Y2118D01*
X1642Y2120D01*
X1640Y2120D01*
X1640Y2122D01*
X1638Y2122D01*
X1638Y2126D01*
X1636Y2126D01*
X1636Y2128D01*
X1634Y2128D01*
X1634Y2132D01*
X1632Y2132D01*
X1632Y2136D01*
X1630Y2136D01*
X1630Y2144D01*
X1610Y2144D01*
G37*
D02*
G36*
X1488Y2110D02*
X1488Y2108D01*
X1652Y2108D01*
X1652Y2110D01*
X1488Y2110D01*
G37*
D02*
G36*
X1488Y2110D02*
X1488Y2108D01*
X1652Y2108D01*
X1652Y2110D01*
X1488Y2110D01*
G37*
D02*
G36*
X1488Y2108D02*
X1488Y2068D01*
X1492Y2068D01*
X1492Y2066D01*
X1494Y2066D01*
X1494Y2064D01*
X1498Y2064D01*
X1498Y2062D01*
X1500Y2062D01*
X1500Y2060D01*
X1502Y2060D01*
X1502Y2058D01*
X1504Y2058D01*
X1504Y2056D01*
X1506Y2056D01*
X1506Y2054D01*
X1508Y2054D01*
X1508Y2052D01*
X1510Y2052D01*
X1510Y2048D01*
X1512Y2048D01*
X1512Y2044D01*
X1514Y2044D01*
X1514Y2038D01*
X1516Y2038D01*
X1516Y2012D01*
X1514Y2012D01*
X1514Y2006D01*
X1512Y2006D01*
X1512Y2002D01*
X1510Y2002D01*
X1510Y2000D01*
X1508Y2000D01*
X1508Y1996D01*
X1506Y1996D01*
X1506Y1994D01*
X1504Y1994D01*
X1504Y1992D01*
X1502Y1992D01*
X1502Y1990D01*
X1500Y1990D01*
X1500Y1988D01*
X1498Y1988D01*
X1498Y1968D01*
X1614Y1968D01*
X1614Y1970D01*
X1616Y1970D01*
X1616Y1972D01*
X1618Y1972D01*
X1618Y1974D01*
X1620Y1974D01*
X1620Y1976D01*
X1622Y1976D01*
X1622Y1978D01*
X1624Y1978D01*
X1624Y1980D01*
X1626Y1980D01*
X1626Y1982D01*
X1628Y1982D01*
X1628Y1984D01*
X1630Y1984D01*
X1630Y1986D01*
X1632Y1986D01*
X1632Y1988D01*
X1634Y1988D01*
X1634Y1990D01*
X1636Y1990D01*
X1636Y1992D01*
X1638Y1992D01*
X1638Y1994D01*
X1640Y1994D01*
X1640Y1996D01*
X1642Y1996D01*
X1642Y1998D01*
X1644Y1998D01*
X1644Y2000D01*
X1646Y2000D01*
X1646Y2002D01*
X1648Y2002D01*
X1648Y2004D01*
X1650Y2004D01*
X1650Y2006D01*
X1652Y2006D01*
X1652Y2108D01*
X1488Y2108D01*
G37*
D02*
G36*
X1710Y2144D02*
X1710Y2140D01*
X1708Y2140D01*
X1708Y2134D01*
X1706Y2134D01*
X1706Y2130D01*
X1704Y2130D01*
X1704Y2126D01*
X1702Y2126D01*
X1702Y2124D01*
X1700Y2124D01*
X1700Y2122D01*
X1698Y2122D01*
X1698Y2120D01*
X1696Y2120D01*
X1696Y2118D01*
X1694Y2118D01*
X1694Y2116D01*
X1690Y2116D01*
X1690Y2114D01*
X1688Y2114D01*
X1688Y1992D01*
X1686Y1992D01*
X1686Y1990D01*
X1684Y1990D01*
X1684Y1986D01*
X1682Y1986D01*
X1682Y1984D01*
X1680Y1984D01*
X1680Y1982D01*
X1678Y1982D01*
X1678Y1980D01*
X1676Y1980D01*
X1676Y1978D01*
X1674Y1978D01*
X1674Y1976D01*
X1672Y1976D01*
X1672Y1974D01*
X1670Y1974D01*
X1670Y1972D01*
X1668Y1972D01*
X1668Y1970D01*
X1666Y1970D01*
X1666Y1968D01*
X1664Y1968D01*
X1664Y1966D01*
X1662Y1966D01*
X1662Y1964D01*
X1660Y1964D01*
X1660Y1962D01*
X1658Y1962D01*
X1658Y1960D01*
X1656Y1960D01*
X1656Y1958D01*
X1654Y1958D01*
X1654Y1956D01*
X1652Y1956D01*
X1652Y1954D01*
X1650Y1954D01*
X1650Y1952D01*
X1648Y1952D01*
X1648Y1950D01*
X1646Y1950D01*
X1646Y1948D01*
X1644Y1948D01*
X1644Y1946D01*
X1642Y1946D01*
X1642Y1944D01*
X1640Y1944D01*
X1640Y1942D01*
X1638Y1942D01*
X1638Y1940D01*
X1636Y1940D01*
X1636Y1938D01*
X1634Y1938D01*
X1634Y1936D01*
X1654Y1936D01*
X1654Y1938D01*
X1656Y1938D01*
X1656Y1940D01*
X1658Y1940D01*
X1658Y1942D01*
X1660Y1942D01*
X1660Y1944D01*
X1662Y1944D01*
X1662Y1946D01*
X1664Y1946D01*
X1664Y1948D01*
X1666Y1948D01*
X1666Y1950D01*
X1668Y1950D01*
X1668Y1952D01*
X1670Y1952D01*
X1670Y1954D01*
X1672Y1954D01*
X1672Y1956D01*
X1674Y1956D01*
X1674Y1958D01*
X1676Y1958D01*
X1676Y1960D01*
X1678Y1960D01*
X1678Y1962D01*
X1680Y1962D01*
X1680Y1964D01*
X1682Y1964D01*
X1682Y1966D01*
X1684Y1966D01*
X1684Y1968D01*
X1686Y1968D01*
X1686Y1970D01*
X1688Y1970D01*
X1688Y1972D01*
X1690Y1972D01*
X1690Y1974D01*
X1692Y1974D01*
X1692Y1976D01*
X1694Y1976D01*
X1694Y1978D01*
X1696Y1978D01*
X1696Y1980D01*
X1698Y1980D01*
X1698Y1982D01*
X1700Y1982D01*
X1700Y1984D01*
X1702Y1984D01*
X1702Y1986D01*
X1704Y1986D01*
X1704Y1988D01*
X1706Y1988D01*
X1706Y1990D01*
X1708Y1990D01*
X1708Y1992D01*
X1710Y1992D01*
X1710Y1994D01*
X1712Y1994D01*
X1712Y1996D01*
X1714Y1996D01*
X1714Y1998D01*
X1716Y1998D01*
X1716Y2000D01*
X1718Y2000D01*
X1718Y2002D01*
X1720Y2002D01*
X1720Y2004D01*
X1722Y2004D01*
X1722Y2006D01*
X1724Y2006D01*
X1724Y2008D01*
X1726Y2008D01*
X1726Y2010D01*
X1728Y2010D01*
X1728Y2012D01*
X1730Y2012D01*
X1730Y2014D01*
X1732Y2014D01*
X1732Y2016D01*
X1734Y2016D01*
X1734Y2018D01*
X1736Y2018D01*
X1736Y2020D01*
X1738Y2020D01*
X1738Y2022D01*
X1740Y2022D01*
X1740Y2024D01*
X1742Y2024D01*
X1742Y2026D01*
X1744Y2026D01*
X1744Y2028D01*
X1746Y2028D01*
X1746Y2030D01*
X1748Y2030D01*
X1748Y2032D01*
X1750Y2032D01*
X1750Y2034D01*
X1752Y2034D01*
X1752Y2114D01*
X1748Y2114D01*
X1748Y2116D01*
X1746Y2116D01*
X1746Y2118D01*
X1742Y2118D01*
X1742Y2120D01*
X1740Y2120D01*
X1740Y2122D01*
X1738Y2122D01*
X1738Y2126D01*
X1736Y2126D01*
X1736Y2128D01*
X1734Y2128D01*
X1734Y2132D01*
X1732Y2132D01*
X1732Y2136D01*
X1730Y2136D01*
X1730Y2144D01*
X1710Y2144D01*
G37*
D02*
G36*
X2054Y1958D02*
X2054Y1956D01*
X2052Y1956D01*
X2052Y1954D01*
X2050Y1954D01*
X2050Y1952D01*
X2048Y1952D01*
X2048Y1950D01*
X2046Y1950D01*
X2046Y1946D01*
X2044Y1946D01*
X2044Y1944D01*
X2042Y1944D01*
X2042Y1942D01*
X2040Y1942D01*
X2040Y1940D01*
X2038Y1940D01*
X2038Y1936D01*
X2036Y1936D01*
X2036Y1934D01*
X2034Y1934D01*
X2034Y1932D01*
X2032Y1932D01*
X2032Y1930D01*
X2030Y1930D01*
X2030Y1926D01*
X2028Y1926D01*
X2028Y1924D01*
X2026Y1924D01*
X2026Y1922D01*
X2024Y1922D01*
X2024Y1920D01*
X2022Y1920D01*
X2022Y1916D01*
X2020Y1916D01*
X2020Y1914D01*
X2018Y1914D01*
X2018Y1912D01*
X2016Y1912D01*
X2016Y1910D01*
X2014Y1910D01*
X2014Y1906D01*
X2012Y1906D01*
X2012Y1904D01*
X2010Y1904D01*
X2010Y1902D01*
X2008Y1902D01*
X2008Y1900D01*
X2006Y1900D01*
X2006Y1898D01*
X2004Y1898D01*
X2004Y1894D01*
X2002Y1894D01*
X2002Y1892D01*
X2000Y1892D01*
X2000Y1890D01*
X1998Y1890D01*
X1998Y1888D01*
X1996Y1888D01*
X1996Y1884D01*
X1994Y1884D01*
X1994Y1882D01*
X1992Y1882D01*
X1992Y1880D01*
X1990Y1880D01*
X1990Y1878D01*
X1988Y1878D01*
X1988Y1874D01*
X1986Y1874D01*
X1986Y1872D01*
X1984Y1872D01*
X1984Y1870D01*
X1982Y1870D01*
X1982Y1868D01*
X1980Y1868D01*
X1980Y1864D01*
X1978Y1864D01*
X1978Y1862D01*
X1976Y1862D01*
X1976Y1860D01*
X1974Y1860D01*
X1974Y1858D01*
X1972Y1858D01*
X1972Y1854D01*
X1970Y1854D01*
X1970Y1852D01*
X1968Y1852D01*
X1968Y1850D01*
X1966Y1850D01*
X1966Y1848D01*
X1964Y1848D01*
X1964Y1844D01*
X1962Y1844D01*
X1962Y1842D01*
X1960Y1842D01*
X1960Y1840D01*
X1958Y1840D01*
X1958Y1838D01*
X1956Y1838D01*
X1956Y1832D01*
X1976Y1832D01*
X1976Y1834D01*
X1978Y1834D01*
X1978Y1836D01*
X1980Y1836D01*
X1980Y1838D01*
X1982Y1838D01*
X1982Y1840D01*
X1984Y1840D01*
X1984Y1842D01*
X1986Y1842D01*
X1986Y1844D01*
X1988Y1844D01*
X1988Y1846D01*
X1990Y1846D01*
X1990Y1848D01*
X1992Y1848D01*
X1992Y1850D01*
X1994Y1850D01*
X1994Y1852D01*
X1996Y1852D01*
X1996Y1854D01*
X1998Y1854D01*
X1998Y1856D01*
X2000Y1856D01*
X2000Y1858D01*
X2002Y1858D01*
X2002Y1860D01*
X2004Y1860D01*
X2004Y1862D01*
X2006Y1862D01*
X2006Y1864D01*
X2008Y1864D01*
X2008Y1866D01*
X2012Y1866D01*
X2012Y1868D01*
X2014Y1868D01*
X2014Y1870D01*
X2016Y1870D01*
X2016Y1872D01*
X2018Y1872D01*
X2018Y1874D01*
X2020Y1874D01*
X2020Y1876D01*
X2022Y1876D01*
X2022Y1878D01*
X2024Y1878D01*
X2024Y1880D01*
X2026Y1880D01*
X2026Y1882D01*
X2028Y1882D01*
X2028Y1884D01*
X2030Y1884D01*
X2030Y1886D01*
X2032Y1886D01*
X2032Y1888D01*
X2034Y1888D01*
X2034Y1890D01*
X2036Y1890D01*
X2036Y1892D01*
X2086Y1892D01*
X2086Y1894D01*
X2250Y1894D01*
X2250Y1898D01*
X2252Y1898D01*
X2252Y1900D01*
X2254Y1900D01*
X2254Y1904D01*
X2256Y1904D01*
X2256Y1906D01*
X2258Y1906D01*
X2258Y1908D01*
X2260Y1908D01*
X2260Y1910D01*
X2262Y1910D01*
X2262Y1912D01*
X2264Y1912D01*
X2264Y1914D01*
X2266Y1914D01*
X2266Y1936D01*
X2264Y1936D01*
X2264Y1938D01*
X2262Y1938D01*
X2262Y1940D01*
X2260Y1940D01*
X2260Y1942D01*
X2258Y1942D01*
X2258Y1944D01*
X2256Y1944D01*
X2256Y1946D01*
X2254Y1946D01*
X2254Y1950D01*
X2252Y1950D01*
X2252Y1952D01*
X2250Y1952D01*
X2250Y1956D01*
X2248Y1956D01*
X2248Y1958D01*
X2054Y1958D01*
G37*
D02*
G36*
X2052Y1756D02*
X2052Y1754D01*
X2050Y1754D01*
X2050Y1752D01*
X2048Y1752D01*
X2048Y1750D01*
X2046Y1750D01*
X2046Y1748D01*
X2044Y1748D01*
X2044Y1746D01*
X2042Y1746D01*
X2042Y1744D01*
X2040Y1744D01*
X2040Y1742D01*
X2038Y1742D01*
X2038Y1740D01*
X2036Y1740D01*
X2036Y1736D01*
X2034Y1736D01*
X2034Y1734D01*
X2032Y1734D01*
X2032Y1732D01*
X2030Y1732D01*
X2030Y1730D01*
X2028Y1730D01*
X2028Y1728D01*
X2026Y1728D01*
X2026Y1726D01*
X2024Y1726D01*
X2024Y1724D01*
X2022Y1724D01*
X2022Y1722D01*
X2020Y1722D01*
X2020Y1720D01*
X2018Y1720D01*
X2018Y1716D01*
X2016Y1716D01*
X2016Y1714D01*
X2014Y1714D01*
X2014Y1712D01*
X2012Y1712D01*
X2012Y1710D01*
X2010Y1710D01*
X2010Y1708D01*
X2008Y1708D01*
X2008Y1706D01*
X2006Y1706D01*
X2006Y1704D01*
X2004Y1704D01*
X2004Y1702D01*
X2002Y1702D01*
X2002Y1700D01*
X2000Y1700D01*
X2000Y1698D01*
X1998Y1698D01*
X1998Y1694D01*
X1996Y1694D01*
X1996Y1692D01*
X1994Y1692D01*
X1994Y1690D01*
X1992Y1690D01*
X1992Y1688D01*
X1990Y1688D01*
X1990Y1686D01*
X1988Y1686D01*
X1988Y1684D01*
X1986Y1684D01*
X1986Y1682D01*
X1984Y1682D01*
X1984Y1680D01*
X1982Y1680D01*
X1982Y1678D01*
X1980Y1678D01*
X1980Y1674D01*
X1978Y1674D01*
X1978Y1672D01*
X1976Y1672D01*
X1976Y1670D01*
X1974Y1670D01*
X1974Y1668D01*
X1972Y1668D01*
X1972Y1666D01*
X1970Y1666D01*
X1970Y1664D01*
X1968Y1664D01*
X1968Y1662D01*
X1966Y1662D01*
X1966Y1660D01*
X1964Y1660D01*
X1964Y1658D01*
X1962Y1658D01*
X1962Y1654D01*
X1960Y1654D01*
X1960Y1652D01*
X1958Y1652D01*
X1958Y1650D01*
X1956Y1650D01*
X1956Y1648D01*
X1954Y1648D01*
X1954Y1646D01*
X1952Y1646D01*
X1952Y1644D01*
X1950Y1644D01*
X1950Y1642D01*
X1948Y1642D01*
X1948Y1640D01*
X1946Y1640D01*
X1946Y1638D01*
X1944Y1638D01*
X1944Y1636D01*
X1942Y1636D01*
X1942Y1632D01*
X1940Y1632D01*
X1940Y1630D01*
X1938Y1630D01*
X1938Y1628D01*
X1936Y1628D01*
X1936Y1626D01*
X1934Y1626D01*
X1934Y1624D01*
X1932Y1624D01*
X1932Y1622D01*
X1930Y1622D01*
X1930Y1620D01*
X1928Y1620D01*
X1928Y1618D01*
X1926Y1618D01*
X1926Y1616D01*
X1924Y1616D01*
X1924Y1612D01*
X1922Y1612D01*
X1922Y1610D01*
X1920Y1610D01*
X1920Y1608D01*
X1918Y1608D01*
X1918Y1606D01*
X1916Y1606D01*
X1916Y1604D01*
X1914Y1604D01*
X1914Y1602D01*
X1912Y1602D01*
X1912Y1600D01*
X1910Y1600D01*
X1910Y1598D01*
X1908Y1598D01*
X1908Y1596D01*
X1906Y1596D01*
X1906Y1592D01*
X1904Y1592D01*
X1904Y1590D01*
X1902Y1590D01*
X1902Y1588D01*
X1900Y1588D01*
X1900Y1586D01*
X1898Y1586D01*
X1898Y1584D01*
X1896Y1584D01*
X1896Y1582D01*
X1894Y1582D01*
X1894Y1580D01*
X1892Y1580D01*
X1892Y1578D01*
X1890Y1578D01*
X1890Y1576D01*
X1888Y1576D01*
X1888Y1574D01*
X1886Y1574D01*
X1886Y1570D01*
X1884Y1570D01*
X1884Y1568D01*
X1882Y1568D01*
X1882Y1566D01*
X1880Y1566D01*
X1880Y1564D01*
X1878Y1564D01*
X1878Y1562D01*
X1876Y1562D01*
X1876Y1560D01*
X1874Y1560D01*
X1874Y1558D01*
X1872Y1558D01*
X1872Y1556D01*
X1870Y1556D01*
X1870Y1554D01*
X1868Y1554D01*
X1868Y1550D01*
X1866Y1550D01*
X1866Y1548D01*
X1864Y1548D01*
X1864Y1546D01*
X1862Y1546D01*
X1862Y1544D01*
X1860Y1544D01*
X1860Y1542D01*
X1858Y1542D01*
X1858Y1540D01*
X1856Y1540D01*
X1856Y1538D01*
X1854Y1538D01*
X1854Y1536D01*
X1852Y1536D01*
X1852Y1534D01*
X1850Y1534D01*
X1850Y1524D01*
X1848Y1524D01*
X1848Y1498D01*
X2058Y1498D01*
X2058Y1502D01*
X2060Y1502D01*
X2060Y1504D01*
X2062Y1504D01*
X2062Y1508D01*
X2064Y1508D01*
X2064Y1510D01*
X2066Y1510D01*
X2066Y1514D01*
X2068Y1514D01*
X2068Y1518D01*
X2070Y1518D01*
X2070Y1520D01*
X2072Y1520D01*
X2072Y1524D01*
X2074Y1524D01*
X2074Y1526D01*
X2076Y1526D01*
X2076Y1530D01*
X2078Y1530D01*
X2078Y1534D01*
X2080Y1534D01*
X2080Y1536D01*
X2082Y1536D01*
X2082Y1540D01*
X2084Y1540D01*
X2084Y1542D01*
X2086Y1542D01*
X2086Y1546D01*
X2088Y1546D01*
X2088Y1550D01*
X2090Y1550D01*
X2090Y1552D01*
X2092Y1552D01*
X2092Y1556D01*
X2094Y1556D01*
X2094Y1558D01*
X2096Y1558D01*
X2096Y1562D01*
X2098Y1562D01*
X2098Y1564D01*
X2100Y1564D01*
X2100Y1568D01*
X2102Y1568D01*
X2102Y1572D01*
X2104Y1572D01*
X2104Y1574D01*
X2106Y1574D01*
X2106Y1578D01*
X2108Y1578D01*
X2108Y1580D01*
X2110Y1580D01*
X2110Y1584D01*
X2112Y1584D01*
X2112Y1588D01*
X2114Y1588D01*
X2114Y1590D01*
X2116Y1590D01*
X2116Y1594D01*
X2118Y1594D01*
X2118Y1596D01*
X2120Y1596D01*
X2120Y1600D01*
X2122Y1600D01*
X2122Y1604D01*
X2124Y1604D01*
X2124Y1606D01*
X2126Y1606D01*
X2126Y1610D01*
X2128Y1610D01*
X2128Y1612D01*
X2130Y1612D01*
X2130Y1616D01*
X2132Y1616D01*
X2132Y1620D01*
X2134Y1620D01*
X2134Y1622D01*
X2136Y1622D01*
X2136Y1626D01*
X2138Y1626D01*
X2138Y1628D01*
X2140Y1628D01*
X2140Y1632D01*
X2142Y1632D01*
X2142Y1634D01*
X2144Y1634D01*
X2144Y1638D01*
X2146Y1638D01*
X2146Y1642D01*
X2148Y1642D01*
X2148Y1644D01*
X2150Y1644D01*
X2150Y1648D01*
X2152Y1648D01*
X2152Y1650D01*
X2154Y1650D01*
X2154Y1654D01*
X2156Y1654D01*
X2156Y1658D01*
X2158Y1658D01*
X2158Y1660D01*
X2160Y1660D01*
X2160Y1664D01*
X2162Y1664D01*
X2162Y1666D01*
X2164Y1666D01*
X2164Y1670D01*
X2166Y1670D01*
X2166Y1674D01*
X2168Y1674D01*
X2168Y1676D01*
X2170Y1676D01*
X2170Y1680D01*
X2172Y1680D01*
X2172Y1682D01*
X2174Y1682D01*
X2174Y1686D01*
X2176Y1686D01*
X2176Y1688D01*
X2178Y1688D01*
X2178Y1692D01*
X2182Y1692D01*
X2182Y1694D01*
X2184Y1694D01*
X2184Y1696D01*
X2190Y1696D01*
X2190Y1698D01*
X2252Y1698D01*
X2252Y1700D01*
X2254Y1700D01*
X2254Y1704D01*
X2256Y1704D01*
X2256Y1706D01*
X2258Y1706D01*
X2258Y1708D01*
X2260Y1708D01*
X2260Y1710D01*
X2262Y1710D01*
X2262Y1712D01*
X2264Y1712D01*
X2264Y1714D01*
X2266Y1714D01*
X2266Y1736D01*
X2264Y1736D01*
X2264Y1738D01*
X2262Y1738D01*
X2262Y1740D01*
X2260Y1740D01*
X2260Y1742D01*
X2258Y1742D01*
X2258Y1744D01*
X2256Y1744D01*
X2256Y1746D01*
X2254Y1746D01*
X2254Y1750D01*
X2252Y1750D01*
X2252Y1752D01*
X2250Y1752D01*
X2250Y1756D01*
X2052Y1756D01*
G37*
D02*
G36*
X196Y2480D02*
X196Y2460D01*
X198Y2460D01*
X198Y2458D01*
X200Y2458D01*
X200Y2456D01*
X202Y2456D01*
X202Y2452D01*
X204Y2452D01*
X204Y2450D01*
X2146Y2450D01*
X2146Y2448D01*
X2158Y2448D01*
X2158Y2446D01*
X2164Y2446D01*
X2164Y2444D01*
X2168Y2444D01*
X2168Y2442D01*
X2172Y2442D01*
X2172Y2440D01*
X2174Y2440D01*
X2174Y2438D01*
X2176Y2438D01*
X2176Y2436D01*
X2178Y2436D01*
X2178Y2434D01*
X2180Y2434D01*
X2180Y2432D01*
X2182Y2432D01*
X2182Y2430D01*
X2184Y2430D01*
X2184Y2428D01*
X2186Y2428D01*
X2186Y2424D01*
X2188Y2424D01*
X2188Y2420D01*
X2190Y2420D01*
X2190Y2414D01*
X2192Y2414D01*
X2192Y2406D01*
X2194Y2406D01*
X2194Y2394D01*
X2192Y2394D01*
X2192Y2386D01*
X2190Y2386D01*
X2190Y2380D01*
X2188Y2380D01*
X2188Y2376D01*
X2186Y2376D01*
X2186Y2372D01*
X2184Y2372D01*
X2184Y2370D01*
X2182Y2370D01*
X2182Y2368D01*
X2180Y2368D01*
X2180Y2366D01*
X2178Y2366D01*
X2178Y2364D01*
X2176Y2364D01*
X2176Y2362D01*
X2174Y2362D01*
X2174Y2360D01*
X2170Y2360D01*
X2170Y2358D01*
X2168Y2358D01*
X2168Y2356D01*
X2164Y2356D01*
X2164Y2354D01*
X2156Y2354D01*
X2156Y2352D01*
X2308Y2352D01*
X2308Y2354D01*
X2306Y2354D01*
X2306Y2358D01*
X2304Y2358D01*
X2304Y2364D01*
X2302Y2364D01*
X2302Y2368D01*
X2300Y2368D01*
X2300Y2376D01*
X2298Y2376D01*
X2298Y2386D01*
X2296Y2386D01*
X2296Y2414D01*
X2298Y2414D01*
X2298Y2424D01*
X2300Y2424D01*
X2300Y2432D01*
X2302Y2432D01*
X2302Y2436D01*
X2304Y2436D01*
X2304Y2442D01*
X2306Y2442D01*
X2306Y2446D01*
X2308Y2446D01*
X2308Y2450D01*
X2310Y2450D01*
X2310Y2452D01*
X2312Y2452D01*
X2312Y2456D01*
X2314Y2456D01*
X2314Y2458D01*
X2316Y2458D01*
X2316Y2460D01*
X2318Y2460D01*
X2318Y2480D01*
X196Y2480D01*
G37*
D02*
G36*
X204Y2450D02*
X204Y2448D01*
X206Y2448D01*
X206Y2446D01*
X208Y2446D01*
X208Y2440D01*
X210Y2440D01*
X210Y2436D01*
X212Y2436D01*
X212Y2430D01*
X214Y2430D01*
X214Y2424D01*
X216Y2424D01*
X216Y2412D01*
X218Y2412D01*
X218Y2388D01*
X216Y2388D01*
X216Y2376D01*
X214Y2376D01*
X214Y2370D01*
X212Y2370D01*
X212Y2364D01*
X210Y2364D01*
X210Y2360D01*
X208Y2360D01*
X208Y2356D01*
X206Y2356D01*
X206Y2352D01*
X420Y2352D01*
X420Y2448D01*
X422Y2448D01*
X422Y2450D01*
X204Y2450D01*
G37*
D02*
G36*
X518Y2450D02*
X518Y2436D01*
X538Y2436D01*
X538Y2438D01*
X540Y2438D01*
X540Y2440D01*
X542Y2440D01*
X542Y2442D01*
X546Y2442D01*
X546Y2444D01*
X550Y2444D01*
X550Y2446D01*
X556Y2446D01*
X556Y2448D01*
X568Y2448D01*
X568Y2450D01*
X518Y2450D01*
G37*
D02*
G36*
X572Y2450D02*
X572Y2448D01*
X582Y2448D01*
X582Y2446D01*
X588Y2446D01*
X588Y2444D01*
X592Y2444D01*
X592Y2442D01*
X596Y2442D01*
X596Y2440D01*
X598Y2440D01*
X598Y2438D01*
X602Y2438D01*
X602Y2436D01*
X604Y2436D01*
X604Y2434D01*
X606Y2434D01*
X606Y2432D01*
X608Y2432D01*
X608Y2428D01*
X630Y2428D01*
X630Y2430D01*
X632Y2430D01*
X632Y2432D01*
X634Y2432D01*
X634Y2434D01*
X636Y2434D01*
X636Y2436D01*
X638Y2436D01*
X638Y2438D01*
X640Y2438D01*
X640Y2440D01*
X642Y2440D01*
X642Y2442D01*
X646Y2442D01*
X646Y2444D01*
X650Y2444D01*
X650Y2446D01*
X656Y2446D01*
X656Y2448D01*
X668Y2448D01*
X668Y2450D01*
X572Y2450D01*
G37*
D02*
G36*
X672Y2450D02*
X672Y2448D01*
X682Y2448D01*
X682Y2446D01*
X688Y2446D01*
X688Y2444D01*
X692Y2444D01*
X692Y2442D01*
X696Y2442D01*
X696Y2440D01*
X698Y2440D01*
X698Y2438D01*
X702Y2438D01*
X702Y2436D01*
X704Y2436D01*
X704Y2434D01*
X706Y2434D01*
X706Y2432D01*
X708Y2432D01*
X708Y2428D01*
X710Y2428D01*
X710Y2426D01*
X712Y2426D01*
X712Y2422D01*
X714Y2422D01*
X714Y2418D01*
X716Y2418D01*
X716Y2410D01*
X718Y2410D01*
X718Y2390D01*
X716Y2390D01*
X716Y2382D01*
X714Y2382D01*
X714Y2378D01*
X712Y2378D01*
X712Y2374D01*
X710Y2374D01*
X710Y2372D01*
X708Y2372D01*
X708Y2370D01*
X706Y2370D01*
X706Y2366D01*
X704Y2366D01*
X704Y2364D01*
X702Y2364D01*
X702Y2362D01*
X698Y2362D01*
X698Y2360D01*
X696Y2360D01*
X696Y2358D01*
X692Y2358D01*
X692Y2356D01*
X688Y2356D01*
X688Y2354D01*
X682Y2354D01*
X682Y2352D01*
X906Y2352D01*
X906Y2354D01*
X900Y2354D01*
X900Y2356D01*
X896Y2356D01*
X896Y2358D01*
X894Y2358D01*
X894Y2360D01*
X890Y2360D01*
X890Y2362D01*
X888Y2362D01*
X888Y2364D01*
X886Y2364D01*
X886Y2366D01*
X884Y2366D01*
X884Y2368D01*
X882Y2368D01*
X882Y2370D01*
X880Y2370D01*
X880Y2372D01*
X878Y2372D01*
X878Y2376D01*
X876Y2376D01*
X876Y2380D01*
X874Y2380D01*
X874Y2386D01*
X872Y2386D01*
X872Y2394D01*
X870Y2394D01*
X870Y2406D01*
X872Y2406D01*
X872Y2416D01*
X874Y2416D01*
X874Y2420D01*
X876Y2420D01*
X876Y2424D01*
X878Y2424D01*
X878Y2428D01*
X880Y2428D01*
X880Y2430D01*
X882Y2430D01*
X882Y2432D01*
X884Y2432D01*
X884Y2434D01*
X886Y2434D01*
X886Y2436D01*
X888Y2436D01*
X888Y2438D01*
X890Y2438D01*
X890Y2440D01*
X892Y2440D01*
X892Y2442D01*
X896Y2442D01*
X896Y2444D01*
X900Y2444D01*
X900Y2446D01*
X906Y2446D01*
X906Y2448D01*
X918Y2448D01*
X918Y2450D01*
X672Y2450D01*
G37*
D02*
G36*
X922Y2450D02*
X922Y2448D01*
X932Y2448D01*
X932Y2446D01*
X938Y2446D01*
X938Y2444D01*
X942Y2444D01*
X942Y2442D01*
X946Y2442D01*
X946Y2440D01*
X948Y2440D01*
X948Y2438D01*
X952Y2438D01*
X952Y2436D01*
X954Y2436D01*
X954Y2434D01*
X956Y2434D01*
X956Y2432D01*
X958Y2432D01*
X958Y2428D01*
X980Y2428D01*
X980Y2430D01*
X982Y2430D01*
X982Y2432D01*
X984Y2432D01*
X984Y2434D01*
X986Y2434D01*
X986Y2436D01*
X988Y2436D01*
X988Y2438D01*
X990Y2438D01*
X990Y2440D01*
X992Y2440D01*
X992Y2442D01*
X996Y2442D01*
X996Y2444D01*
X1000Y2444D01*
X1000Y2446D01*
X1006Y2446D01*
X1006Y2448D01*
X1018Y2448D01*
X1018Y2450D01*
X922Y2450D01*
G37*
D02*
G36*
X1022Y2450D02*
X1022Y2448D01*
X1032Y2448D01*
X1032Y2446D01*
X1038Y2446D01*
X1038Y2444D01*
X1042Y2444D01*
X1042Y2442D01*
X1046Y2442D01*
X1046Y2440D01*
X1048Y2440D01*
X1048Y2438D01*
X1052Y2438D01*
X1052Y2436D01*
X1054Y2436D01*
X1054Y2434D01*
X1056Y2434D01*
X1056Y2432D01*
X1058Y2432D01*
X1058Y2428D01*
X1060Y2428D01*
X1060Y2426D01*
X1280Y2426D01*
X1280Y2424D01*
X1284Y2424D01*
X1284Y2422D01*
X1286Y2422D01*
X1286Y2420D01*
X1290Y2420D01*
X1290Y2418D01*
X1292Y2418D01*
X1292Y2416D01*
X1296Y2416D01*
X1296Y2414D01*
X1298Y2414D01*
X1298Y2412D01*
X1302Y2412D01*
X1302Y2410D01*
X1304Y2410D01*
X1304Y2408D01*
X1308Y2408D01*
X1308Y2406D01*
X1310Y2406D01*
X1310Y2404D01*
X1314Y2404D01*
X1314Y2402D01*
X1316Y2402D01*
X1316Y2400D01*
X1320Y2400D01*
X1320Y2398D01*
X1322Y2398D01*
X1322Y2396D01*
X1446Y2396D01*
X1446Y2394D01*
X1458Y2394D01*
X1458Y2392D01*
X1462Y2392D01*
X1462Y2390D01*
X1466Y2390D01*
X1466Y2388D01*
X1470Y2388D01*
X1470Y2386D01*
X1472Y2386D01*
X1472Y2384D01*
X1474Y2384D01*
X1474Y2382D01*
X1476Y2382D01*
X1476Y2380D01*
X1478Y2380D01*
X1478Y2378D01*
X1480Y2378D01*
X1480Y2376D01*
X1482Y2376D01*
X1482Y2372D01*
X1484Y2372D01*
X1484Y2370D01*
X1486Y2370D01*
X1486Y2364D01*
X1488Y2364D01*
X1488Y2356D01*
X1490Y2356D01*
X1490Y2352D01*
X1832Y2352D01*
X1832Y2354D01*
X1826Y2354D01*
X1826Y2356D01*
X1822Y2356D01*
X1822Y2358D01*
X1818Y2358D01*
X1818Y2360D01*
X1816Y2360D01*
X1816Y2362D01*
X1812Y2362D01*
X1812Y2364D01*
X1810Y2364D01*
X1810Y2366D01*
X1808Y2366D01*
X1808Y2368D01*
X1806Y2368D01*
X1806Y2372D01*
X1804Y2372D01*
X1804Y2374D01*
X1802Y2374D01*
X1802Y2378D01*
X1800Y2378D01*
X1800Y2382D01*
X1798Y2382D01*
X1798Y2388D01*
X1796Y2388D01*
X1796Y2412D01*
X1798Y2412D01*
X1798Y2418D01*
X1800Y2418D01*
X1800Y2422D01*
X1802Y2422D01*
X1802Y2426D01*
X1804Y2426D01*
X1804Y2428D01*
X1806Y2428D01*
X1806Y2432D01*
X1808Y2432D01*
X1808Y2434D01*
X1810Y2434D01*
X1810Y2436D01*
X1812Y2436D01*
X1812Y2438D01*
X1814Y2438D01*
X1814Y2440D01*
X1818Y2440D01*
X1818Y2442D01*
X1822Y2442D01*
X1822Y2444D01*
X1824Y2444D01*
X1824Y2446D01*
X1832Y2446D01*
X1832Y2448D01*
X1842Y2448D01*
X1842Y2450D01*
X1022Y2450D01*
G37*
D02*
G36*
X1846Y2450D02*
X1846Y2448D01*
X1858Y2448D01*
X1858Y2446D01*
X1864Y2446D01*
X1864Y2444D01*
X1868Y2444D01*
X1868Y2442D01*
X1872Y2442D01*
X1872Y2440D01*
X1874Y2440D01*
X1874Y2438D01*
X1876Y2438D01*
X1876Y2436D01*
X1878Y2436D01*
X1878Y2434D01*
X1880Y2434D01*
X1880Y2432D01*
X1882Y2432D01*
X1882Y2430D01*
X1884Y2430D01*
X1884Y2428D01*
X1906Y2428D01*
X1906Y2432D01*
X1908Y2432D01*
X1908Y2434D01*
X1910Y2434D01*
X1910Y2436D01*
X1912Y2436D01*
X1912Y2438D01*
X1914Y2438D01*
X1914Y2440D01*
X1918Y2440D01*
X1918Y2442D01*
X1922Y2442D01*
X1922Y2444D01*
X1924Y2444D01*
X1924Y2446D01*
X1932Y2446D01*
X1932Y2448D01*
X1942Y2448D01*
X1942Y2450D01*
X1846Y2450D01*
G37*
D02*
G36*
X1946Y2450D02*
X1946Y2448D01*
X1958Y2448D01*
X1958Y2446D01*
X1964Y2446D01*
X1964Y2444D01*
X1968Y2444D01*
X1968Y2442D01*
X1972Y2442D01*
X1972Y2440D01*
X1974Y2440D01*
X1974Y2438D01*
X1976Y2438D01*
X1976Y2436D01*
X1978Y2436D01*
X1978Y2434D01*
X1980Y2434D01*
X1980Y2432D01*
X1982Y2432D01*
X1982Y2430D01*
X1984Y2430D01*
X1984Y2428D01*
X2006Y2428D01*
X2006Y2432D01*
X2008Y2432D01*
X2008Y2434D01*
X2010Y2434D01*
X2010Y2436D01*
X2012Y2436D01*
X2012Y2438D01*
X2014Y2438D01*
X2014Y2440D01*
X2018Y2440D01*
X2018Y2442D01*
X2022Y2442D01*
X2022Y2444D01*
X2024Y2444D01*
X2024Y2446D01*
X2032Y2446D01*
X2032Y2448D01*
X2042Y2448D01*
X2042Y2450D01*
X1946Y2450D01*
G37*
D02*
G36*
X2046Y2450D02*
X2046Y2448D01*
X2058Y2448D01*
X2058Y2446D01*
X2064Y2446D01*
X2064Y2444D01*
X2068Y2444D01*
X2068Y2442D01*
X2072Y2442D01*
X2072Y2440D01*
X2074Y2440D01*
X2074Y2438D01*
X2076Y2438D01*
X2076Y2436D01*
X2078Y2436D01*
X2078Y2434D01*
X2080Y2434D01*
X2080Y2432D01*
X2082Y2432D01*
X2082Y2430D01*
X2084Y2430D01*
X2084Y2428D01*
X2106Y2428D01*
X2106Y2432D01*
X2108Y2432D01*
X2108Y2434D01*
X2110Y2434D01*
X2110Y2436D01*
X2112Y2436D01*
X2112Y2438D01*
X2114Y2438D01*
X2114Y2440D01*
X2118Y2440D01*
X2118Y2442D01*
X2122Y2442D01*
X2122Y2444D01*
X2124Y2444D01*
X2124Y2446D01*
X2132Y2446D01*
X2132Y2448D01*
X2142Y2448D01*
X2142Y2450D01*
X2046Y2450D01*
G37*
D02*
G36*
X1346Y2396D02*
X1346Y2394D01*
X1358Y2394D01*
X1358Y2392D01*
X1362Y2392D01*
X1362Y2390D01*
X1366Y2390D01*
X1366Y2388D01*
X1370Y2388D01*
X1370Y2386D01*
X1372Y2386D01*
X1372Y2384D01*
X1374Y2384D01*
X1374Y2382D01*
X1376Y2382D01*
X1376Y2380D01*
X1378Y2380D01*
X1378Y2378D01*
X1380Y2378D01*
X1380Y2376D01*
X1382Y2376D01*
X1382Y2372D01*
X1384Y2372D01*
X1384Y2370D01*
X1404Y2370D01*
X1404Y2372D01*
X1406Y2372D01*
X1406Y2374D01*
X1408Y2374D01*
X1408Y2378D01*
X1410Y2378D01*
X1410Y2380D01*
X1412Y2380D01*
X1412Y2382D01*
X1414Y2382D01*
X1414Y2384D01*
X1416Y2384D01*
X1416Y2386D01*
X1418Y2386D01*
X1418Y2388D01*
X1422Y2388D01*
X1422Y2390D01*
X1426Y2390D01*
X1426Y2392D01*
X1432Y2392D01*
X1432Y2394D01*
X1442Y2394D01*
X1442Y2396D01*
X1346Y2396D01*
G37*
D02*
G36*
X1060Y2374D02*
X1060Y2372D01*
X1058Y2372D01*
X1058Y2370D01*
X1056Y2370D01*
X1056Y2366D01*
X1054Y2366D01*
X1054Y2364D01*
X1052Y2364D01*
X1052Y2362D01*
X1048Y2362D01*
X1048Y2360D01*
X1046Y2360D01*
X1046Y2358D01*
X1042Y2358D01*
X1042Y2356D01*
X1038Y2356D01*
X1038Y2354D01*
X1032Y2354D01*
X1032Y2352D01*
X1294Y2352D01*
X1294Y2354D01*
X1292Y2354D01*
X1292Y2356D01*
X1288Y2356D01*
X1288Y2358D01*
X1286Y2358D01*
X1286Y2360D01*
X1282Y2360D01*
X1282Y2362D01*
X1280Y2362D01*
X1280Y2364D01*
X1276Y2364D01*
X1276Y2366D01*
X1274Y2366D01*
X1274Y2368D01*
X1270Y2368D01*
X1270Y2370D01*
X1268Y2370D01*
X1268Y2372D01*
X1264Y2372D01*
X1264Y2374D01*
X1060Y2374D01*
G37*
D02*
G36*
X608Y2372D02*
X608Y2370D01*
X606Y2370D01*
X606Y2366D01*
X604Y2366D01*
X604Y2364D01*
X602Y2364D01*
X602Y2362D01*
X598Y2362D01*
X598Y2360D01*
X596Y2360D01*
X596Y2352D01*
X656Y2352D01*
X656Y2354D01*
X650Y2354D01*
X650Y2356D01*
X646Y2356D01*
X646Y2358D01*
X644Y2358D01*
X644Y2360D01*
X640Y2360D01*
X640Y2362D01*
X638Y2362D01*
X638Y2364D01*
X636Y2364D01*
X636Y2366D01*
X634Y2366D01*
X634Y2368D01*
X632Y2368D01*
X632Y2370D01*
X630Y2370D01*
X630Y2372D01*
X608Y2372D01*
G37*
D02*
G36*
X958Y2372D02*
X958Y2370D01*
X956Y2370D01*
X956Y2366D01*
X954Y2366D01*
X954Y2364D01*
X952Y2364D01*
X952Y2362D01*
X948Y2362D01*
X948Y2360D01*
X946Y2360D01*
X946Y2358D01*
X942Y2358D01*
X942Y2356D01*
X938Y2356D01*
X938Y2354D01*
X932Y2354D01*
X932Y2352D01*
X1006Y2352D01*
X1006Y2354D01*
X1000Y2354D01*
X1000Y2356D01*
X996Y2356D01*
X996Y2358D01*
X994Y2358D01*
X994Y2360D01*
X990Y2360D01*
X990Y2362D01*
X988Y2362D01*
X988Y2364D01*
X986Y2364D01*
X986Y2366D01*
X984Y2366D01*
X984Y2368D01*
X982Y2368D01*
X982Y2370D01*
X980Y2370D01*
X980Y2372D01*
X958Y2372D01*
G37*
D02*
G36*
X1884Y2372D02*
X1884Y2370D01*
X1882Y2370D01*
X1882Y2368D01*
X1880Y2368D01*
X1880Y2366D01*
X1878Y2366D01*
X1878Y2364D01*
X1876Y2364D01*
X1876Y2362D01*
X1874Y2362D01*
X1874Y2360D01*
X1870Y2360D01*
X1870Y2358D01*
X1868Y2358D01*
X1868Y2356D01*
X1864Y2356D01*
X1864Y2354D01*
X1856Y2354D01*
X1856Y2352D01*
X1932Y2352D01*
X1932Y2354D01*
X1926Y2354D01*
X1926Y2356D01*
X1922Y2356D01*
X1922Y2358D01*
X1918Y2358D01*
X1918Y2360D01*
X1916Y2360D01*
X1916Y2362D01*
X1912Y2362D01*
X1912Y2364D01*
X1910Y2364D01*
X1910Y2366D01*
X1908Y2366D01*
X1908Y2368D01*
X1906Y2368D01*
X1906Y2372D01*
X1884Y2372D01*
G37*
D02*
G36*
X1984Y2372D02*
X1984Y2370D01*
X1982Y2370D01*
X1982Y2368D01*
X1980Y2368D01*
X1980Y2366D01*
X1978Y2366D01*
X1978Y2364D01*
X1976Y2364D01*
X1976Y2362D01*
X1974Y2362D01*
X1974Y2360D01*
X1970Y2360D01*
X1970Y2358D01*
X1968Y2358D01*
X1968Y2356D01*
X1964Y2356D01*
X1964Y2354D01*
X1956Y2354D01*
X1956Y2352D01*
X2032Y2352D01*
X2032Y2354D01*
X2026Y2354D01*
X2026Y2356D01*
X2022Y2356D01*
X2022Y2358D01*
X2018Y2358D01*
X2018Y2360D01*
X2016Y2360D01*
X2016Y2362D01*
X2012Y2362D01*
X2012Y2364D01*
X2010Y2364D01*
X2010Y2366D01*
X2008Y2366D01*
X2008Y2368D01*
X2006Y2368D01*
X2006Y2372D01*
X1984Y2372D01*
G37*
D02*
G36*
X2084Y2372D02*
X2084Y2370D01*
X2082Y2370D01*
X2082Y2368D01*
X2080Y2368D01*
X2080Y2366D01*
X2078Y2366D01*
X2078Y2364D01*
X2076Y2364D01*
X2076Y2362D01*
X2074Y2362D01*
X2074Y2360D01*
X2070Y2360D01*
X2070Y2358D01*
X2068Y2358D01*
X2068Y2356D01*
X2064Y2356D01*
X2064Y2354D01*
X2056Y2354D01*
X2056Y2352D01*
X2132Y2352D01*
X2132Y2354D01*
X2126Y2354D01*
X2126Y2356D01*
X2122Y2356D01*
X2122Y2358D01*
X2118Y2358D01*
X2118Y2360D01*
X2116Y2360D01*
X2116Y2362D01*
X2112Y2362D01*
X2112Y2364D01*
X2110Y2364D01*
X2110Y2366D01*
X2108Y2366D01*
X2108Y2368D01*
X2106Y2368D01*
X2106Y2372D01*
X2084Y2372D01*
G37*
D02*
G36*
X518Y2364D02*
X518Y2352D01*
X544Y2352D01*
X544Y2360D01*
X540Y2360D01*
X540Y2362D01*
X538Y2362D01*
X538Y2364D01*
X518Y2364D01*
G37*
D02*
G36*
X204Y2352D02*
X204Y2350D01*
X544Y2350D01*
X544Y2352D01*
X204Y2352D01*
G37*
D02*
G36*
X204Y2352D02*
X204Y2350D01*
X544Y2350D01*
X544Y2352D01*
X204Y2352D01*
G37*
D02*
G36*
X596Y2352D02*
X596Y2350D01*
X1298Y2350D01*
X1298Y2352D01*
X596Y2352D01*
G37*
D02*
G36*
X596Y2352D02*
X596Y2350D01*
X1298Y2350D01*
X1298Y2352D01*
X596Y2352D01*
G37*
D02*
G36*
X596Y2352D02*
X596Y2350D01*
X1298Y2350D01*
X1298Y2352D01*
X596Y2352D01*
G37*
D02*
G36*
X596Y2352D02*
X596Y2350D01*
X1298Y2350D01*
X1298Y2352D01*
X596Y2352D01*
G37*
D02*
G36*
X1490Y2352D02*
X1490Y2350D01*
X2310Y2350D01*
X2310Y2352D01*
X1490Y2352D01*
G37*
D02*
G36*
X1490Y2352D02*
X1490Y2350D01*
X2310Y2350D01*
X2310Y2352D01*
X1490Y2352D01*
G37*
D02*
G36*
X1490Y2352D02*
X1490Y2350D01*
X2310Y2350D01*
X2310Y2352D01*
X1490Y2352D01*
G37*
D02*
G36*
X1490Y2352D02*
X1490Y2350D01*
X2310Y2350D01*
X2310Y2352D01*
X1490Y2352D01*
G37*
D02*
G36*
X1490Y2352D02*
X1490Y2350D01*
X2310Y2350D01*
X2310Y2352D01*
X1490Y2352D01*
G37*
D02*
G36*
X204Y2350D02*
X204Y2348D01*
X202Y2348D01*
X202Y2344D01*
X200Y2344D01*
X200Y2342D01*
X198Y2342D01*
X198Y2340D01*
X196Y2340D01*
X196Y2336D01*
X194Y2336D01*
X194Y2334D01*
X192Y2334D01*
X192Y2332D01*
X190Y2332D01*
X190Y2330D01*
X188Y2330D01*
X188Y2328D01*
X186Y2328D01*
X186Y2326D01*
X184Y2326D01*
X184Y2324D01*
X180Y2324D01*
X180Y2322D01*
X178Y2322D01*
X178Y2320D01*
X176Y2320D01*
X176Y2318D01*
X172Y2318D01*
X172Y2316D01*
X168Y2316D01*
X168Y2314D01*
X166Y2314D01*
X166Y2312D01*
X162Y2312D01*
X162Y2310D01*
X158Y2310D01*
X158Y2308D01*
X152Y2308D01*
X152Y2306D01*
X144Y2306D01*
X144Y2304D01*
X136Y2304D01*
X136Y2302D01*
X544Y2302D01*
X544Y2350D01*
X204Y2350D01*
G37*
D02*
G36*
X596Y2350D02*
X596Y2306D01*
X1332Y2306D01*
X1332Y2308D01*
X1326Y2308D01*
X1326Y2310D01*
X1322Y2310D01*
X1322Y2312D01*
X1320Y2312D01*
X1320Y2314D01*
X1316Y2314D01*
X1316Y2316D01*
X1314Y2316D01*
X1314Y2318D01*
X1312Y2318D01*
X1312Y2320D01*
X1310Y2320D01*
X1310Y2322D01*
X1308Y2322D01*
X1308Y2326D01*
X1306Y2326D01*
X1306Y2328D01*
X1304Y2328D01*
X1304Y2332D01*
X1302Y2332D01*
X1302Y2340D01*
X1300Y2340D01*
X1300Y2350D01*
X596Y2350D01*
G37*
D02*
G36*
X1490Y2350D02*
X1490Y2344D01*
X1488Y2344D01*
X1488Y2336D01*
X1486Y2336D01*
X1486Y2332D01*
X1484Y2332D01*
X1484Y2328D01*
X1482Y2328D01*
X1482Y2324D01*
X1480Y2324D01*
X1480Y2322D01*
X1478Y2322D01*
X1478Y2320D01*
X1476Y2320D01*
X1476Y2318D01*
X1474Y2318D01*
X1474Y2316D01*
X1472Y2316D01*
X1472Y2314D01*
X1470Y2314D01*
X1470Y2312D01*
X1466Y2312D01*
X1466Y2310D01*
X1462Y2310D01*
X1462Y2308D01*
X1456Y2308D01*
X1456Y2306D01*
X2362Y2306D01*
X2362Y2308D01*
X2356Y2308D01*
X2356Y2310D01*
X2352Y2310D01*
X2352Y2312D01*
X2348Y2312D01*
X2348Y2314D01*
X2344Y2314D01*
X2344Y2316D01*
X2342Y2316D01*
X2342Y2318D01*
X2338Y2318D01*
X2338Y2320D01*
X2336Y2320D01*
X2336Y2322D01*
X2334Y2322D01*
X2334Y2324D01*
X2330Y2324D01*
X2330Y2326D01*
X2328Y2326D01*
X2328Y2328D01*
X2326Y2328D01*
X2326Y2330D01*
X2324Y2330D01*
X2324Y2332D01*
X2322Y2332D01*
X2322Y2334D01*
X2320Y2334D01*
X2320Y2336D01*
X2318Y2336D01*
X2318Y2340D01*
X2316Y2340D01*
X2316Y2342D01*
X2314Y2342D01*
X2314Y2344D01*
X2312Y2344D01*
X2312Y2348D01*
X2310Y2348D01*
X2310Y2350D01*
X1490Y2350D01*
G37*
D02*
G36*
X1384Y2332D02*
X1384Y2328D01*
X1382Y2328D01*
X1382Y2324D01*
X1380Y2324D01*
X1380Y2322D01*
X1378Y2322D01*
X1378Y2320D01*
X1376Y2320D01*
X1376Y2318D01*
X1374Y2318D01*
X1374Y2316D01*
X1372Y2316D01*
X1372Y2314D01*
X1370Y2314D01*
X1370Y2312D01*
X1366Y2312D01*
X1366Y2310D01*
X1362Y2310D01*
X1362Y2308D01*
X1356Y2308D01*
X1356Y2306D01*
X1432Y2306D01*
X1432Y2308D01*
X1426Y2308D01*
X1426Y2310D01*
X1422Y2310D01*
X1422Y2312D01*
X1420Y2312D01*
X1420Y2314D01*
X1416Y2314D01*
X1416Y2316D01*
X1414Y2316D01*
X1414Y2318D01*
X1412Y2318D01*
X1412Y2320D01*
X1410Y2320D01*
X1410Y2322D01*
X1408Y2322D01*
X1408Y2326D01*
X1406Y2326D01*
X1406Y2328D01*
X1404Y2328D01*
X1404Y2332D01*
X1384Y2332D01*
G37*
D02*
G36*
X2458Y2326D02*
X2458Y2324D01*
X2456Y2324D01*
X2456Y2322D01*
X2452Y2322D01*
X2452Y2320D01*
X2450Y2320D01*
X2450Y2318D01*
X2448Y2318D01*
X2448Y2316D01*
X2444Y2316D01*
X2444Y2314D01*
X2440Y2314D01*
X2440Y2312D01*
X2436Y2312D01*
X2436Y2310D01*
X2432Y2310D01*
X2432Y2308D01*
X2426Y2308D01*
X2426Y2306D01*
X2420Y2306D01*
X2420Y2304D01*
X2410Y2304D01*
X2410Y2302D01*
X2478Y2302D01*
X2478Y2326D01*
X2458Y2326D01*
G37*
D02*
G36*
X40Y2322D02*
X40Y2302D01*
X104Y2302D01*
X104Y2304D01*
X94Y2304D01*
X94Y2306D01*
X88Y2306D01*
X88Y2308D01*
X82Y2308D01*
X82Y2310D01*
X78Y2310D01*
X78Y2312D01*
X74Y2312D01*
X74Y2314D01*
X70Y2314D01*
X70Y2316D01*
X66Y2316D01*
X66Y2318D01*
X64Y2318D01*
X64Y2320D01*
X60Y2320D01*
X60Y2322D01*
X40Y2322D01*
G37*
D02*
G36*
X596Y2306D02*
X596Y2304D01*
X2370Y2304D01*
X2370Y2306D01*
X596Y2306D01*
G37*
D02*
G36*
X596Y2306D02*
X596Y2304D01*
X2370Y2304D01*
X2370Y2306D01*
X596Y2306D01*
G37*
D02*
G36*
X596Y2306D02*
X596Y2304D01*
X2370Y2304D01*
X2370Y2306D01*
X596Y2306D01*
G37*
D02*
G36*
X596Y2304D02*
X596Y2302D01*
X2378Y2302D01*
X2378Y2304D01*
X596Y2304D01*
G37*
D02*
G36*
X40Y2302D02*
X40Y2300D01*
X544Y2300D01*
X544Y2302D01*
X40Y2302D01*
G37*
D02*
G36*
X40Y2302D02*
X40Y2300D01*
X544Y2300D01*
X544Y2302D01*
X40Y2302D01*
G37*
D02*
G36*
X596Y2302D02*
X596Y2300D01*
X2478Y2300D01*
X2478Y2302D01*
X596Y2302D01*
G37*
D02*
G36*
X596Y2302D02*
X596Y2300D01*
X2478Y2300D01*
X2478Y2302D01*
X596Y2302D01*
G37*
D02*
G36*
X40Y2300D02*
X40Y2110D01*
X658Y2110D01*
X658Y2112D01*
X652Y2112D01*
X652Y2114D01*
X648Y2114D01*
X648Y2116D01*
X646Y2116D01*
X646Y2118D01*
X642Y2118D01*
X642Y2120D01*
X640Y2120D01*
X640Y2122D01*
X638Y2122D01*
X638Y2126D01*
X636Y2126D01*
X636Y2128D01*
X634Y2128D01*
X634Y2132D01*
X632Y2132D01*
X632Y2136D01*
X630Y2136D01*
X630Y2144D01*
X628Y2144D01*
X628Y2156D01*
X626Y2156D01*
X626Y2158D01*
X624Y2158D01*
X624Y2160D01*
X622Y2160D01*
X622Y2162D01*
X620Y2162D01*
X620Y2164D01*
X618Y2164D01*
X618Y2166D01*
X616Y2166D01*
X616Y2168D01*
X614Y2168D01*
X614Y2170D01*
X612Y2170D01*
X612Y2172D01*
X610Y2172D01*
X610Y2174D01*
X608Y2174D01*
X608Y2176D01*
X606Y2176D01*
X606Y2178D01*
X604Y2178D01*
X604Y2180D01*
X602Y2180D01*
X602Y2182D01*
X600Y2182D01*
X600Y2184D01*
X598Y2184D01*
X598Y2186D01*
X596Y2186D01*
X596Y2188D01*
X594Y2188D01*
X594Y2190D01*
X592Y2190D01*
X592Y2192D01*
X590Y2192D01*
X590Y2194D01*
X588Y2194D01*
X588Y2196D01*
X586Y2196D01*
X586Y2198D01*
X584Y2198D01*
X584Y2200D01*
X582Y2200D01*
X582Y2202D01*
X580Y2202D01*
X580Y2204D01*
X578Y2204D01*
X578Y2206D01*
X576Y2206D01*
X576Y2208D01*
X574Y2208D01*
X574Y2210D01*
X572Y2210D01*
X572Y2212D01*
X570Y2212D01*
X570Y2214D01*
X568Y2214D01*
X568Y2216D01*
X566Y2216D01*
X566Y2218D01*
X564Y2218D01*
X564Y2220D01*
X562Y2220D01*
X562Y2222D01*
X560Y2222D01*
X560Y2224D01*
X558Y2224D01*
X558Y2226D01*
X556Y2226D01*
X556Y2228D01*
X554Y2228D01*
X554Y2230D01*
X552Y2230D01*
X552Y2232D01*
X550Y2232D01*
X550Y2234D01*
X548Y2234D01*
X548Y2238D01*
X546Y2238D01*
X546Y2244D01*
X544Y2244D01*
X544Y2300D01*
X40Y2300D01*
G37*
D02*
G36*
X596Y2300D02*
X596Y2260D01*
X598Y2260D01*
X598Y2258D01*
X600Y2258D01*
X600Y2256D01*
X602Y2256D01*
X602Y2254D01*
X604Y2254D01*
X604Y2252D01*
X606Y2252D01*
X606Y2250D01*
X608Y2250D01*
X608Y2248D01*
X610Y2248D01*
X610Y2246D01*
X612Y2246D01*
X612Y2244D01*
X614Y2244D01*
X614Y2242D01*
X616Y2242D01*
X616Y2240D01*
X618Y2240D01*
X618Y2238D01*
X620Y2238D01*
X620Y2236D01*
X622Y2236D01*
X622Y2234D01*
X624Y2234D01*
X624Y2232D01*
X626Y2232D01*
X626Y2230D01*
X628Y2230D01*
X628Y2228D01*
X630Y2228D01*
X630Y2226D01*
X632Y2226D01*
X632Y2224D01*
X2304Y2224D01*
X2304Y2222D01*
X2310Y2222D01*
X2310Y2220D01*
X2316Y2220D01*
X2316Y2218D01*
X2320Y2218D01*
X2320Y2216D01*
X2322Y2216D01*
X2322Y2214D01*
X2326Y2214D01*
X2326Y2212D01*
X2328Y2212D01*
X2328Y2210D01*
X2330Y2210D01*
X2330Y2208D01*
X2332Y2208D01*
X2332Y2204D01*
X2334Y2204D01*
X2334Y2202D01*
X2336Y2202D01*
X2336Y2198D01*
X2338Y2198D01*
X2338Y2196D01*
X2340Y2196D01*
X2340Y2190D01*
X2342Y2190D01*
X2342Y2180D01*
X2344Y2180D01*
X2344Y2170D01*
X2342Y2170D01*
X2342Y2160D01*
X2340Y2160D01*
X2340Y2156D01*
X2338Y2156D01*
X2338Y2152D01*
X2336Y2152D01*
X2336Y2148D01*
X2334Y2148D01*
X2334Y2146D01*
X2332Y2146D01*
X2332Y2142D01*
X2330Y2142D01*
X2330Y2140D01*
X2328Y2140D01*
X2328Y2138D01*
X2324Y2138D01*
X2324Y2136D01*
X2322Y2136D01*
X2322Y2114D01*
X2326Y2114D01*
X2326Y2112D01*
X2328Y2112D01*
X2328Y2110D01*
X2330Y2110D01*
X2330Y2108D01*
X2332Y2108D01*
X2332Y2104D01*
X2334Y2104D01*
X2334Y2102D01*
X2336Y2102D01*
X2336Y2098D01*
X2338Y2098D01*
X2338Y2096D01*
X2340Y2096D01*
X2340Y2090D01*
X2342Y2090D01*
X2342Y2080D01*
X2344Y2080D01*
X2344Y2070D01*
X2342Y2070D01*
X2342Y2060D01*
X2340Y2060D01*
X2340Y2056D01*
X2338Y2056D01*
X2338Y2052D01*
X2336Y2052D01*
X2336Y2048D01*
X2334Y2048D01*
X2334Y2046D01*
X2332Y2046D01*
X2332Y2042D01*
X2330Y2042D01*
X2330Y2040D01*
X2328Y2040D01*
X2328Y2038D01*
X2324Y2038D01*
X2324Y2036D01*
X2322Y2036D01*
X2322Y2014D01*
X2326Y2014D01*
X2326Y2012D01*
X2328Y2012D01*
X2328Y2010D01*
X2330Y2010D01*
X2330Y2008D01*
X2332Y2008D01*
X2332Y2004D01*
X2334Y2004D01*
X2334Y2002D01*
X2336Y2002D01*
X2336Y1998D01*
X2338Y1998D01*
X2338Y1996D01*
X2340Y1996D01*
X2340Y1990D01*
X2342Y1990D01*
X2342Y1980D01*
X2344Y1980D01*
X2344Y1970D01*
X2342Y1970D01*
X2342Y1960D01*
X2340Y1960D01*
X2340Y1956D01*
X2338Y1956D01*
X2338Y1952D01*
X2336Y1952D01*
X2336Y1948D01*
X2334Y1948D01*
X2334Y1946D01*
X2332Y1946D01*
X2332Y1942D01*
X2330Y1942D01*
X2330Y1940D01*
X2328Y1940D01*
X2328Y1938D01*
X2324Y1938D01*
X2324Y1936D01*
X2322Y1936D01*
X2322Y1914D01*
X2326Y1914D01*
X2326Y1912D01*
X2328Y1912D01*
X2328Y1910D01*
X2330Y1910D01*
X2330Y1908D01*
X2332Y1908D01*
X2332Y1904D01*
X2334Y1904D01*
X2334Y1902D01*
X2336Y1902D01*
X2336Y1898D01*
X2338Y1898D01*
X2338Y1896D01*
X2340Y1896D01*
X2340Y1890D01*
X2342Y1890D01*
X2342Y1880D01*
X2344Y1880D01*
X2344Y1870D01*
X2342Y1870D01*
X2342Y1860D01*
X2340Y1860D01*
X2340Y1856D01*
X2338Y1856D01*
X2338Y1852D01*
X2336Y1852D01*
X2336Y1848D01*
X2334Y1848D01*
X2334Y1846D01*
X2332Y1846D01*
X2332Y1842D01*
X2330Y1842D01*
X2330Y1840D01*
X2328Y1840D01*
X2328Y1838D01*
X2324Y1838D01*
X2324Y1836D01*
X2322Y1836D01*
X2322Y1814D01*
X2326Y1814D01*
X2326Y1812D01*
X2328Y1812D01*
X2328Y1810D01*
X2330Y1810D01*
X2330Y1808D01*
X2332Y1808D01*
X2332Y1804D01*
X2334Y1804D01*
X2334Y1802D01*
X2336Y1802D01*
X2336Y1798D01*
X2338Y1798D01*
X2338Y1796D01*
X2340Y1796D01*
X2340Y1790D01*
X2342Y1790D01*
X2342Y1780D01*
X2344Y1780D01*
X2344Y1770D01*
X2342Y1770D01*
X2342Y1760D01*
X2340Y1760D01*
X2340Y1756D01*
X2338Y1756D01*
X2338Y1752D01*
X2336Y1752D01*
X2336Y1748D01*
X2334Y1748D01*
X2334Y1746D01*
X2332Y1746D01*
X2332Y1742D01*
X2330Y1742D01*
X2330Y1740D01*
X2328Y1740D01*
X2328Y1738D01*
X2324Y1738D01*
X2324Y1736D01*
X2322Y1736D01*
X2322Y1714D01*
X2326Y1714D01*
X2326Y1712D01*
X2328Y1712D01*
X2328Y1710D01*
X2330Y1710D01*
X2330Y1708D01*
X2332Y1708D01*
X2332Y1704D01*
X2334Y1704D01*
X2334Y1702D01*
X2336Y1702D01*
X2336Y1698D01*
X2338Y1698D01*
X2338Y1696D01*
X2340Y1696D01*
X2340Y1690D01*
X2342Y1690D01*
X2342Y1680D01*
X2344Y1680D01*
X2344Y1670D01*
X2342Y1670D01*
X2342Y1660D01*
X2340Y1660D01*
X2340Y1656D01*
X2338Y1656D01*
X2338Y1652D01*
X2336Y1652D01*
X2336Y1648D01*
X2334Y1648D01*
X2334Y1646D01*
X2332Y1646D01*
X2332Y1642D01*
X2330Y1642D01*
X2330Y1640D01*
X2328Y1640D01*
X2328Y1638D01*
X2324Y1638D01*
X2324Y1636D01*
X2322Y1636D01*
X2322Y1634D01*
X2318Y1634D01*
X2318Y1632D01*
X2316Y1632D01*
X2316Y1630D01*
X2310Y1630D01*
X2310Y1628D01*
X2304Y1628D01*
X2304Y1626D01*
X2478Y1626D01*
X2478Y2300D01*
X596Y2300D01*
G37*
D02*
G36*
X634Y2224D02*
X634Y2222D01*
X636Y2222D01*
X636Y2220D01*
X638Y2220D01*
X638Y2218D01*
X640Y2218D01*
X640Y2216D01*
X642Y2216D01*
X642Y2214D01*
X644Y2214D01*
X644Y2212D01*
X646Y2212D01*
X646Y2210D01*
X648Y2210D01*
X648Y2208D01*
X650Y2208D01*
X650Y2206D01*
X652Y2206D01*
X652Y2204D01*
X654Y2204D01*
X654Y2202D01*
X656Y2202D01*
X656Y2200D01*
X658Y2200D01*
X658Y2198D01*
X660Y2198D01*
X660Y2196D01*
X662Y2196D01*
X662Y2194D01*
X664Y2194D01*
X664Y2192D01*
X1770Y2192D01*
X1770Y2190D01*
X1782Y2190D01*
X1782Y2188D01*
X1786Y2188D01*
X1786Y2186D01*
X1790Y2186D01*
X1790Y2184D01*
X1794Y2184D01*
X1794Y2182D01*
X1796Y2182D01*
X1796Y2180D01*
X1798Y2180D01*
X1798Y2178D01*
X1800Y2178D01*
X1800Y2176D01*
X1802Y2176D01*
X1802Y2174D01*
X1804Y2174D01*
X1804Y2170D01*
X1806Y2170D01*
X1806Y2166D01*
X1808Y2166D01*
X1808Y2160D01*
X1810Y2160D01*
X1810Y2140D01*
X1808Y2140D01*
X1808Y2134D01*
X1806Y2134D01*
X1806Y2130D01*
X1804Y2130D01*
X1804Y2126D01*
X1802Y2126D01*
X1802Y2124D01*
X1800Y2124D01*
X1800Y2122D01*
X1798Y2122D01*
X1798Y2120D01*
X1796Y2120D01*
X1796Y2118D01*
X1794Y2118D01*
X1794Y2116D01*
X1790Y2116D01*
X1790Y2114D01*
X1788Y2114D01*
X1788Y2024D01*
X1786Y2024D01*
X1786Y2018D01*
X1784Y2018D01*
X1784Y2014D01*
X1782Y2014D01*
X1782Y2012D01*
X1780Y2012D01*
X1780Y2010D01*
X1778Y2010D01*
X1778Y2008D01*
X1776Y2008D01*
X1776Y2006D01*
X1774Y2006D01*
X1774Y2004D01*
X1772Y2004D01*
X1772Y2002D01*
X1770Y2002D01*
X1770Y2000D01*
X1768Y2000D01*
X1768Y1998D01*
X1766Y1998D01*
X1766Y1996D01*
X1764Y1996D01*
X1764Y1994D01*
X1762Y1994D01*
X1762Y1992D01*
X1760Y1992D01*
X1760Y1990D01*
X1758Y1990D01*
X1758Y1988D01*
X1756Y1988D01*
X1756Y1986D01*
X1754Y1986D01*
X1754Y1984D01*
X1752Y1984D01*
X1752Y1982D01*
X1750Y1982D01*
X1750Y1980D01*
X1748Y1980D01*
X1748Y1978D01*
X1746Y1978D01*
X1746Y1976D01*
X1744Y1976D01*
X1744Y1974D01*
X1742Y1974D01*
X1742Y1972D01*
X1740Y1972D01*
X1740Y1970D01*
X1738Y1970D01*
X1738Y1968D01*
X1736Y1968D01*
X1736Y1966D01*
X1734Y1966D01*
X1734Y1964D01*
X1732Y1964D01*
X1732Y1962D01*
X1730Y1962D01*
X1730Y1960D01*
X1728Y1960D01*
X1728Y1958D01*
X1726Y1958D01*
X1726Y1956D01*
X1724Y1956D01*
X1724Y1954D01*
X1722Y1954D01*
X1722Y1952D01*
X1720Y1952D01*
X1720Y1950D01*
X1718Y1950D01*
X1718Y1948D01*
X1716Y1948D01*
X1716Y1946D01*
X1714Y1946D01*
X1714Y1944D01*
X1712Y1944D01*
X1712Y1942D01*
X1710Y1942D01*
X1710Y1940D01*
X1708Y1940D01*
X1708Y1938D01*
X1706Y1938D01*
X1706Y1936D01*
X1704Y1936D01*
X1704Y1934D01*
X1702Y1934D01*
X1702Y1932D01*
X1700Y1932D01*
X1700Y1930D01*
X1698Y1930D01*
X1698Y1928D01*
X1696Y1928D01*
X1696Y1926D01*
X1694Y1926D01*
X1694Y1924D01*
X1692Y1924D01*
X1692Y1922D01*
X1690Y1922D01*
X1690Y1920D01*
X1688Y1920D01*
X1688Y1918D01*
X1686Y1918D01*
X1686Y1916D01*
X1684Y1916D01*
X1684Y1914D01*
X1682Y1914D01*
X1682Y1912D01*
X1680Y1912D01*
X1680Y1910D01*
X1678Y1910D01*
X1678Y1908D01*
X1676Y1908D01*
X1676Y1906D01*
X1674Y1906D01*
X1674Y1904D01*
X1672Y1904D01*
X1672Y1902D01*
X1670Y1902D01*
X1670Y1900D01*
X1668Y1900D01*
X1668Y1898D01*
X1666Y1898D01*
X1666Y1896D01*
X1664Y1896D01*
X1664Y1894D01*
X1662Y1894D01*
X1662Y1892D01*
X1660Y1892D01*
X1660Y1890D01*
X1658Y1890D01*
X1658Y1888D01*
X1656Y1888D01*
X1656Y1868D01*
X1936Y1868D01*
X1936Y1870D01*
X1938Y1870D01*
X1938Y1872D01*
X1940Y1872D01*
X1940Y1874D01*
X1942Y1874D01*
X1942Y1878D01*
X1944Y1878D01*
X1944Y1880D01*
X1946Y1880D01*
X1946Y1882D01*
X1948Y1882D01*
X1948Y1884D01*
X1950Y1884D01*
X1950Y1888D01*
X1952Y1888D01*
X1952Y1890D01*
X1954Y1890D01*
X1954Y1892D01*
X1956Y1892D01*
X1956Y1894D01*
X1958Y1894D01*
X1958Y1898D01*
X1960Y1898D01*
X1960Y1900D01*
X1962Y1900D01*
X1962Y1902D01*
X1964Y1902D01*
X1964Y1904D01*
X1966Y1904D01*
X1966Y1908D01*
X1968Y1908D01*
X1968Y1910D01*
X1970Y1910D01*
X1970Y1912D01*
X1972Y1912D01*
X1972Y1914D01*
X1974Y1914D01*
X1974Y1918D01*
X1976Y1918D01*
X1976Y1920D01*
X1978Y1920D01*
X1978Y1922D01*
X1980Y1922D01*
X1980Y1924D01*
X1982Y1924D01*
X1982Y1928D01*
X1984Y1928D01*
X1984Y1930D01*
X1986Y1930D01*
X1986Y1932D01*
X1988Y1932D01*
X1988Y1934D01*
X1990Y1934D01*
X1990Y1938D01*
X1992Y1938D01*
X1992Y1940D01*
X1994Y1940D01*
X1994Y1942D01*
X1996Y1942D01*
X1996Y1944D01*
X1998Y1944D01*
X1998Y1948D01*
X2000Y1948D01*
X2000Y1950D01*
X2002Y1950D01*
X2002Y1952D01*
X2004Y1952D01*
X2004Y1954D01*
X2006Y1954D01*
X2006Y1956D01*
X2008Y1956D01*
X2008Y1960D01*
X2010Y1960D01*
X2010Y1962D01*
X2012Y1962D01*
X2012Y1964D01*
X2014Y1964D01*
X2014Y1966D01*
X2016Y1966D01*
X2016Y1970D01*
X2018Y1970D01*
X2018Y1972D01*
X2020Y1972D01*
X2020Y1974D01*
X2022Y1974D01*
X2022Y1976D01*
X2024Y1976D01*
X2024Y1980D01*
X2026Y1980D01*
X2026Y1982D01*
X2028Y1982D01*
X2028Y1984D01*
X2030Y1984D01*
X2030Y1986D01*
X2032Y1986D01*
X2032Y1988D01*
X2034Y1988D01*
X2034Y1990D01*
X2036Y1990D01*
X2036Y1992D01*
X2042Y1992D01*
X2042Y1994D01*
X2250Y1994D01*
X2250Y1998D01*
X2252Y1998D01*
X2252Y2000D01*
X2254Y2000D01*
X2254Y2004D01*
X2256Y2004D01*
X2256Y2006D01*
X2258Y2006D01*
X2258Y2008D01*
X2260Y2008D01*
X2260Y2010D01*
X2262Y2010D01*
X2262Y2012D01*
X2264Y2012D01*
X2264Y2014D01*
X2266Y2014D01*
X2266Y2036D01*
X2264Y2036D01*
X2264Y2038D01*
X2262Y2038D01*
X2262Y2040D01*
X2260Y2040D01*
X2260Y2042D01*
X2258Y2042D01*
X2258Y2044D01*
X2256Y2044D01*
X2256Y2046D01*
X2254Y2046D01*
X2254Y2050D01*
X2252Y2050D01*
X2252Y2052D01*
X2250Y2052D01*
X2250Y2056D01*
X2248Y2056D01*
X2248Y2064D01*
X2246Y2064D01*
X2246Y2086D01*
X2248Y2086D01*
X2248Y2094D01*
X2250Y2094D01*
X2250Y2098D01*
X2252Y2098D01*
X2252Y2100D01*
X2254Y2100D01*
X2254Y2104D01*
X2256Y2104D01*
X2256Y2106D01*
X2258Y2106D01*
X2258Y2108D01*
X2260Y2108D01*
X2260Y2110D01*
X2262Y2110D01*
X2262Y2112D01*
X2264Y2112D01*
X2264Y2114D01*
X2266Y2114D01*
X2266Y2136D01*
X2264Y2136D01*
X2264Y2138D01*
X2262Y2138D01*
X2262Y2140D01*
X2260Y2140D01*
X2260Y2142D01*
X2258Y2142D01*
X2258Y2144D01*
X2256Y2144D01*
X2256Y2146D01*
X2254Y2146D01*
X2254Y2150D01*
X2252Y2150D01*
X2252Y2152D01*
X2250Y2152D01*
X2250Y2156D01*
X2248Y2156D01*
X2248Y2164D01*
X2246Y2164D01*
X2246Y2186D01*
X2248Y2186D01*
X2248Y2194D01*
X2250Y2194D01*
X2250Y2198D01*
X2252Y2198D01*
X2252Y2200D01*
X2254Y2200D01*
X2254Y2204D01*
X2256Y2204D01*
X2256Y2206D01*
X2258Y2206D01*
X2258Y2208D01*
X2260Y2208D01*
X2260Y2210D01*
X2262Y2210D01*
X2262Y2212D01*
X2264Y2212D01*
X2264Y2214D01*
X2266Y2214D01*
X2266Y2216D01*
X2270Y2216D01*
X2270Y2218D01*
X2274Y2218D01*
X2274Y2220D01*
X2278Y2220D01*
X2278Y2222D01*
X2284Y2222D01*
X2284Y2224D01*
X634Y2224D01*
G37*
D02*
G36*
X670Y2192D02*
X670Y2190D01*
X682Y2190D01*
X682Y2188D01*
X686Y2188D01*
X686Y2186D01*
X690Y2186D01*
X690Y2184D01*
X694Y2184D01*
X694Y2182D01*
X696Y2182D01*
X696Y2180D01*
X698Y2180D01*
X698Y2178D01*
X700Y2178D01*
X700Y2176D01*
X702Y2176D01*
X702Y2174D01*
X704Y2174D01*
X704Y2170D01*
X706Y2170D01*
X706Y2166D01*
X708Y2166D01*
X708Y2160D01*
X710Y2160D01*
X710Y2156D01*
X730Y2156D01*
X730Y2164D01*
X732Y2164D01*
X732Y2168D01*
X734Y2168D01*
X734Y2172D01*
X736Y2172D01*
X736Y2174D01*
X738Y2174D01*
X738Y2178D01*
X740Y2178D01*
X740Y2180D01*
X742Y2180D01*
X742Y2182D01*
X746Y2182D01*
X746Y2184D01*
X748Y2184D01*
X748Y2186D01*
X752Y2186D01*
X752Y2188D01*
X758Y2188D01*
X758Y2190D01*
X768Y2190D01*
X768Y2192D01*
X670Y2192D01*
G37*
D02*
G36*
X770Y2192D02*
X770Y2190D01*
X782Y2190D01*
X782Y2188D01*
X786Y2188D01*
X786Y2186D01*
X790Y2186D01*
X790Y2184D01*
X794Y2184D01*
X794Y2182D01*
X796Y2182D01*
X796Y2180D01*
X798Y2180D01*
X798Y2178D01*
X800Y2178D01*
X800Y2176D01*
X802Y2176D01*
X802Y2174D01*
X804Y2174D01*
X804Y2170D01*
X806Y2170D01*
X806Y2166D01*
X808Y2166D01*
X808Y2160D01*
X810Y2160D01*
X810Y2156D01*
X830Y2156D01*
X830Y2164D01*
X832Y2164D01*
X832Y2168D01*
X834Y2168D01*
X834Y2172D01*
X836Y2172D01*
X836Y2174D01*
X838Y2174D01*
X838Y2178D01*
X840Y2178D01*
X840Y2180D01*
X842Y2180D01*
X842Y2182D01*
X846Y2182D01*
X846Y2184D01*
X848Y2184D01*
X848Y2186D01*
X852Y2186D01*
X852Y2188D01*
X858Y2188D01*
X858Y2190D01*
X868Y2190D01*
X868Y2192D01*
X770Y2192D01*
G37*
D02*
G36*
X870Y2192D02*
X870Y2190D01*
X882Y2190D01*
X882Y2188D01*
X886Y2188D01*
X886Y2186D01*
X890Y2186D01*
X890Y2184D01*
X894Y2184D01*
X894Y2182D01*
X896Y2182D01*
X896Y2180D01*
X898Y2180D01*
X898Y2178D01*
X900Y2178D01*
X900Y2176D01*
X902Y2176D01*
X902Y2174D01*
X904Y2174D01*
X904Y2170D01*
X906Y2170D01*
X906Y2166D01*
X908Y2166D01*
X908Y2160D01*
X910Y2160D01*
X910Y2156D01*
X930Y2156D01*
X930Y2164D01*
X932Y2164D01*
X932Y2168D01*
X934Y2168D01*
X934Y2172D01*
X936Y2172D01*
X936Y2174D01*
X938Y2174D01*
X938Y2178D01*
X940Y2178D01*
X940Y2180D01*
X942Y2180D01*
X942Y2182D01*
X946Y2182D01*
X946Y2184D01*
X948Y2184D01*
X948Y2186D01*
X952Y2186D01*
X952Y2188D01*
X958Y2188D01*
X958Y2190D01*
X968Y2190D01*
X968Y2192D01*
X870Y2192D01*
G37*
D02*
G36*
X970Y2192D02*
X970Y2190D01*
X982Y2190D01*
X982Y2188D01*
X986Y2188D01*
X986Y2186D01*
X990Y2186D01*
X990Y2184D01*
X994Y2184D01*
X994Y2182D01*
X996Y2182D01*
X996Y2180D01*
X998Y2180D01*
X998Y2178D01*
X1000Y2178D01*
X1000Y2176D01*
X1002Y2176D01*
X1002Y2174D01*
X1004Y2174D01*
X1004Y2170D01*
X1006Y2170D01*
X1006Y2166D01*
X1008Y2166D01*
X1008Y2160D01*
X1010Y2160D01*
X1010Y2156D01*
X1030Y2156D01*
X1030Y2164D01*
X1032Y2164D01*
X1032Y2168D01*
X1034Y2168D01*
X1034Y2172D01*
X1036Y2172D01*
X1036Y2174D01*
X1038Y2174D01*
X1038Y2178D01*
X1040Y2178D01*
X1040Y2180D01*
X1042Y2180D01*
X1042Y2182D01*
X1046Y2182D01*
X1046Y2184D01*
X1048Y2184D01*
X1048Y2186D01*
X1052Y2186D01*
X1052Y2188D01*
X1058Y2188D01*
X1058Y2190D01*
X1068Y2190D01*
X1068Y2192D01*
X970Y2192D01*
G37*
D02*
G36*
X1070Y2192D02*
X1070Y2190D01*
X1082Y2190D01*
X1082Y2188D01*
X1086Y2188D01*
X1086Y2186D01*
X1090Y2186D01*
X1090Y2184D01*
X1094Y2184D01*
X1094Y2182D01*
X1096Y2182D01*
X1096Y2180D01*
X1098Y2180D01*
X1098Y2178D01*
X1100Y2178D01*
X1100Y2176D01*
X1102Y2176D01*
X1102Y2174D01*
X1104Y2174D01*
X1104Y2170D01*
X1106Y2170D01*
X1106Y2166D01*
X1108Y2166D01*
X1108Y2160D01*
X1110Y2160D01*
X1110Y2156D01*
X1130Y2156D01*
X1130Y2164D01*
X1132Y2164D01*
X1132Y2168D01*
X1134Y2168D01*
X1134Y2172D01*
X1136Y2172D01*
X1136Y2174D01*
X1138Y2174D01*
X1138Y2178D01*
X1140Y2178D01*
X1140Y2180D01*
X1142Y2180D01*
X1142Y2182D01*
X1146Y2182D01*
X1146Y2184D01*
X1148Y2184D01*
X1148Y2186D01*
X1152Y2186D01*
X1152Y2188D01*
X1158Y2188D01*
X1158Y2190D01*
X1168Y2190D01*
X1168Y2192D01*
X1070Y2192D01*
G37*
D02*
G36*
X1170Y2192D02*
X1170Y2190D01*
X1182Y2190D01*
X1182Y2188D01*
X1186Y2188D01*
X1186Y2186D01*
X1190Y2186D01*
X1190Y2184D01*
X1194Y2184D01*
X1194Y2182D01*
X1196Y2182D01*
X1196Y2180D01*
X1198Y2180D01*
X1198Y2178D01*
X1200Y2178D01*
X1200Y2176D01*
X1202Y2176D01*
X1202Y2174D01*
X1204Y2174D01*
X1204Y2170D01*
X1206Y2170D01*
X1206Y2166D01*
X1208Y2166D01*
X1208Y2160D01*
X1210Y2160D01*
X1210Y2156D01*
X1230Y2156D01*
X1230Y2164D01*
X1232Y2164D01*
X1232Y2168D01*
X1234Y2168D01*
X1234Y2172D01*
X1236Y2172D01*
X1236Y2174D01*
X1238Y2174D01*
X1238Y2178D01*
X1240Y2178D01*
X1240Y2180D01*
X1242Y2180D01*
X1242Y2182D01*
X1246Y2182D01*
X1246Y2184D01*
X1248Y2184D01*
X1248Y2186D01*
X1252Y2186D01*
X1252Y2188D01*
X1258Y2188D01*
X1258Y2190D01*
X1268Y2190D01*
X1268Y2192D01*
X1170Y2192D01*
G37*
D02*
G36*
X1270Y2192D02*
X1270Y2190D01*
X1282Y2190D01*
X1282Y2188D01*
X1286Y2188D01*
X1286Y2186D01*
X1290Y2186D01*
X1290Y2184D01*
X1294Y2184D01*
X1294Y2182D01*
X1296Y2182D01*
X1296Y2180D01*
X1298Y2180D01*
X1298Y2178D01*
X1300Y2178D01*
X1300Y2176D01*
X1302Y2176D01*
X1302Y2174D01*
X1304Y2174D01*
X1304Y2170D01*
X1306Y2170D01*
X1306Y2166D01*
X1308Y2166D01*
X1308Y2160D01*
X1310Y2160D01*
X1310Y2156D01*
X1330Y2156D01*
X1330Y2164D01*
X1332Y2164D01*
X1332Y2168D01*
X1334Y2168D01*
X1334Y2172D01*
X1336Y2172D01*
X1336Y2174D01*
X1338Y2174D01*
X1338Y2178D01*
X1340Y2178D01*
X1340Y2180D01*
X1342Y2180D01*
X1342Y2182D01*
X1346Y2182D01*
X1346Y2184D01*
X1348Y2184D01*
X1348Y2186D01*
X1352Y2186D01*
X1352Y2188D01*
X1358Y2188D01*
X1358Y2190D01*
X1368Y2190D01*
X1368Y2192D01*
X1270Y2192D01*
G37*
D02*
G36*
X1370Y2192D02*
X1370Y2190D01*
X1382Y2190D01*
X1382Y2188D01*
X1386Y2188D01*
X1386Y2186D01*
X1390Y2186D01*
X1390Y2184D01*
X1394Y2184D01*
X1394Y2182D01*
X1396Y2182D01*
X1396Y2180D01*
X1398Y2180D01*
X1398Y2178D01*
X1400Y2178D01*
X1400Y2176D01*
X1402Y2176D01*
X1402Y2174D01*
X1404Y2174D01*
X1404Y2170D01*
X1406Y2170D01*
X1406Y2166D01*
X1408Y2166D01*
X1408Y2160D01*
X1410Y2160D01*
X1410Y2156D01*
X1430Y2156D01*
X1430Y2164D01*
X1432Y2164D01*
X1432Y2168D01*
X1434Y2168D01*
X1434Y2172D01*
X1436Y2172D01*
X1436Y2174D01*
X1438Y2174D01*
X1438Y2178D01*
X1440Y2178D01*
X1440Y2180D01*
X1442Y2180D01*
X1442Y2182D01*
X1446Y2182D01*
X1446Y2184D01*
X1448Y2184D01*
X1448Y2186D01*
X1452Y2186D01*
X1452Y2188D01*
X1458Y2188D01*
X1458Y2190D01*
X1468Y2190D01*
X1468Y2192D01*
X1370Y2192D01*
G37*
D02*
G36*
X1470Y2192D02*
X1470Y2190D01*
X1482Y2190D01*
X1482Y2188D01*
X1486Y2188D01*
X1486Y2186D01*
X1490Y2186D01*
X1490Y2184D01*
X1494Y2184D01*
X1494Y2182D01*
X1496Y2182D01*
X1496Y2180D01*
X1498Y2180D01*
X1498Y2178D01*
X1500Y2178D01*
X1500Y2176D01*
X1502Y2176D01*
X1502Y2174D01*
X1504Y2174D01*
X1504Y2170D01*
X1506Y2170D01*
X1506Y2166D01*
X1508Y2166D01*
X1508Y2160D01*
X1510Y2160D01*
X1510Y2156D01*
X1530Y2156D01*
X1530Y2164D01*
X1532Y2164D01*
X1532Y2168D01*
X1534Y2168D01*
X1534Y2172D01*
X1536Y2172D01*
X1536Y2174D01*
X1538Y2174D01*
X1538Y2178D01*
X1540Y2178D01*
X1540Y2180D01*
X1542Y2180D01*
X1542Y2182D01*
X1546Y2182D01*
X1546Y2184D01*
X1548Y2184D01*
X1548Y2186D01*
X1552Y2186D01*
X1552Y2188D01*
X1558Y2188D01*
X1558Y2190D01*
X1568Y2190D01*
X1568Y2192D01*
X1470Y2192D01*
G37*
D02*
G36*
X1570Y2192D02*
X1570Y2190D01*
X1582Y2190D01*
X1582Y2188D01*
X1586Y2188D01*
X1586Y2186D01*
X1590Y2186D01*
X1590Y2184D01*
X1594Y2184D01*
X1594Y2182D01*
X1596Y2182D01*
X1596Y2180D01*
X1598Y2180D01*
X1598Y2178D01*
X1600Y2178D01*
X1600Y2176D01*
X1602Y2176D01*
X1602Y2174D01*
X1604Y2174D01*
X1604Y2170D01*
X1606Y2170D01*
X1606Y2166D01*
X1608Y2166D01*
X1608Y2160D01*
X1610Y2160D01*
X1610Y2156D01*
X1630Y2156D01*
X1630Y2164D01*
X1632Y2164D01*
X1632Y2168D01*
X1634Y2168D01*
X1634Y2172D01*
X1636Y2172D01*
X1636Y2174D01*
X1638Y2174D01*
X1638Y2178D01*
X1640Y2178D01*
X1640Y2180D01*
X1642Y2180D01*
X1642Y2182D01*
X1646Y2182D01*
X1646Y2184D01*
X1648Y2184D01*
X1648Y2186D01*
X1652Y2186D01*
X1652Y2188D01*
X1658Y2188D01*
X1658Y2190D01*
X1668Y2190D01*
X1668Y2192D01*
X1570Y2192D01*
G37*
D02*
G36*
X1670Y2192D02*
X1670Y2190D01*
X1682Y2190D01*
X1682Y2188D01*
X1686Y2188D01*
X1686Y2186D01*
X1690Y2186D01*
X1690Y2184D01*
X1694Y2184D01*
X1694Y2182D01*
X1696Y2182D01*
X1696Y2180D01*
X1698Y2180D01*
X1698Y2178D01*
X1700Y2178D01*
X1700Y2176D01*
X1702Y2176D01*
X1702Y2174D01*
X1704Y2174D01*
X1704Y2170D01*
X1706Y2170D01*
X1706Y2166D01*
X1708Y2166D01*
X1708Y2160D01*
X1710Y2160D01*
X1710Y2156D01*
X1730Y2156D01*
X1730Y2164D01*
X1732Y2164D01*
X1732Y2168D01*
X1734Y2168D01*
X1734Y2172D01*
X1736Y2172D01*
X1736Y2174D01*
X1738Y2174D01*
X1738Y2178D01*
X1740Y2178D01*
X1740Y2180D01*
X1742Y2180D01*
X1742Y2182D01*
X1746Y2182D01*
X1746Y2184D01*
X1748Y2184D01*
X1748Y2186D01*
X1752Y2186D01*
X1752Y2188D01*
X1758Y2188D01*
X1758Y2190D01*
X1768Y2190D01*
X1768Y2192D01*
X1670Y2192D01*
G37*
D02*
G36*
X710Y2144D02*
X710Y2140D01*
X708Y2140D01*
X708Y2134D01*
X706Y2134D01*
X706Y2130D01*
X704Y2130D01*
X704Y2126D01*
X702Y2126D01*
X702Y2124D01*
X700Y2124D01*
X700Y2122D01*
X698Y2122D01*
X698Y2120D01*
X696Y2120D01*
X696Y2118D01*
X694Y2118D01*
X694Y2116D01*
X690Y2116D01*
X690Y2114D01*
X686Y2114D01*
X686Y2112D01*
X680Y2112D01*
X680Y2110D01*
X758Y2110D01*
X758Y2112D01*
X752Y2112D01*
X752Y2114D01*
X748Y2114D01*
X748Y2116D01*
X746Y2116D01*
X746Y2118D01*
X742Y2118D01*
X742Y2120D01*
X740Y2120D01*
X740Y2122D01*
X738Y2122D01*
X738Y2126D01*
X736Y2126D01*
X736Y2128D01*
X734Y2128D01*
X734Y2132D01*
X732Y2132D01*
X732Y2136D01*
X730Y2136D01*
X730Y2144D01*
X710Y2144D01*
G37*
D02*
G36*
X810Y2144D02*
X810Y2140D01*
X808Y2140D01*
X808Y2134D01*
X806Y2134D01*
X806Y2130D01*
X804Y2130D01*
X804Y2126D01*
X802Y2126D01*
X802Y2124D01*
X800Y2124D01*
X800Y2122D01*
X798Y2122D01*
X798Y2120D01*
X796Y2120D01*
X796Y2118D01*
X794Y2118D01*
X794Y2116D01*
X790Y2116D01*
X790Y2114D01*
X786Y2114D01*
X786Y2112D01*
X780Y2112D01*
X780Y2110D01*
X858Y2110D01*
X858Y2112D01*
X852Y2112D01*
X852Y2114D01*
X848Y2114D01*
X848Y2116D01*
X846Y2116D01*
X846Y2118D01*
X842Y2118D01*
X842Y2120D01*
X840Y2120D01*
X840Y2122D01*
X838Y2122D01*
X838Y2126D01*
X836Y2126D01*
X836Y2128D01*
X834Y2128D01*
X834Y2132D01*
X832Y2132D01*
X832Y2136D01*
X830Y2136D01*
X830Y2144D01*
X810Y2144D01*
G37*
D02*
G36*
X910Y2144D02*
X910Y2140D01*
X908Y2140D01*
X908Y2134D01*
X906Y2134D01*
X906Y2130D01*
X904Y2130D01*
X904Y2126D01*
X902Y2126D01*
X902Y2124D01*
X900Y2124D01*
X900Y2122D01*
X898Y2122D01*
X898Y2120D01*
X896Y2120D01*
X896Y2118D01*
X894Y2118D01*
X894Y2116D01*
X890Y2116D01*
X890Y2114D01*
X886Y2114D01*
X886Y2112D01*
X880Y2112D01*
X880Y2110D01*
X958Y2110D01*
X958Y2112D01*
X952Y2112D01*
X952Y2114D01*
X948Y2114D01*
X948Y2116D01*
X946Y2116D01*
X946Y2118D01*
X942Y2118D01*
X942Y2120D01*
X940Y2120D01*
X940Y2122D01*
X938Y2122D01*
X938Y2126D01*
X936Y2126D01*
X936Y2128D01*
X934Y2128D01*
X934Y2132D01*
X932Y2132D01*
X932Y2136D01*
X930Y2136D01*
X930Y2144D01*
X910Y2144D01*
G37*
D02*
G36*
X1010Y2144D02*
X1010Y2140D01*
X1008Y2140D01*
X1008Y2134D01*
X1006Y2134D01*
X1006Y2130D01*
X1004Y2130D01*
X1004Y2126D01*
X1002Y2126D01*
X1002Y2124D01*
X1000Y2124D01*
X1000Y2122D01*
X998Y2122D01*
X998Y2120D01*
X996Y2120D01*
X996Y2118D01*
X994Y2118D01*
X994Y2116D01*
X990Y2116D01*
X990Y2114D01*
X986Y2114D01*
X986Y2112D01*
X980Y2112D01*
X980Y2110D01*
X1058Y2110D01*
X1058Y2112D01*
X1052Y2112D01*
X1052Y2114D01*
X1048Y2114D01*
X1048Y2116D01*
X1046Y2116D01*
X1046Y2118D01*
X1042Y2118D01*
X1042Y2120D01*
X1040Y2120D01*
X1040Y2122D01*
X1038Y2122D01*
X1038Y2126D01*
X1036Y2126D01*
X1036Y2128D01*
X1034Y2128D01*
X1034Y2132D01*
X1032Y2132D01*
X1032Y2136D01*
X1030Y2136D01*
X1030Y2144D01*
X1010Y2144D01*
G37*
D02*
G36*
X1110Y2144D02*
X1110Y2140D01*
X1108Y2140D01*
X1108Y2134D01*
X1106Y2134D01*
X1106Y2130D01*
X1104Y2130D01*
X1104Y2126D01*
X1102Y2126D01*
X1102Y2124D01*
X1100Y2124D01*
X1100Y2122D01*
X1098Y2122D01*
X1098Y2120D01*
X1096Y2120D01*
X1096Y2118D01*
X1094Y2118D01*
X1094Y2116D01*
X1090Y2116D01*
X1090Y2114D01*
X1086Y2114D01*
X1086Y2112D01*
X1080Y2112D01*
X1080Y2110D01*
X1158Y2110D01*
X1158Y2112D01*
X1152Y2112D01*
X1152Y2114D01*
X1148Y2114D01*
X1148Y2116D01*
X1146Y2116D01*
X1146Y2118D01*
X1142Y2118D01*
X1142Y2120D01*
X1140Y2120D01*
X1140Y2122D01*
X1138Y2122D01*
X1138Y2126D01*
X1136Y2126D01*
X1136Y2128D01*
X1134Y2128D01*
X1134Y2132D01*
X1132Y2132D01*
X1132Y2136D01*
X1130Y2136D01*
X1130Y2144D01*
X1110Y2144D01*
G37*
D02*
G36*
X1210Y2144D02*
X1210Y2140D01*
X1208Y2140D01*
X1208Y2134D01*
X1206Y2134D01*
X1206Y2130D01*
X1204Y2130D01*
X1204Y2126D01*
X1202Y2126D01*
X1202Y2124D01*
X1200Y2124D01*
X1200Y2122D01*
X1198Y2122D01*
X1198Y2120D01*
X1196Y2120D01*
X1196Y2118D01*
X1194Y2118D01*
X1194Y2116D01*
X1190Y2116D01*
X1190Y2114D01*
X1186Y2114D01*
X1186Y2112D01*
X1180Y2112D01*
X1180Y2110D01*
X1258Y2110D01*
X1258Y2112D01*
X1252Y2112D01*
X1252Y2114D01*
X1248Y2114D01*
X1248Y2116D01*
X1246Y2116D01*
X1246Y2118D01*
X1242Y2118D01*
X1242Y2120D01*
X1240Y2120D01*
X1240Y2122D01*
X1238Y2122D01*
X1238Y2126D01*
X1236Y2126D01*
X1236Y2128D01*
X1234Y2128D01*
X1234Y2132D01*
X1232Y2132D01*
X1232Y2136D01*
X1230Y2136D01*
X1230Y2144D01*
X1210Y2144D01*
G37*
D02*
G36*
X1310Y2144D02*
X1310Y2140D01*
X1308Y2140D01*
X1308Y2134D01*
X1306Y2134D01*
X1306Y2130D01*
X1304Y2130D01*
X1304Y2126D01*
X1302Y2126D01*
X1302Y2124D01*
X1300Y2124D01*
X1300Y2122D01*
X1298Y2122D01*
X1298Y2120D01*
X1296Y2120D01*
X1296Y2118D01*
X1294Y2118D01*
X1294Y2116D01*
X1290Y2116D01*
X1290Y2114D01*
X1286Y2114D01*
X1286Y2112D01*
X1280Y2112D01*
X1280Y2110D01*
X1358Y2110D01*
X1358Y2112D01*
X1352Y2112D01*
X1352Y2114D01*
X1348Y2114D01*
X1348Y2116D01*
X1346Y2116D01*
X1346Y2118D01*
X1342Y2118D01*
X1342Y2120D01*
X1340Y2120D01*
X1340Y2122D01*
X1338Y2122D01*
X1338Y2126D01*
X1336Y2126D01*
X1336Y2128D01*
X1334Y2128D01*
X1334Y2132D01*
X1332Y2132D01*
X1332Y2136D01*
X1330Y2136D01*
X1330Y2144D01*
X1310Y2144D01*
G37*
D02*
G36*
X1410Y2144D02*
X1410Y2140D01*
X1408Y2140D01*
X1408Y2134D01*
X1406Y2134D01*
X1406Y2130D01*
X1404Y2130D01*
X1404Y2126D01*
X1402Y2126D01*
X1402Y2124D01*
X1400Y2124D01*
X1400Y2122D01*
X1398Y2122D01*
X1398Y2120D01*
X1396Y2120D01*
X1396Y2118D01*
X1394Y2118D01*
X1394Y2116D01*
X1390Y2116D01*
X1390Y2114D01*
X1386Y2114D01*
X1386Y2112D01*
X1380Y2112D01*
X1380Y2110D01*
X1452Y2110D01*
X1452Y2114D01*
X1448Y2114D01*
X1448Y2116D01*
X1446Y2116D01*
X1446Y2118D01*
X1442Y2118D01*
X1442Y2120D01*
X1440Y2120D01*
X1440Y2122D01*
X1438Y2122D01*
X1438Y2126D01*
X1436Y2126D01*
X1436Y2128D01*
X1434Y2128D01*
X1434Y2132D01*
X1432Y2132D01*
X1432Y2136D01*
X1430Y2136D01*
X1430Y2144D01*
X1410Y2144D01*
G37*
D02*
G36*
X40Y2110D02*
X40Y2108D01*
X1452Y2108D01*
X1452Y2110D01*
X40Y2110D01*
G37*
D02*
G36*
X40Y2110D02*
X40Y2108D01*
X1452Y2108D01*
X1452Y2110D01*
X40Y2110D01*
G37*
D02*
G36*
X40Y2110D02*
X40Y2108D01*
X1452Y2108D01*
X1452Y2110D01*
X40Y2110D01*
G37*
D02*
G36*
X40Y2110D02*
X40Y2108D01*
X1452Y2108D01*
X1452Y2110D01*
X40Y2110D01*
G37*
D02*
G36*
X40Y2110D02*
X40Y2108D01*
X1452Y2108D01*
X1452Y2110D01*
X40Y2110D01*
G37*
D02*
G36*
X40Y2110D02*
X40Y2108D01*
X1452Y2108D01*
X1452Y2110D01*
X40Y2110D01*
G37*
D02*
G36*
X40Y2110D02*
X40Y2108D01*
X1452Y2108D01*
X1452Y2110D01*
X40Y2110D01*
G37*
D02*
G36*
X40Y2110D02*
X40Y2108D01*
X1452Y2108D01*
X1452Y2110D01*
X40Y2110D01*
G37*
D02*
G36*
X40Y2110D02*
X40Y2108D01*
X1452Y2108D01*
X1452Y2110D01*
X40Y2110D01*
G37*
D02*
G36*
X40Y2108D02*
X40Y1772D01*
X656Y1772D01*
X656Y1770D01*
X662Y1770D01*
X662Y1768D01*
X666Y1768D01*
X666Y1766D01*
X670Y1766D01*
X670Y1764D01*
X672Y1764D01*
X672Y1762D01*
X676Y1762D01*
X676Y1760D01*
X678Y1760D01*
X678Y1758D01*
X680Y1758D01*
X680Y1754D01*
X682Y1754D01*
X682Y1752D01*
X684Y1752D01*
X684Y1750D01*
X686Y1750D01*
X686Y1746D01*
X688Y1746D01*
X688Y1740D01*
X690Y1740D01*
X690Y1734D01*
X692Y1734D01*
X692Y1716D01*
X690Y1716D01*
X690Y1710D01*
X688Y1710D01*
X688Y1704D01*
X686Y1704D01*
X686Y1700D01*
X684Y1700D01*
X684Y1698D01*
X682Y1698D01*
X682Y1696D01*
X680Y1696D01*
X680Y1692D01*
X678Y1692D01*
X678Y1690D01*
X674Y1690D01*
X674Y1688D01*
X672Y1688D01*
X672Y1686D01*
X670Y1686D01*
X670Y1684D01*
X666Y1684D01*
X666Y1678D01*
X1034Y1678D01*
X1034Y1680D01*
X1028Y1680D01*
X1028Y1682D01*
X1022Y1682D01*
X1022Y1684D01*
X1020Y1684D01*
X1020Y1686D01*
X1016Y1686D01*
X1016Y1688D01*
X1014Y1688D01*
X1014Y1690D01*
X1012Y1690D01*
X1012Y1692D01*
X1010Y1692D01*
X1010Y1694D01*
X1008Y1694D01*
X1008Y1696D01*
X1006Y1696D01*
X1006Y1698D01*
X1004Y1698D01*
X1004Y1702D01*
X1002Y1702D01*
X1002Y1706D01*
X1000Y1706D01*
X1000Y1712D01*
X998Y1712D01*
X998Y1724D01*
X996Y1724D01*
X996Y1728D01*
X998Y1728D01*
X998Y1738D01*
X1000Y1738D01*
X1000Y1744D01*
X1002Y1744D01*
X1002Y1748D01*
X1004Y1748D01*
X1004Y1752D01*
X1006Y1752D01*
X1006Y1754D01*
X1008Y1754D01*
X1008Y1756D01*
X1010Y1756D01*
X1010Y1758D01*
X1012Y1758D01*
X1012Y1760D01*
X1014Y1760D01*
X1014Y1762D01*
X1016Y1762D01*
X1016Y1764D01*
X1018Y1764D01*
X1018Y1766D01*
X1022Y1766D01*
X1022Y1768D01*
X1026Y1768D01*
X1026Y1832D01*
X1028Y1832D01*
X1028Y1836D01*
X1030Y1836D01*
X1030Y1838D01*
X1032Y1838D01*
X1032Y1840D01*
X1034Y1840D01*
X1034Y1842D01*
X1036Y1842D01*
X1036Y1844D01*
X1038Y1844D01*
X1038Y1846D01*
X1042Y1846D01*
X1042Y1848D01*
X1044Y1848D01*
X1044Y1850D01*
X1046Y1850D01*
X1046Y1852D01*
X1048Y1852D01*
X1048Y1854D01*
X1050Y1854D01*
X1050Y1856D01*
X1054Y1856D01*
X1054Y1858D01*
X1056Y1858D01*
X1056Y1860D01*
X1058Y1860D01*
X1058Y1862D01*
X1060Y1862D01*
X1060Y1864D01*
X1062Y1864D01*
X1062Y1866D01*
X1066Y1866D01*
X1066Y1868D01*
X1068Y1868D01*
X1068Y1870D01*
X1070Y1870D01*
X1070Y1872D01*
X1072Y1872D01*
X1072Y1874D01*
X1076Y1874D01*
X1076Y1876D01*
X1078Y1876D01*
X1078Y1878D01*
X1080Y1878D01*
X1080Y1880D01*
X1082Y1880D01*
X1082Y1882D01*
X1084Y1882D01*
X1084Y1884D01*
X1088Y1884D01*
X1088Y1886D01*
X1090Y1886D01*
X1090Y1888D01*
X1092Y1888D01*
X1092Y1890D01*
X1094Y1890D01*
X1094Y1892D01*
X1096Y1892D01*
X1096Y1894D01*
X1100Y1894D01*
X1100Y1896D01*
X1102Y1896D01*
X1102Y1898D01*
X1104Y1898D01*
X1104Y1900D01*
X1106Y1900D01*
X1106Y1902D01*
X1110Y1902D01*
X1110Y1904D01*
X1112Y1904D01*
X1112Y1906D01*
X1114Y1906D01*
X1114Y1908D01*
X1116Y1908D01*
X1116Y1910D01*
X1118Y1910D01*
X1118Y1912D01*
X1122Y1912D01*
X1122Y1914D01*
X1124Y1914D01*
X1124Y1916D01*
X1126Y1916D01*
X1126Y1918D01*
X1128Y1918D01*
X1128Y1920D01*
X1130Y1920D01*
X1130Y1922D01*
X1134Y1922D01*
X1134Y1924D01*
X1136Y1924D01*
X1136Y1926D01*
X1138Y1926D01*
X1138Y1928D01*
X1140Y1928D01*
X1140Y1930D01*
X1142Y1930D01*
X1142Y1932D01*
X1146Y1932D01*
X1146Y1934D01*
X1148Y1934D01*
X1148Y1936D01*
X1150Y1936D01*
X1150Y1938D01*
X1152Y1938D01*
X1152Y1940D01*
X1156Y1940D01*
X1156Y1942D01*
X1158Y1942D01*
X1158Y1944D01*
X1160Y1944D01*
X1160Y1946D01*
X1162Y1946D01*
X1162Y1948D01*
X1164Y1948D01*
X1164Y1950D01*
X1168Y1950D01*
X1168Y1952D01*
X1170Y1952D01*
X1170Y1954D01*
X1172Y1954D01*
X1172Y1956D01*
X1174Y1956D01*
X1174Y1958D01*
X1176Y1958D01*
X1176Y1960D01*
X1180Y1960D01*
X1180Y1962D01*
X1182Y1962D01*
X1182Y1964D01*
X1184Y1964D01*
X1184Y1966D01*
X1188Y1966D01*
X1188Y1968D01*
X1442Y1968D01*
X1442Y1988D01*
X1438Y1988D01*
X1438Y1990D01*
X1436Y1990D01*
X1436Y1992D01*
X1434Y1992D01*
X1434Y1994D01*
X1432Y1994D01*
X1432Y1998D01*
X1430Y1998D01*
X1430Y2000D01*
X1428Y2000D01*
X1428Y2004D01*
X1426Y2004D01*
X1426Y2008D01*
X1424Y2008D01*
X1424Y2016D01*
X1422Y2016D01*
X1422Y2034D01*
X1424Y2034D01*
X1424Y2042D01*
X1426Y2042D01*
X1426Y2046D01*
X1428Y2046D01*
X1428Y2050D01*
X1430Y2050D01*
X1430Y2052D01*
X1432Y2052D01*
X1432Y2056D01*
X1434Y2056D01*
X1434Y2058D01*
X1436Y2058D01*
X1436Y2060D01*
X1438Y2060D01*
X1438Y2062D01*
X1442Y2062D01*
X1442Y2064D01*
X1444Y2064D01*
X1444Y2066D01*
X1448Y2066D01*
X1448Y2068D01*
X1452Y2068D01*
X1452Y2108D01*
X40Y2108D01*
G37*
D02*
G36*
X1200Y1932D02*
X1200Y1930D01*
X1198Y1930D01*
X1198Y1928D01*
X1194Y1928D01*
X1194Y1926D01*
X1192Y1926D01*
X1192Y1924D01*
X1190Y1924D01*
X1190Y1922D01*
X1188Y1922D01*
X1188Y1920D01*
X1184Y1920D01*
X1184Y1918D01*
X1182Y1918D01*
X1182Y1916D01*
X1180Y1916D01*
X1180Y1914D01*
X1178Y1914D01*
X1178Y1912D01*
X1176Y1912D01*
X1176Y1910D01*
X1172Y1910D01*
X1172Y1908D01*
X1170Y1908D01*
X1170Y1906D01*
X1168Y1906D01*
X1168Y1904D01*
X1166Y1904D01*
X1166Y1902D01*
X1164Y1902D01*
X1164Y1900D01*
X1160Y1900D01*
X1160Y1898D01*
X1158Y1898D01*
X1158Y1896D01*
X1156Y1896D01*
X1156Y1894D01*
X1154Y1894D01*
X1154Y1892D01*
X1152Y1892D01*
X1152Y1890D01*
X1148Y1890D01*
X1148Y1888D01*
X1146Y1888D01*
X1146Y1886D01*
X1144Y1886D01*
X1144Y1884D01*
X1142Y1884D01*
X1142Y1882D01*
X1138Y1882D01*
X1138Y1880D01*
X1136Y1880D01*
X1136Y1878D01*
X1134Y1878D01*
X1134Y1876D01*
X1132Y1876D01*
X1132Y1874D01*
X1130Y1874D01*
X1130Y1872D01*
X1126Y1872D01*
X1126Y1870D01*
X1124Y1870D01*
X1124Y1868D01*
X1122Y1868D01*
X1122Y1866D01*
X1120Y1866D01*
X1120Y1864D01*
X1118Y1864D01*
X1118Y1862D01*
X1114Y1862D01*
X1114Y1860D01*
X1112Y1860D01*
X1112Y1858D01*
X1110Y1858D01*
X1110Y1856D01*
X1108Y1856D01*
X1108Y1854D01*
X1104Y1854D01*
X1104Y1852D01*
X1102Y1852D01*
X1102Y1850D01*
X1100Y1850D01*
X1100Y1848D01*
X1098Y1848D01*
X1098Y1846D01*
X1096Y1846D01*
X1096Y1844D01*
X1092Y1844D01*
X1092Y1842D01*
X1090Y1842D01*
X1090Y1840D01*
X1088Y1840D01*
X1088Y1838D01*
X1086Y1838D01*
X1086Y1836D01*
X1084Y1836D01*
X1084Y1834D01*
X1080Y1834D01*
X1080Y1832D01*
X1078Y1832D01*
X1078Y1830D01*
X1076Y1830D01*
X1076Y1828D01*
X1074Y1828D01*
X1074Y1826D01*
X1072Y1826D01*
X1072Y1824D01*
X1068Y1824D01*
X1068Y1822D01*
X1066Y1822D01*
X1066Y1820D01*
X1064Y1820D01*
X1064Y1818D01*
X1062Y1818D01*
X1062Y1768D01*
X1066Y1768D01*
X1066Y1766D01*
X1070Y1766D01*
X1070Y1764D01*
X1072Y1764D01*
X1072Y1762D01*
X1076Y1762D01*
X1076Y1760D01*
X1078Y1760D01*
X1078Y1758D01*
X1080Y1758D01*
X1080Y1754D01*
X1082Y1754D01*
X1082Y1752D01*
X1084Y1752D01*
X1084Y1750D01*
X1086Y1750D01*
X1086Y1746D01*
X1088Y1746D01*
X1088Y1740D01*
X1090Y1740D01*
X1090Y1734D01*
X1092Y1734D01*
X1092Y1716D01*
X1090Y1716D01*
X1090Y1710D01*
X1088Y1710D01*
X1088Y1704D01*
X1086Y1704D01*
X1086Y1700D01*
X1084Y1700D01*
X1084Y1698D01*
X1082Y1698D01*
X1082Y1696D01*
X1080Y1696D01*
X1080Y1692D01*
X1078Y1692D01*
X1078Y1690D01*
X1074Y1690D01*
X1074Y1688D01*
X1072Y1688D01*
X1072Y1686D01*
X1070Y1686D01*
X1070Y1684D01*
X1066Y1684D01*
X1066Y1682D01*
X1062Y1682D01*
X1062Y1680D01*
X1056Y1680D01*
X1056Y1678D01*
X1120Y1678D01*
X1120Y1680D01*
X1122Y1680D01*
X1122Y1682D01*
X1126Y1682D01*
X1126Y1780D01*
X1128Y1780D01*
X1128Y1784D01*
X1130Y1784D01*
X1130Y1788D01*
X1132Y1788D01*
X1132Y1790D01*
X1136Y1790D01*
X1136Y1792D01*
X1138Y1792D01*
X1138Y1794D01*
X1140Y1794D01*
X1140Y1796D01*
X1142Y1796D01*
X1142Y1798D01*
X1144Y1798D01*
X1144Y1800D01*
X1148Y1800D01*
X1148Y1802D01*
X1150Y1802D01*
X1150Y1804D01*
X1152Y1804D01*
X1152Y1806D01*
X1154Y1806D01*
X1154Y1808D01*
X1156Y1808D01*
X1156Y1810D01*
X1160Y1810D01*
X1160Y1812D01*
X1162Y1812D01*
X1162Y1814D01*
X1164Y1814D01*
X1164Y1816D01*
X1166Y1816D01*
X1166Y1818D01*
X1168Y1818D01*
X1168Y1820D01*
X1172Y1820D01*
X1172Y1822D01*
X1174Y1822D01*
X1174Y1824D01*
X1176Y1824D01*
X1176Y1826D01*
X1178Y1826D01*
X1178Y1828D01*
X1180Y1828D01*
X1180Y1830D01*
X1184Y1830D01*
X1184Y1832D01*
X1186Y1832D01*
X1186Y1834D01*
X1188Y1834D01*
X1188Y1836D01*
X1190Y1836D01*
X1190Y1838D01*
X1192Y1838D01*
X1192Y1840D01*
X1196Y1840D01*
X1196Y1842D01*
X1198Y1842D01*
X1198Y1844D01*
X1200Y1844D01*
X1200Y1846D01*
X1202Y1846D01*
X1202Y1848D01*
X1204Y1848D01*
X1204Y1850D01*
X1208Y1850D01*
X1208Y1852D01*
X1210Y1852D01*
X1210Y1854D01*
X1212Y1854D01*
X1212Y1856D01*
X1214Y1856D01*
X1214Y1858D01*
X1216Y1858D01*
X1216Y1860D01*
X1220Y1860D01*
X1220Y1862D01*
X1222Y1862D01*
X1222Y1864D01*
X1224Y1864D01*
X1224Y1866D01*
X1226Y1866D01*
X1226Y1868D01*
X1228Y1868D01*
X1228Y1870D01*
X1232Y1870D01*
X1232Y1872D01*
X1234Y1872D01*
X1234Y1874D01*
X1236Y1874D01*
X1236Y1876D01*
X1238Y1876D01*
X1238Y1878D01*
X1240Y1878D01*
X1240Y1880D01*
X1244Y1880D01*
X1244Y1882D01*
X1246Y1882D01*
X1246Y1884D01*
X1248Y1884D01*
X1248Y1886D01*
X1250Y1886D01*
X1250Y1888D01*
X1252Y1888D01*
X1252Y1890D01*
X1256Y1890D01*
X1256Y1892D01*
X1258Y1892D01*
X1258Y1894D01*
X1260Y1894D01*
X1260Y1896D01*
X1262Y1896D01*
X1262Y1898D01*
X1264Y1898D01*
X1264Y1900D01*
X1266Y1900D01*
X1266Y1902D01*
X1270Y1902D01*
X1270Y1904D01*
X1272Y1904D01*
X1272Y1906D01*
X1274Y1906D01*
X1274Y1908D01*
X1276Y1908D01*
X1276Y1910D01*
X1278Y1910D01*
X1278Y1912D01*
X1282Y1912D01*
X1282Y1932D01*
X1200Y1932D01*
G37*
D02*
G36*
X1300Y1882D02*
X1300Y1880D01*
X1296Y1880D01*
X1296Y1878D01*
X1294Y1878D01*
X1294Y1876D01*
X1292Y1876D01*
X1292Y1874D01*
X1290Y1874D01*
X1290Y1872D01*
X1288Y1872D01*
X1288Y1870D01*
X1284Y1870D01*
X1284Y1868D01*
X1282Y1868D01*
X1282Y1866D01*
X1280Y1866D01*
X1280Y1864D01*
X1278Y1864D01*
X1278Y1862D01*
X1276Y1862D01*
X1276Y1860D01*
X1272Y1860D01*
X1272Y1858D01*
X1270Y1858D01*
X1270Y1856D01*
X1268Y1856D01*
X1268Y1854D01*
X1266Y1854D01*
X1266Y1852D01*
X1264Y1852D01*
X1264Y1850D01*
X1260Y1850D01*
X1260Y1848D01*
X1258Y1848D01*
X1258Y1846D01*
X1256Y1846D01*
X1256Y1844D01*
X1254Y1844D01*
X1254Y1842D01*
X1252Y1842D01*
X1252Y1840D01*
X1248Y1840D01*
X1248Y1838D01*
X1246Y1838D01*
X1246Y1836D01*
X1244Y1836D01*
X1244Y1834D01*
X1242Y1834D01*
X1242Y1832D01*
X1240Y1832D01*
X1240Y1830D01*
X1236Y1830D01*
X1236Y1828D01*
X1234Y1828D01*
X1234Y1826D01*
X1232Y1826D01*
X1232Y1824D01*
X1230Y1824D01*
X1230Y1822D01*
X1228Y1822D01*
X1228Y1820D01*
X1618Y1820D01*
X1618Y1822D01*
X1608Y1822D01*
X1608Y1824D01*
X1604Y1824D01*
X1604Y1826D01*
X1602Y1826D01*
X1602Y1828D01*
X1598Y1828D01*
X1598Y1832D01*
X1596Y1832D01*
X1596Y1834D01*
X1594Y1834D01*
X1594Y1836D01*
X1592Y1836D01*
X1592Y1842D01*
X1590Y1842D01*
X1590Y1860D01*
X1592Y1860D01*
X1592Y1882D01*
X1300Y1882D01*
G37*
D02*
G36*
X2102Y1858D02*
X2102Y1856D01*
X2050Y1856D01*
X2050Y1854D01*
X2048Y1854D01*
X2048Y1852D01*
X2046Y1852D01*
X2046Y1850D01*
X2044Y1850D01*
X2044Y1848D01*
X2042Y1848D01*
X2042Y1846D01*
X2040Y1846D01*
X2040Y1844D01*
X2038Y1844D01*
X2038Y1842D01*
X2036Y1842D01*
X2036Y1840D01*
X2034Y1840D01*
X2034Y1838D01*
X2032Y1838D01*
X2032Y1836D01*
X2030Y1836D01*
X2030Y1834D01*
X2028Y1834D01*
X2028Y1832D01*
X2026Y1832D01*
X2026Y1830D01*
X2024Y1830D01*
X2024Y1828D01*
X2022Y1828D01*
X2022Y1826D01*
X2020Y1826D01*
X2020Y1824D01*
X2018Y1824D01*
X2018Y1822D01*
X2016Y1822D01*
X2016Y1820D01*
X2014Y1820D01*
X2014Y1818D01*
X2012Y1818D01*
X2012Y1816D01*
X2010Y1816D01*
X2010Y1814D01*
X2008Y1814D01*
X2008Y1812D01*
X2006Y1812D01*
X2006Y1810D01*
X2004Y1810D01*
X2004Y1808D01*
X2002Y1808D01*
X2002Y1806D01*
X2000Y1806D01*
X2000Y1804D01*
X1998Y1804D01*
X1998Y1802D01*
X1996Y1802D01*
X1996Y1800D01*
X1994Y1800D01*
X1994Y1798D01*
X1992Y1798D01*
X1992Y1796D01*
X1990Y1796D01*
X1990Y1794D01*
X1988Y1794D01*
X1988Y1792D01*
X1984Y1792D01*
X1984Y1790D01*
X1982Y1790D01*
X1982Y1788D01*
X1980Y1788D01*
X1980Y1786D01*
X1978Y1786D01*
X1978Y1784D01*
X1974Y1784D01*
X1974Y1782D01*
X1716Y1782D01*
X1716Y1778D01*
X1712Y1778D01*
X1712Y1776D01*
X1710Y1776D01*
X1710Y1774D01*
X1706Y1774D01*
X1706Y1772D01*
X1700Y1772D01*
X1700Y1770D01*
X2018Y1770D01*
X2018Y1772D01*
X2020Y1772D01*
X2020Y1776D01*
X2022Y1776D01*
X2022Y1778D01*
X2024Y1778D01*
X2024Y1780D01*
X2026Y1780D01*
X2026Y1782D01*
X2028Y1782D01*
X2028Y1784D01*
X2030Y1784D01*
X2030Y1786D01*
X2032Y1786D01*
X2032Y1788D01*
X2034Y1788D01*
X2034Y1790D01*
X2038Y1790D01*
X2038Y1792D01*
X2232Y1792D01*
X2232Y1794D01*
X2250Y1794D01*
X2250Y1798D01*
X2252Y1798D01*
X2252Y1800D01*
X2254Y1800D01*
X2254Y1804D01*
X2256Y1804D01*
X2256Y1806D01*
X2258Y1806D01*
X2258Y1808D01*
X2260Y1808D01*
X2260Y1810D01*
X2262Y1810D01*
X2262Y1812D01*
X2264Y1812D01*
X2264Y1814D01*
X2266Y1814D01*
X2266Y1836D01*
X2264Y1836D01*
X2264Y1838D01*
X2262Y1838D01*
X2262Y1840D01*
X2260Y1840D01*
X2260Y1842D01*
X2258Y1842D01*
X2258Y1844D01*
X2256Y1844D01*
X2256Y1846D01*
X2254Y1846D01*
X2254Y1850D01*
X2252Y1850D01*
X2252Y1852D01*
X2250Y1852D01*
X2250Y1856D01*
X2248Y1856D01*
X2248Y1858D01*
X2102Y1858D01*
G37*
D02*
G36*
X1642Y1832D02*
X1642Y1830D01*
X1640Y1830D01*
X1640Y1828D01*
X1636Y1828D01*
X1636Y1826D01*
X1634Y1826D01*
X1634Y1824D01*
X1630Y1824D01*
X1630Y1822D01*
X1620Y1822D01*
X1620Y1820D01*
X1668Y1820D01*
X1668Y1832D01*
X1642Y1832D01*
G37*
D02*
G36*
X1224Y1820D02*
X1224Y1818D01*
X1668Y1818D01*
X1668Y1820D01*
X1224Y1820D01*
G37*
D02*
G36*
X1224Y1820D02*
X1224Y1818D01*
X1668Y1818D01*
X1668Y1820D01*
X1224Y1820D01*
G37*
D02*
G36*
X1222Y1818D02*
X1222Y1816D01*
X1220Y1816D01*
X1220Y1814D01*
X1218Y1814D01*
X1218Y1812D01*
X1216Y1812D01*
X1216Y1810D01*
X1214Y1810D01*
X1214Y1808D01*
X1210Y1808D01*
X1210Y1806D01*
X1208Y1806D01*
X1208Y1804D01*
X1206Y1804D01*
X1206Y1802D01*
X1204Y1802D01*
X1204Y1800D01*
X1202Y1800D01*
X1202Y1798D01*
X1198Y1798D01*
X1198Y1796D01*
X1196Y1796D01*
X1196Y1794D01*
X1194Y1794D01*
X1194Y1792D01*
X1192Y1792D01*
X1192Y1790D01*
X1190Y1790D01*
X1190Y1788D01*
X1186Y1788D01*
X1186Y1786D01*
X1184Y1786D01*
X1184Y1784D01*
X1182Y1784D01*
X1182Y1782D01*
X1180Y1782D01*
X1180Y1780D01*
X1178Y1780D01*
X1178Y1778D01*
X1174Y1778D01*
X1174Y1776D01*
X1172Y1776D01*
X1172Y1774D01*
X1170Y1774D01*
X1170Y1772D01*
X1168Y1772D01*
X1168Y1770D01*
X1690Y1770D01*
X1690Y1772D01*
X1682Y1772D01*
X1682Y1774D01*
X1678Y1774D01*
X1678Y1776D01*
X1676Y1776D01*
X1676Y1778D01*
X1674Y1778D01*
X1674Y1780D01*
X1672Y1780D01*
X1672Y1782D01*
X1670Y1782D01*
X1670Y1786D01*
X1668Y1786D01*
X1668Y1788D01*
X1666Y1788D01*
X1666Y1798D01*
X1664Y1798D01*
X1664Y1802D01*
X1666Y1802D01*
X1666Y1812D01*
X1668Y1812D01*
X1668Y1818D01*
X1222Y1818D01*
G37*
D02*
G36*
X40Y1772D02*
X40Y1392D01*
X270Y1392D01*
X270Y1390D01*
X282Y1390D01*
X282Y1388D01*
X286Y1388D01*
X286Y1386D01*
X290Y1386D01*
X290Y1384D01*
X294Y1384D01*
X294Y1382D01*
X296Y1382D01*
X296Y1380D01*
X298Y1380D01*
X298Y1378D01*
X300Y1378D01*
X300Y1376D01*
X302Y1376D01*
X302Y1374D01*
X304Y1374D01*
X304Y1370D01*
X306Y1370D01*
X306Y1366D01*
X308Y1366D01*
X308Y1360D01*
X310Y1360D01*
X310Y1356D01*
X330Y1356D01*
X330Y1364D01*
X332Y1364D01*
X332Y1368D01*
X334Y1368D01*
X334Y1372D01*
X336Y1372D01*
X336Y1374D01*
X338Y1374D01*
X338Y1378D01*
X340Y1378D01*
X340Y1380D01*
X342Y1380D01*
X342Y1382D01*
X346Y1382D01*
X346Y1384D01*
X348Y1384D01*
X348Y1434D01*
X350Y1434D01*
X350Y1438D01*
X352Y1438D01*
X352Y1440D01*
X354Y1440D01*
X354Y1442D01*
X356Y1442D01*
X356Y1444D01*
X358Y1444D01*
X358Y1446D01*
X360Y1446D01*
X360Y1448D01*
X362Y1448D01*
X362Y1450D01*
X364Y1450D01*
X364Y1452D01*
X366Y1452D01*
X366Y1454D01*
X368Y1454D01*
X368Y1456D01*
X370Y1456D01*
X370Y1458D01*
X372Y1458D01*
X372Y1460D01*
X374Y1460D01*
X374Y1462D01*
X376Y1462D01*
X376Y1464D01*
X378Y1464D01*
X378Y1466D01*
X380Y1466D01*
X380Y1468D01*
X382Y1468D01*
X382Y1470D01*
X384Y1470D01*
X384Y1472D01*
X386Y1472D01*
X386Y1474D01*
X388Y1474D01*
X388Y1476D01*
X392Y1476D01*
X392Y1478D01*
X394Y1478D01*
X394Y1480D01*
X396Y1480D01*
X396Y1482D01*
X398Y1482D01*
X398Y1484D01*
X400Y1484D01*
X400Y1486D01*
X402Y1486D01*
X402Y1488D01*
X404Y1488D01*
X404Y1490D01*
X406Y1490D01*
X406Y1492D01*
X408Y1492D01*
X408Y1494D01*
X412Y1494D01*
X412Y1496D01*
X586Y1496D01*
X586Y1498D01*
X588Y1498D01*
X588Y1500D01*
X590Y1500D01*
X590Y1502D01*
X592Y1502D01*
X592Y1504D01*
X594Y1504D01*
X594Y1506D01*
X596Y1506D01*
X596Y1508D01*
X598Y1508D01*
X598Y1510D01*
X600Y1510D01*
X600Y1512D01*
X602Y1512D01*
X602Y1514D01*
X604Y1514D01*
X604Y1516D01*
X606Y1516D01*
X606Y1518D01*
X608Y1518D01*
X608Y1520D01*
X610Y1520D01*
X610Y1522D01*
X612Y1522D01*
X612Y1524D01*
X614Y1524D01*
X614Y1526D01*
X616Y1526D01*
X616Y1528D01*
X618Y1528D01*
X618Y1530D01*
X620Y1530D01*
X620Y1532D01*
X622Y1532D01*
X622Y1560D01*
X618Y1560D01*
X618Y1562D01*
X616Y1562D01*
X616Y1564D01*
X612Y1564D01*
X612Y1566D01*
X610Y1566D01*
X610Y1568D01*
X608Y1568D01*
X608Y1572D01*
X606Y1572D01*
X606Y1574D01*
X604Y1574D01*
X604Y1578D01*
X602Y1578D01*
X602Y1580D01*
X600Y1580D01*
X600Y1588D01*
X598Y1588D01*
X598Y1598D01*
X596Y1598D01*
X596Y1602D01*
X598Y1602D01*
X598Y1614D01*
X600Y1614D01*
X600Y1620D01*
X602Y1620D01*
X602Y1622D01*
X604Y1622D01*
X604Y1626D01*
X606Y1626D01*
X606Y1628D01*
X608Y1628D01*
X608Y1632D01*
X610Y1632D01*
X610Y1634D01*
X612Y1634D01*
X612Y1636D01*
X614Y1636D01*
X614Y1638D01*
X618Y1638D01*
X618Y1640D01*
X620Y1640D01*
X620Y1642D01*
X622Y1642D01*
X622Y1684D01*
X620Y1684D01*
X620Y1686D01*
X616Y1686D01*
X616Y1688D01*
X614Y1688D01*
X614Y1690D01*
X612Y1690D01*
X612Y1692D01*
X610Y1692D01*
X610Y1694D01*
X608Y1694D01*
X608Y1696D01*
X606Y1696D01*
X606Y1698D01*
X604Y1698D01*
X604Y1702D01*
X602Y1702D01*
X602Y1706D01*
X600Y1706D01*
X600Y1712D01*
X598Y1712D01*
X598Y1724D01*
X596Y1724D01*
X596Y1728D01*
X598Y1728D01*
X598Y1738D01*
X600Y1738D01*
X600Y1744D01*
X602Y1744D01*
X602Y1748D01*
X604Y1748D01*
X604Y1752D01*
X606Y1752D01*
X606Y1754D01*
X608Y1754D01*
X608Y1756D01*
X610Y1756D01*
X610Y1758D01*
X612Y1758D01*
X612Y1760D01*
X614Y1760D01*
X614Y1762D01*
X616Y1762D01*
X616Y1764D01*
X618Y1764D01*
X618Y1766D01*
X622Y1766D01*
X622Y1768D01*
X626Y1768D01*
X626Y1770D01*
X634Y1770D01*
X634Y1772D01*
X40Y1772D01*
G37*
D02*
G36*
X1166Y1770D02*
X1166Y1768D01*
X2016Y1768D01*
X2016Y1770D01*
X1166Y1770D01*
G37*
D02*
G36*
X1166Y1770D02*
X1166Y1768D01*
X2016Y1768D01*
X2016Y1770D01*
X1166Y1770D01*
G37*
D02*
G36*
X1162Y1768D02*
X1162Y1672D01*
X1480Y1672D01*
X1480Y1670D01*
X1488Y1670D01*
X1488Y1668D01*
X1492Y1668D01*
X1492Y1666D01*
X1494Y1666D01*
X1494Y1664D01*
X1498Y1664D01*
X1498Y1662D01*
X1500Y1662D01*
X1500Y1660D01*
X1502Y1660D01*
X1502Y1658D01*
X1504Y1658D01*
X1504Y1656D01*
X1506Y1656D01*
X1506Y1654D01*
X1508Y1654D01*
X1508Y1652D01*
X1510Y1652D01*
X1510Y1648D01*
X1512Y1648D01*
X1512Y1644D01*
X1514Y1644D01*
X1514Y1638D01*
X1516Y1638D01*
X1516Y1612D01*
X1514Y1612D01*
X1514Y1606D01*
X1512Y1606D01*
X1512Y1602D01*
X1510Y1602D01*
X1510Y1600D01*
X1508Y1600D01*
X1508Y1596D01*
X1506Y1596D01*
X1506Y1594D01*
X1504Y1594D01*
X1504Y1592D01*
X1502Y1592D01*
X1502Y1590D01*
X1500Y1590D01*
X1500Y1588D01*
X1498Y1588D01*
X1498Y1586D01*
X1494Y1586D01*
X1494Y1584D01*
X1490Y1584D01*
X1490Y1582D01*
X1486Y1582D01*
X1486Y1580D01*
X1480Y1580D01*
X1480Y1578D01*
X1844Y1578D01*
X1844Y1580D01*
X1846Y1580D01*
X1846Y1582D01*
X1848Y1582D01*
X1848Y1584D01*
X1850Y1584D01*
X1850Y1586D01*
X1852Y1586D01*
X1852Y1590D01*
X1854Y1590D01*
X1854Y1592D01*
X1856Y1592D01*
X1856Y1594D01*
X1858Y1594D01*
X1858Y1596D01*
X1860Y1596D01*
X1860Y1598D01*
X1862Y1598D01*
X1862Y1600D01*
X1864Y1600D01*
X1864Y1602D01*
X1866Y1602D01*
X1866Y1604D01*
X1868Y1604D01*
X1868Y1606D01*
X1870Y1606D01*
X1870Y1610D01*
X1872Y1610D01*
X1872Y1612D01*
X1874Y1612D01*
X1874Y1614D01*
X1876Y1614D01*
X1876Y1616D01*
X1878Y1616D01*
X1878Y1618D01*
X1880Y1618D01*
X1880Y1620D01*
X1882Y1620D01*
X1882Y1622D01*
X1884Y1622D01*
X1884Y1624D01*
X1886Y1624D01*
X1886Y1626D01*
X1888Y1626D01*
X1888Y1628D01*
X1890Y1628D01*
X1890Y1632D01*
X1892Y1632D01*
X1892Y1634D01*
X1894Y1634D01*
X1894Y1636D01*
X1896Y1636D01*
X1896Y1638D01*
X1898Y1638D01*
X1898Y1640D01*
X1900Y1640D01*
X1900Y1642D01*
X1902Y1642D01*
X1902Y1644D01*
X1904Y1644D01*
X1904Y1646D01*
X1906Y1646D01*
X1906Y1648D01*
X1908Y1648D01*
X1908Y1652D01*
X1910Y1652D01*
X1910Y1654D01*
X1912Y1654D01*
X1912Y1656D01*
X1914Y1656D01*
X1914Y1658D01*
X1916Y1658D01*
X1916Y1660D01*
X1918Y1660D01*
X1918Y1662D01*
X1920Y1662D01*
X1920Y1664D01*
X1922Y1664D01*
X1922Y1666D01*
X1924Y1666D01*
X1924Y1668D01*
X1926Y1668D01*
X1926Y1672D01*
X1928Y1672D01*
X1928Y1674D01*
X1930Y1674D01*
X1930Y1676D01*
X1932Y1676D01*
X1932Y1678D01*
X1934Y1678D01*
X1934Y1680D01*
X1936Y1680D01*
X1936Y1682D01*
X1938Y1682D01*
X1938Y1684D01*
X1940Y1684D01*
X1940Y1686D01*
X1942Y1686D01*
X1942Y1688D01*
X1944Y1688D01*
X1944Y1690D01*
X1946Y1690D01*
X1946Y1694D01*
X1948Y1694D01*
X1948Y1696D01*
X1950Y1696D01*
X1950Y1698D01*
X1952Y1698D01*
X1952Y1700D01*
X1954Y1700D01*
X1954Y1702D01*
X1956Y1702D01*
X1956Y1704D01*
X1958Y1704D01*
X1958Y1706D01*
X1960Y1706D01*
X1960Y1708D01*
X1962Y1708D01*
X1962Y1710D01*
X1964Y1710D01*
X1964Y1714D01*
X1966Y1714D01*
X1966Y1716D01*
X1968Y1716D01*
X1968Y1718D01*
X1970Y1718D01*
X1970Y1720D01*
X1972Y1720D01*
X1972Y1722D01*
X1974Y1722D01*
X1974Y1724D01*
X1976Y1724D01*
X1976Y1726D01*
X1978Y1726D01*
X1978Y1728D01*
X1980Y1728D01*
X1980Y1730D01*
X1982Y1730D01*
X1982Y1734D01*
X1984Y1734D01*
X1984Y1736D01*
X1986Y1736D01*
X1986Y1738D01*
X1988Y1738D01*
X1988Y1740D01*
X1990Y1740D01*
X1990Y1742D01*
X1992Y1742D01*
X1992Y1744D01*
X1994Y1744D01*
X1994Y1746D01*
X1996Y1746D01*
X1996Y1748D01*
X1998Y1748D01*
X1998Y1750D01*
X2000Y1750D01*
X2000Y1752D01*
X2002Y1752D01*
X2002Y1756D01*
X2004Y1756D01*
X2004Y1758D01*
X2006Y1758D01*
X2006Y1760D01*
X2008Y1760D01*
X2008Y1762D01*
X2010Y1762D01*
X2010Y1764D01*
X2012Y1764D01*
X2012Y1766D01*
X2014Y1766D01*
X2014Y1768D01*
X1162Y1768D01*
G37*
D02*
G36*
X666Y1678D02*
X666Y1676D01*
X1118Y1676D01*
X1118Y1678D01*
X666Y1678D01*
G37*
D02*
G36*
X666Y1678D02*
X666Y1676D01*
X1118Y1676D01*
X1118Y1678D01*
X666Y1678D01*
G37*
D02*
G36*
X666Y1676D02*
X666Y1648D01*
X1052Y1648D01*
X1052Y1646D01*
X1078Y1646D01*
X1078Y1648D01*
X1080Y1648D01*
X1080Y1650D01*
X1082Y1650D01*
X1082Y1652D01*
X1086Y1652D01*
X1086Y1654D01*
X1088Y1654D01*
X1088Y1656D01*
X1090Y1656D01*
X1090Y1658D01*
X1094Y1658D01*
X1094Y1660D01*
X1096Y1660D01*
X1096Y1662D01*
X1098Y1662D01*
X1098Y1664D01*
X1102Y1664D01*
X1102Y1666D01*
X1104Y1666D01*
X1104Y1668D01*
X1106Y1668D01*
X1106Y1670D01*
X1110Y1670D01*
X1110Y1672D01*
X1112Y1672D01*
X1112Y1674D01*
X1114Y1674D01*
X1114Y1676D01*
X666Y1676D01*
G37*
D02*
G36*
X1162Y1672D02*
X1162Y1668D01*
X1160Y1668D01*
X1160Y1664D01*
X1158Y1664D01*
X1158Y1662D01*
X1156Y1662D01*
X1156Y1660D01*
X1154Y1660D01*
X1154Y1658D01*
X1150Y1658D01*
X1150Y1656D01*
X1148Y1656D01*
X1148Y1654D01*
X1146Y1654D01*
X1146Y1652D01*
X1142Y1652D01*
X1142Y1650D01*
X1140Y1650D01*
X1140Y1648D01*
X1138Y1648D01*
X1138Y1646D01*
X1134Y1646D01*
X1134Y1644D01*
X1132Y1644D01*
X1132Y1642D01*
X1130Y1642D01*
X1130Y1640D01*
X1126Y1640D01*
X1126Y1638D01*
X1124Y1638D01*
X1124Y1636D01*
X1122Y1636D01*
X1122Y1634D01*
X1118Y1634D01*
X1118Y1632D01*
X1116Y1632D01*
X1116Y1630D01*
X1114Y1630D01*
X1114Y1628D01*
X1110Y1628D01*
X1110Y1626D01*
X1108Y1626D01*
X1108Y1624D01*
X1106Y1624D01*
X1106Y1622D01*
X1102Y1622D01*
X1102Y1620D01*
X1100Y1620D01*
X1100Y1618D01*
X1098Y1618D01*
X1098Y1616D01*
X1094Y1616D01*
X1094Y1614D01*
X1092Y1614D01*
X1092Y1592D01*
X1090Y1592D01*
X1090Y1584D01*
X1088Y1584D01*
X1088Y1580D01*
X1086Y1580D01*
X1086Y1578D01*
X1458Y1578D01*
X1458Y1580D01*
X1452Y1580D01*
X1452Y1582D01*
X1448Y1582D01*
X1448Y1584D01*
X1444Y1584D01*
X1444Y1586D01*
X1442Y1586D01*
X1442Y1588D01*
X1438Y1588D01*
X1438Y1590D01*
X1436Y1590D01*
X1436Y1592D01*
X1434Y1592D01*
X1434Y1594D01*
X1432Y1594D01*
X1432Y1598D01*
X1430Y1598D01*
X1430Y1600D01*
X1428Y1600D01*
X1428Y1604D01*
X1426Y1604D01*
X1426Y1608D01*
X1424Y1608D01*
X1424Y1616D01*
X1422Y1616D01*
X1422Y1634D01*
X1424Y1634D01*
X1424Y1642D01*
X1426Y1642D01*
X1426Y1646D01*
X1428Y1646D01*
X1428Y1650D01*
X1430Y1650D01*
X1430Y1652D01*
X1432Y1652D01*
X1432Y1656D01*
X1434Y1656D01*
X1434Y1658D01*
X1436Y1658D01*
X1436Y1660D01*
X1438Y1660D01*
X1438Y1662D01*
X1442Y1662D01*
X1442Y1664D01*
X1444Y1664D01*
X1444Y1666D01*
X1448Y1666D01*
X1448Y1668D01*
X1452Y1668D01*
X1452Y1670D01*
X1458Y1670D01*
X1458Y1672D01*
X1162Y1672D01*
G37*
D02*
G36*
X2206Y1654D02*
X2206Y1650D01*
X2204Y1650D01*
X2204Y1648D01*
X2202Y1648D01*
X2202Y1644D01*
X2200Y1644D01*
X2200Y1642D01*
X2198Y1642D01*
X2198Y1638D01*
X2196Y1638D01*
X2196Y1634D01*
X2194Y1634D01*
X2194Y1632D01*
X2192Y1632D01*
X2192Y1628D01*
X2190Y1628D01*
X2190Y1626D01*
X2286Y1626D01*
X2286Y1628D01*
X2278Y1628D01*
X2278Y1630D01*
X2274Y1630D01*
X2274Y1632D01*
X2270Y1632D01*
X2270Y1634D01*
X2266Y1634D01*
X2266Y1636D01*
X2264Y1636D01*
X2264Y1638D01*
X2262Y1638D01*
X2262Y1640D01*
X2260Y1640D01*
X2260Y1642D01*
X2258Y1642D01*
X2258Y1644D01*
X2256Y1644D01*
X2256Y1646D01*
X2254Y1646D01*
X2254Y1650D01*
X2252Y1650D01*
X2252Y1652D01*
X2250Y1652D01*
X2250Y1654D01*
X2206Y1654D01*
G37*
D02*
G36*
X666Y1648D02*
X666Y1642D01*
X668Y1642D01*
X668Y1640D01*
X672Y1640D01*
X672Y1638D01*
X674Y1638D01*
X674Y1636D01*
X676Y1636D01*
X676Y1634D01*
X678Y1634D01*
X678Y1632D01*
X680Y1632D01*
X680Y1630D01*
X682Y1630D01*
X682Y1628D01*
X684Y1628D01*
X684Y1624D01*
X686Y1624D01*
X686Y1620D01*
X688Y1620D01*
X688Y1616D01*
X690Y1616D01*
X690Y1608D01*
X692Y1608D01*
X692Y1592D01*
X690Y1592D01*
X690Y1584D01*
X688Y1584D01*
X688Y1580D01*
X686Y1580D01*
X686Y1576D01*
X684Y1576D01*
X684Y1572D01*
X682Y1572D01*
X682Y1570D01*
X680Y1570D01*
X680Y1568D01*
X678Y1568D01*
X678Y1566D01*
X676Y1566D01*
X676Y1564D01*
X674Y1564D01*
X674Y1562D01*
X672Y1562D01*
X672Y1560D01*
X668Y1560D01*
X668Y1558D01*
X666Y1558D01*
X666Y1552D01*
X1038Y1552D01*
X1038Y1554D01*
X1030Y1554D01*
X1030Y1556D01*
X1024Y1556D01*
X1024Y1558D01*
X1022Y1558D01*
X1022Y1560D01*
X1018Y1560D01*
X1018Y1562D01*
X1016Y1562D01*
X1016Y1564D01*
X1012Y1564D01*
X1012Y1566D01*
X1010Y1566D01*
X1010Y1568D01*
X1008Y1568D01*
X1008Y1572D01*
X1006Y1572D01*
X1006Y1574D01*
X1004Y1574D01*
X1004Y1578D01*
X1002Y1578D01*
X1002Y1580D01*
X1000Y1580D01*
X1000Y1588D01*
X998Y1588D01*
X998Y1598D01*
X996Y1598D01*
X996Y1602D01*
X998Y1602D01*
X998Y1614D01*
X1000Y1614D01*
X1000Y1620D01*
X1002Y1620D01*
X1002Y1622D01*
X1004Y1622D01*
X1004Y1626D01*
X1006Y1626D01*
X1006Y1628D01*
X1008Y1628D01*
X1008Y1632D01*
X1010Y1632D01*
X1010Y1634D01*
X1012Y1634D01*
X1012Y1636D01*
X1014Y1636D01*
X1014Y1638D01*
X1018Y1638D01*
X1018Y1640D01*
X1020Y1640D01*
X1020Y1642D01*
X1024Y1642D01*
X1024Y1644D01*
X1030Y1644D01*
X1030Y1646D01*
X1038Y1646D01*
X1038Y1648D01*
X666Y1648D01*
G37*
D02*
G36*
X2188Y1626D02*
X2188Y1624D01*
X2478Y1624D01*
X2478Y1626D01*
X2188Y1626D01*
G37*
D02*
G36*
X2188Y1626D02*
X2188Y1624D01*
X2478Y1624D01*
X2478Y1626D01*
X2188Y1626D01*
G37*
D02*
G36*
X2188Y1624D02*
X2188Y1622D01*
X2186Y1622D01*
X2186Y1620D01*
X2184Y1620D01*
X2184Y1616D01*
X2182Y1616D01*
X2182Y1612D01*
X2180Y1612D01*
X2180Y1610D01*
X2178Y1610D01*
X2178Y1606D01*
X2176Y1606D01*
X2176Y1604D01*
X2174Y1604D01*
X2174Y1600D01*
X2172Y1600D01*
X2172Y1596D01*
X2170Y1596D01*
X2170Y1594D01*
X2168Y1594D01*
X2168Y1590D01*
X2166Y1590D01*
X2166Y1588D01*
X2164Y1588D01*
X2164Y1584D01*
X2162Y1584D01*
X2162Y1580D01*
X2160Y1580D01*
X2160Y1578D01*
X2158Y1578D01*
X2158Y1574D01*
X2156Y1574D01*
X2156Y1572D01*
X2154Y1572D01*
X2154Y1568D01*
X2152Y1568D01*
X2152Y1564D01*
X2150Y1564D01*
X2150Y1562D01*
X2148Y1562D01*
X2148Y1558D01*
X2146Y1558D01*
X2146Y1556D01*
X2144Y1556D01*
X2144Y1552D01*
X2142Y1552D01*
X2142Y1550D01*
X2140Y1550D01*
X2140Y1546D01*
X2138Y1546D01*
X2138Y1542D01*
X2136Y1542D01*
X2136Y1540D01*
X2134Y1540D01*
X2134Y1536D01*
X2132Y1536D01*
X2132Y1534D01*
X2130Y1534D01*
X2130Y1530D01*
X2128Y1530D01*
X2128Y1526D01*
X2126Y1526D01*
X2126Y1524D01*
X2124Y1524D01*
X2124Y1520D01*
X2122Y1520D01*
X2122Y1518D01*
X2120Y1518D01*
X2120Y1514D01*
X2118Y1514D01*
X2118Y1510D01*
X2116Y1510D01*
X2116Y1508D01*
X2114Y1508D01*
X2114Y1504D01*
X2112Y1504D01*
X2112Y1502D01*
X2110Y1502D01*
X2110Y1500D01*
X2296Y1500D01*
X2296Y1498D01*
X2308Y1498D01*
X2308Y1496D01*
X2314Y1496D01*
X2314Y1494D01*
X2318Y1494D01*
X2318Y1492D01*
X2322Y1492D01*
X2322Y1490D01*
X2324Y1490D01*
X2324Y1488D01*
X2326Y1488D01*
X2326Y1486D01*
X2328Y1486D01*
X2328Y1484D01*
X2330Y1484D01*
X2330Y1482D01*
X2332Y1482D01*
X2332Y1480D01*
X2334Y1480D01*
X2334Y1478D01*
X2336Y1478D01*
X2336Y1474D01*
X2338Y1474D01*
X2338Y1470D01*
X2340Y1470D01*
X2340Y1464D01*
X2342Y1464D01*
X2342Y1456D01*
X2344Y1456D01*
X2344Y1444D01*
X2342Y1444D01*
X2342Y1436D01*
X2340Y1436D01*
X2340Y1430D01*
X2338Y1430D01*
X2338Y1426D01*
X2336Y1426D01*
X2336Y1422D01*
X2334Y1422D01*
X2334Y1420D01*
X2332Y1420D01*
X2332Y1418D01*
X2330Y1418D01*
X2330Y1416D01*
X2328Y1416D01*
X2328Y1414D01*
X2326Y1414D01*
X2326Y1412D01*
X2324Y1412D01*
X2324Y1410D01*
X2322Y1410D01*
X2322Y1390D01*
X2324Y1390D01*
X2324Y1388D01*
X2326Y1388D01*
X2326Y1386D01*
X2328Y1386D01*
X2328Y1384D01*
X2330Y1384D01*
X2330Y1382D01*
X2332Y1382D01*
X2332Y1380D01*
X2334Y1380D01*
X2334Y1378D01*
X2336Y1378D01*
X2336Y1374D01*
X2338Y1374D01*
X2338Y1370D01*
X2340Y1370D01*
X2340Y1364D01*
X2342Y1364D01*
X2342Y1356D01*
X2344Y1356D01*
X2344Y1344D01*
X2342Y1344D01*
X2342Y1336D01*
X2340Y1336D01*
X2340Y1330D01*
X2338Y1330D01*
X2338Y1326D01*
X2336Y1326D01*
X2336Y1322D01*
X2334Y1322D01*
X2334Y1320D01*
X2332Y1320D01*
X2332Y1318D01*
X2330Y1318D01*
X2330Y1316D01*
X2328Y1316D01*
X2328Y1314D01*
X2326Y1314D01*
X2326Y1312D01*
X2324Y1312D01*
X2324Y1310D01*
X2322Y1310D01*
X2322Y1290D01*
X2324Y1290D01*
X2324Y1288D01*
X2326Y1288D01*
X2326Y1286D01*
X2328Y1286D01*
X2328Y1284D01*
X2330Y1284D01*
X2330Y1282D01*
X2332Y1282D01*
X2332Y1280D01*
X2334Y1280D01*
X2334Y1278D01*
X2336Y1278D01*
X2336Y1274D01*
X2338Y1274D01*
X2338Y1270D01*
X2340Y1270D01*
X2340Y1264D01*
X2342Y1264D01*
X2342Y1256D01*
X2344Y1256D01*
X2344Y1244D01*
X2342Y1244D01*
X2342Y1236D01*
X2340Y1236D01*
X2340Y1230D01*
X2338Y1230D01*
X2338Y1226D01*
X2336Y1226D01*
X2336Y1222D01*
X2334Y1222D01*
X2334Y1220D01*
X2332Y1220D01*
X2332Y1218D01*
X2330Y1218D01*
X2330Y1216D01*
X2328Y1216D01*
X2328Y1214D01*
X2326Y1214D01*
X2326Y1212D01*
X2324Y1212D01*
X2324Y1210D01*
X2322Y1210D01*
X2322Y1190D01*
X2324Y1190D01*
X2324Y1188D01*
X2326Y1188D01*
X2326Y1186D01*
X2328Y1186D01*
X2328Y1184D01*
X2330Y1184D01*
X2330Y1182D01*
X2332Y1182D01*
X2332Y1180D01*
X2334Y1180D01*
X2334Y1178D01*
X2336Y1178D01*
X2336Y1174D01*
X2338Y1174D01*
X2338Y1170D01*
X2340Y1170D01*
X2340Y1164D01*
X2342Y1164D01*
X2342Y1156D01*
X2344Y1156D01*
X2344Y1144D01*
X2342Y1144D01*
X2342Y1136D01*
X2340Y1136D01*
X2340Y1130D01*
X2338Y1130D01*
X2338Y1126D01*
X2336Y1126D01*
X2336Y1122D01*
X2334Y1122D01*
X2334Y1120D01*
X2332Y1120D01*
X2332Y1118D01*
X2330Y1118D01*
X2330Y1116D01*
X2328Y1116D01*
X2328Y1114D01*
X2326Y1114D01*
X2326Y1112D01*
X2324Y1112D01*
X2324Y1110D01*
X2320Y1110D01*
X2320Y1108D01*
X2318Y1108D01*
X2318Y1106D01*
X2314Y1106D01*
X2314Y1104D01*
X2306Y1104D01*
X2306Y1102D01*
X2478Y1102D01*
X2478Y1624D01*
X2188Y1624D01*
G37*
D02*
G36*
X1086Y1578D02*
X1086Y1576D01*
X1842Y1576D01*
X1842Y1578D01*
X1086Y1578D01*
G37*
D02*
G36*
X1086Y1578D02*
X1086Y1576D01*
X1842Y1576D01*
X1842Y1578D01*
X1086Y1578D01*
G37*
D02*
G36*
X1084Y1576D02*
X1084Y1572D01*
X1082Y1572D01*
X1082Y1570D01*
X1080Y1570D01*
X1080Y1568D01*
X1078Y1568D01*
X1078Y1566D01*
X1076Y1566D01*
X1076Y1564D01*
X1074Y1564D01*
X1074Y1562D01*
X1072Y1562D01*
X1072Y1560D01*
X1068Y1560D01*
X1068Y1558D01*
X1064Y1558D01*
X1064Y1556D01*
X1058Y1556D01*
X1058Y1554D01*
X1050Y1554D01*
X1050Y1552D01*
X1810Y1552D01*
X1810Y1554D01*
X1822Y1554D01*
X1822Y1556D01*
X1824Y1556D01*
X1824Y1558D01*
X1826Y1558D01*
X1826Y1560D01*
X1828Y1560D01*
X1828Y1562D01*
X1830Y1562D01*
X1830Y1564D01*
X1832Y1564D01*
X1832Y1568D01*
X1834Y1568D01*
X1834Y1570D01*
X1836Y1570D01*
X1836Y1572D01*
X1838Y1572D01*
X1838Y1574D01*
X1840Y1574D01*
X1840Y1576D01*
X1084Y1576D01*
G37*
D02*
G36*
X666Y1552D02*
X666Y1550D01*
X1806Y1550D01*
X1806Y1552D01*
X666Y1552D01*
G37*
D02*
G36*
X666Y1552D02*
X666Y1550D01*
X1806Y1550D01*
X1806Y1552D01*
X666Y1552D01*
G37*
D02*
G36*
X666Y1550D02*
X666Y1532D01*
X668Y1532D01*
X668Y1524D01*
X666Y1524D01*
X666Y1522D01*
X1556Y1522D01*
X1556Y1520D01*
X1562Y1520D01*
X1562Y1518D01*
X1566Y1518D01*
X1566Y1516D01*
X1570Y1516D01*
X1570Y1514D01*
X1572Y1514D01*
X1572Y1512D01*
X1576Y1512D01*
X1576Y1510D01*
X1578Y1510D01*
X1578Y1508D01*
X1580Y1508D01*
X1580Y1504D01*
X1582Y1504D01*
X1582Y1502D01*
X1584Y1502D01*
X1584Y1500D01*
X1586Y1500D01*
X1586Y1498D01*
X1790Y1498D01*
X1790Y1534D01*
X1792Y1534D01*
X1792Y1538D01*
X1794Y1538D01*
X1794Y1542D01*
X1796Y1542D01*
X1796Y1544D01*
X1798Y1544D01*
X1798Y1546D01*
X1800Y1546D01*
X1800Y1548D01*
X1802Y1548D01*
X1802Y1550D01*
X666Y1550D01*
G37*
D02*
G36*
X666Y1522D02*
X666Y1516D01*
X664Y1516D01*
X664Y1512D01*
X662Y1512D01*
X662Y1510D01*
X660Y1510D01*
X660Y1508D01*
X658Y1508D01*
X658Y1506D01*
X656Y1506D01*
X656Y1504D01*
X654Y1504D01*
X654Y1502D01*
X652Y1502D01*
X652Y1500D01*
X650Y1500D01*
X650Y1498D01*
X648Y1498D01*
X648Y1496D01*
X646Y1496D01*
X646Y1494D01*
X644Y1494D01*
X644Y1492D01*
X642Y1492D01*
X642Y1490D01*
X640Y1490D01*
X640Y1488D01*
X638Y1488D01*
X638Y1486D01*
X636Y1486D01*
X636Y1484D01*
X634Y1484D01*
X634Y1482D01*
X632Y1482D01*
X632Y1480D01*
X630Y1480D01*
X630Y1478D01*
X628Y1478D01*
X628Y1476D01*
X626Y1476D01*
X626Y1474D01*
X624Y1474D01*
X624Y1472D01*
X622Y1472D01*
X622Y1470D01*
X620Y1470D01*
X620Y1468D01*
X618Y1468D01*
X618Y1466D01*
X616Y1466D01*
X616Y1464D01*
X614Y1464D01*
X614Y1462D01*
X612Y1462D01*
X612Y1460D01*
X610Y1460D01*
X610Y1458D01*
X608Y1458D01*
X608Y1456D01*
X604Y1456D01*
X604Y1454D01*
X600Y1454D01*
X600Y1452D01*
X428Y1452D01*
X428Y1450D01*
X426Y1450D01*
X426Y1448D01*
X424Y1448D01*
X424Y1446D01*
X422Y1446D01*
X422Y1444D01*
X420Y1444D01*
X420Y1442D01*
X418Y1442D01*
X418Y1440D01*
X414Y1440D01*
X414Y1438D01*
X412Y1438D01*
X412Y1436D01*
X410Y1436D01*
X410Y1434D01*
X408Y1434D01*
X408Y1432D01*
X406Y1432D01*
X406Y1430D01*
X404Y1430D01*
X404Y1428D01*
X1134Y1428D01*
X1134Y1430D01*
X1128Y1430D01*
X1128Y1432D01*
X1122Y1432D01*
X1122Y1434D01*
X1120Y1434D01*
X1120Y1436D01*
X1116Y1436D01*
X1116Y1438D01*
X1114Y1438D01*
X1114Y1440D01*
X1112Y1440D01*
X1112Y1442D01*
X1110Y1442D01*
X1110Y1444D01*
X1108Y1444D01*
X1108Y1446D01*
X1106Y1446D01*
X1106Y1448D01*
X1104Y1448D01*
X1104Y1452D01*
X1102Y1452D01*
X1102Y1456D01*
X1100Y1456D01*
X1100Y1462D01*
X1098Y1462D01*
X1098Y1474D01*
X1096Y1474D01*
X1096Y1478D01*
X1098Y1478D01*
X1098Y1488D01*
X1100Y1488D01*
X1100Y1494D01*
X1102Y1494D01*
X1102Y1498D01*
X1104Y1498D01*
X1104Y1502D01*
X1106Y1502D01*
X1106Y1504D01*
X1108Y1504D01*
X1108Y1506D01*
X1110Y1506D01*
X1110Y1508D01*
X1112Y1508D01*
X1112Y1510D01*
X1114Y1510D01*
X1114Y1512D01*
X1116Y1512D01*
X1116Y1514D01*
X1118Y1514D01*
X1118Y1516D01*
X1122Y1516D01*
X1122Y1518D01*
X1126Y1518D01*
X1126Y1520D01*
X1134Y1520D01*
X1134Y1522D01*
X666Y1522D01*
G37*
D02*
G36*
X1156Y1522D02*
X1156Y1520D01*
X1162Y1520D01*
X1162Y1518D01*
X1166Y1518D01*
X1166Y1516D01*
X1170Y1516D01*
X1170Y1514D01*
X1172Y1514D01*
X1172Y1512D01*
X1176Y1512D01*
X1176Y1510D01*
X1178Y1510D01*
X1178Y1508D01*
X1180Y1508D01*
X1180Y1504D01*
X1182Y1504D01*
X1182Y1502D01*
X1184Y1502D01*
X1184Y1500D01*
X1186Y1500D01*
X1186Y1496D01*
X1188Y1496D01*
X1188Y1490D01*
X1190Y1490D01*
X1190Y1484D01*
X1192Y1484D01*
X1192Y1466D01*
X1190Y1466D01*
X1190Y1460D01*
X1188Y1460D01*
X1188Y1454D01*
X1186Y1454D01*
X1186Y1450D01*
X1184Y1450D01*
X1184Y1448D01*
X1182Y1448D01*
X1182Y1446D01*
X1180Y1446D01*
X1180Y1442D01*
X1178Y1442D01*
X1178Y1440D01*
X1174Y1440D01*
X1174Y1438D01*
X1172Y1438D01*
X1172Y1436D01*
X1170Y1436D01*
X1170Y1434D01*
X1166Y1434D01*
X1166Y1432D01*
X1162Y1432D01*
X1162Y1430D01*
X1156Y1430D01*
X1156Y1428D01*
X1534Y1428D01*
X1534Y1430D01*
X1528Y1430D01*
X1528Y1432D01*
X1522Y1432D01*
X1522Y1434D01*
X1520Y1434D01*
X1520Y1436D01*
X1516Y1436D01*
X1516Y1438D01*
X1514Y1438D01*
X1514Y1440D01*
X1512Y1440D01*
X1512Y1442D01*
X1510Y1442D01*
X1510Y1444D01*
X1508Y1444D01*
X1508Y1446D01*
X1506Y1446D01*
X1506Y1448D01*
X1504Y1448D01*
X1504Y1452D01*
X1502Y1452D01*
X1502Y1456D01*
X1500Y1456D01*
X1500Y1462D01*
X1498Y1462D01*
X1498Y1472D01*
X1496Y1472D01*
X1496Y1478D01*
X1498Y1478D01*
X1498Y1488D01*
X1500Y1488D01*
X1500Y1494D01*
X1502Y1494D01*
X1502Y1498D01*
X1504Y1498D01*
X1504Y1502D01*
X1506Y1502D01*
X1506Y1504D01*
X1508Y1504D01*
X1508Y1506D01*
X1510Y1506D01*
X1510Y1508D01*
X1512Y1508D01*
X1512Y1510D01*
X1514Y1510D01*
X1514Y1512D01*
X1516Y1512D01*
X1516Y1514D01*
X1518Y1514D01*
X1518Y1516D01*
X1522Y1516D01*
X1522Y1518D01*
X1526Y1518D01*
X1526Y1520D01*
X1534Y1520D01*
X1534Y1522D01*
X1156Y1522D01*
G37*
D02*
G36*
X2110Y1500D02*
X2110Y1498D01*
X2108Y1498D01*
X2108Y1494D01*
X2106Y1494D01*
X2106Y1492D01*
X2104Y1492D01*
X2104Y1488D01*
X2102Y1488D01*
X2102Y1486D01*
X2100Y1486D01*
X2100Y1482D01*
X2098Y1482D01*
X2098Y1480D01*
X2096Y1480D01*
X2096Y1476D01*
X2094Y1476D01*
X2094Y1472D01*
X2092Y1472D01*
X2092Y1470D01*
X2090Y1470D01*
X2090Y1466D01*
X2088Y1466D01*
X2088Y1464D01*
X2086Y1464D01*
X2086Y1460D01*
X2084Y1460D01*
X2084Y1458D01*
X2080Y1458D01*
X2080Y1456D01*
X2076Y1456D01*
X2076Y1454D01*
X1586Y1454D01*
X1586Y1450D01*
X1584Y1450D01*
X1584Y1448D01*
X1582Y1448D01*
X1582Y1446D01*
X1580Y1446D01*
X1580Y1442D01*
X1578Y1442D01*
X1578Y1440D01*
X1574Y1440D01*
X1574Y1438D01*
X1572Y1438D01*
X1572Y1436D01*
X1570Y1436D01*
X1570Y1434D01*
X1566Y1434D01*
X1566Y1432D01*
X1562Y1432D01*
X1562Y1430D01*
X1556Y1430D01*
X1556Y1428D01*
X2154Y1428D01*
X2154Y1430D01*
X2156Y1430D01*
X2156Y1432D01*
X2158Y1432D01*
X2158Y1436D01*
X2160Y1436D01*
X2160Y1440D01*
X2162Y1440D01*
X2162Y1442D01*
X2164Y1442D01*
X2164Y1446D01*
X2166Y1446D01*
X2166Y1448D01*
X2168Y1448D01*
X2168Y1452D01*
X2170Y1452D01*
X2170Y1456D01*
X2172Y1456D01*
X2172Y1458D01*
X2174Y1458D01*
X2174Y1462D01*
X2176Y1462D01*
X2176Y1464D01*
X2178Y1464D01*
X2178Y1466D01*
X2180Y1466D01*
X2180Y1468D01*
X2182Y1468D01*
X2182Y1470D01*
X2188Y1470D01*
X2188Y1472D01*
X2252Y1472D01*
X2252Y1476D01*
X2254Y1476D01*
X2254Y1478D01*
X2256Y1478D01*
X2256Y1482D01*
X2258Y1482D01*
X2258Y1484D01*
X2260Y1484D01*
X2260Y1486D01*
X2262Y1486D01*
X2262Y1488D01*
X2264Y1488D01*
X2264Y1490D01*
X2268Y1490D01*
X2268Y1492D01*
X2272Y1492D01*
X2272Y1494D01*
X2274Y1494D01*
X2274Y1496D01*
X2282Y1496D01*
X2282Y1498D01*
X2292Y1498D01*
X2292Y1500D01*
X2110Y1500D01*
G37*
D02*
G36*
X402Y1428D02*
X402Y1426D01*
X2154Y1426D01*
X2154Y1428D01*
X402Y1428D01*
G37*
D02*
G36*
X402Y1428D02*
X402Y1426D01*
X2154Y1426D01*
X2154Y1428D01*
X402Y1428D01*
G37*
D02*
G36*
X402Y1428D02*
X402Y1426D01*
X2154Y1426D01*
X2154Y1428D01*
X402Y1428D01*
G37*
D02*
G36*
X2206Y1428D02*
X2206Y1426D01*
X2204Y1426D01*
X2204Y1424D01*
X2202Y1424D01*
X2202Y1420D01*
X2200Y1420D01*
X2200Y1418D01*
X2198Y1418D01*
X2198Y1414D01*
X2196Y1414D01*
X2196Y1410D01*
X2194Y1410D01*
X2194Y1408D01*
X2192Y1408D01*
X2192Y1404D01*
X2190Y1404D01*
X2190Y1400D01*
X2188Y1400D01*
X2188Y1398D01*
X2186Y1398D01*
X2186Y1394D01*
X2184Y1394D01*
X2184Y1392D01*
X2182Y1392D01*
X2182Y1388D01*
X2180Y1388D01*
X2180Y1384D01*
X2178Y1384D01*
X2178Y1382D01*
X2176Y1382D01*
X2176Y1378D01*
X2174Y1378D01*
X2174Y1376D01*
X2172Y1376D01*
X2172Y1372D01*
X2170Y1372D01*
X2170Y1368D01*
X2168Y1368D01*
X2168Y1366D01*
X2166Y1366D01*
X2166Y1362D01*
X2164Y1362D01*
X2164Y1360D01*
X2162Y1360D01*
X2162Y1356D01*
X2160Y1356D01*
X2160Y1352D01*
X2158Y1352D01*
X2158Y1350D01*
X2156Y1350D01*
X2156Y1346D01*
X2154Y1346D01*
X2154Y1344D01*
X2152Y1344D01*
X2152Y1340D01*
X2150Y1340D01*
X2150Y1336D01*
X2148Y1336D01*
X2148Y1334D01*
X2146Y1334D01*
X2146Y1330D01*
X2144Y1330D01*
X2144Y1328D01*
X2142Y1328D01*
X2142Y1324D01*
X2140Y1324D01*
X2140Y1320D01*
X2138Y1320D01*
X2138Y1318D01*
X2136Y1318D01*
X2136Y1314D01*
X2134Y1314D01*
X2134Y1312D01*
X2132Y1312D01*
X2132Y1308D01*
X2130Y1308D01*
X2130Y1304D01*
X2128Y1304D01*
X2128Y1302D01*
X2126Y1302D01*
X2126Y1298D01*
X2124Y1298D01*
X2124Y1294D01*
X2122Y1294D01*
X2122Y1292D01*
X2120Y1292D01*
X2120Y1288D01*
X2118Y1288D01*
X2118Y1286D01*
X2116Y1286D01*
X2116Y1282D01*
X2114Y1282D01*
X2114Y1278D01*
X2112Y1278D01*
X2112Y1276D01*
X2110Y1276D01*
X2110Y1272D01*
X2108Y1272D01*
X2108Y1270D01*
X2106Y1270D01*
X2106Y1266D01*
X2104Y1266D01*
X2104Y1262D01*
X2102Y1262D01*
X2102Y1260D01*
X2100Y1260D01*
X2100Y1256D01*
X2098Y1256D01*
X2098Y1254D01*
X2096Y1254D01*
X2096Y1250D01*
X2094Y1250D01*
X2094Y1246D01*
X2092Y1246D01*
X2092Y1244D01*
X2090Y1244D01*
X2090Y1240D01*
X2088Y1240D01*
X2088Y1238D01*
X2086Y1238D01*
X2086Y1234D01*
X2084Y1234D01*
X2084Y1232D01*
X2080Y1232D01*
X2080Y1230D01*
X2076Y1230D01*
X2076Y1228D01*
X1102Y1228D01*
X1102Y1208D01*
X1104Y1208D01*
X1104Y1206D01*
X1106Y1206D01*
X1106Y1204D01*
X1108Y1204D01*
X1108Y1202D01*
X1110Y1202D01*
X1110Y1198D01*
X1112Y1198D01*
X1112Y1194D01*
X1114Y1194D01*
X1114Y1188D01*
X1116Y1188D01*
X1116Y1162D01*
X1114Y1162D01*
X1114Y1156D01*
X1112Y1156D01*
X1112Y1152D01*
X1110Y1152D01*
X1110Y1150D01*
X1108Y1150D01*
X1108Y1146D01*
X1106Y1146D01*
X1106Y1144D01*
X1104Y1144D01*
X1104Y1142D01*
X1102Y1142D01*
X1102Y1140D01*
X1100Y1140D01*
X1100Y1138D01*
X1098Y1138D01*
X1098Y1136D01*
X1094Y1136D01*
X1094Y1134D01*
X1090Y1134D01*
X1090Y1132D01*
X1086Y1132D01*
X1086Y1130D01*
X1080Y1130D01*
X1080Y1128D01*
X2250Y1128D01*
X2250Y1132D01*
X2248Y1132D01*
X2248Y1138D01*
X2246Y1138D01*
X2246Y1162D01*
X2248Y1162D01*
X2248Y1168D01*
X2250Y1168D01*
X2250Y1172D01*
X2252Y1172D01*
X2252Y1176D01*
X2254Y1176D01*
X2254Y1178D01*
X2256Y1178D01*
X2256Y1182D01*
X2258Y1182D01*
X2258Y1184D01*
X2260Y1184D01*
X2260Y1186D01*
X2262Y1186D01*
X2262Y1188D01*
X2264Y1188D01*
X2264Y1190D01*
X2268Y1190D01*
X2268Y1210D01*
X2266Y1210D01*
X2266Y1212D01*
X2262Y1212D01*
X2262Y1214D01*
X2260Y1214D01*
X2260Y1216D01*
X2258Y1216D01*
X2258Y1218D01*
X2256Y1218D01*
X2256Y1222D01*
X2254Y1222D01*
X2254Y1224D01*
X2252Y1224D01*
X2252Y1228D01*
X2250Y1228D01*
X2250Y1232D01*
X2248Y1232D01*
X2248Y1238D01*
X2246Y1238D01*
X2246Y1262D01*
X2248Y1262D01*
X2248Y1268D01*
X2250Y1268D01*
X2250Y1272D01*
X2252Y1272D01*
X2252Y1276D01*
X2254Y1276D01*
X2254Y1278D01*
X2256Y1278D01*
X2256Y1282D01*
X2258Y1282D01*
X2258Y1284D01*
X2260Y1284D01*
X2260Y1286D01*
X2262Y1286D01*
X2262Y1288D01*
X2264Y1288D01*
X2264Y1290D01*
X2268Y1290D01*
X2268Y1310D01*
X2266Y1310D01*
X2266Y1312D01*
X2262Y1312D01*
X2262Y1314D01*
X2260Y1314D01*
X2260Y1316D01*
X2258Y1316D01*
X2258Y1318D01*
X2256Y1318D01*
X2256Y1322D01*
X2254Y1322D01*
X2254Y1324D01*
X2252Y1324D01*
X2252Y1328D01*
X2250Y1328D01*
X2250Y1332D01*
X2248Y1332D01*
X2248Y1338D01*
X2246Y1338D01*
X2246Y1362D01*
X2248Y1362D01*
X2248Y1368D01*
X2250Y1368D01*
X2250Y1372D01*
X2252Y1372D01*
X2252Y1376D01*
X2254Y1376D01*
X2254Y1378D01*
X2256Y1378D01*
X2256Y1382D01*
X2258Y1382D01*
X2258Y1384D01*
X2260Y1384D01*
X2260Y1386D01*
X2262Y1386D01*
X2262Y1388D01*
X2264Y1388D01*
X2264Y1390D01*
X2268Y1390D01*
X2268Y1410D01*
X2266Y1410D01*
X2266Y1412D01*
X2262Y1412D01*
X2262Y1414D01*
X2260Y1414D01*
X2260Y1416D01*
X2258Y1416D01*
X2258Y1418D01*
X2256Y1418D01*
X2256Y1422D01*
X2254Y1422D01*
X2254Y1424D01*
X2252Y1424D01*
X2252Y1428D01*
X2206Y1428D01*
G37*
D02*
G36*
X400Y1426D02*
X400Y1424D01*
X398Y1424D01*
X398Y1422D01*
X396Y1422D01*
X396Y1420D01*
X394Y1420D01*
X394Y1418D01*
X392Y1418D01*
X392Y1392D01*
X1770Y1392D01*
X1770Y1390D01*
X1782Y1390D01*
X1782Y1388D01*
X1786Y1388D01*
X1786Y1386D01*
X1790Y1386D01*
X1790Y1384D01*
X1794Y1384D01*
X1794Y1382D01*
X1796Y1382D01*
X1796Y1380D01*
X1798Y1380D01*
X1798Y1378D01*
X1800Y1378D01*
X1800Y1376D01*
X1802Y1376D01*
X1802Y1374D01*
X1804Y1374D01*
X1804Y1370D01*
X1806Y1370D01*
X1806Y1366D01*
X1808Y1366D01*
X1808Y1360D01*
X1810Y1360D01*
X1810Y1340D01*
X1808Y1340D01*
X1808Y1334D01*
X1806Y1334D01*
X1806Y1330D01*
X1804Y1330D01*
X1804Y1326D01*
X1802Y1326D01*
X1802Y1324D01*
X1800Y1324D01*
X1800Y1322D01*
X1798Y1322D01*
X1798Y1320D01*
X1796Y1320D01*
X1796Y1318D01*
X1794Y1318D01*
X1794Y1316D01*
X1790Y1316D01*
X1790Y1314D01*
X1786Y1314D01*
X1786Y1312D01*
X1780Y1312D01*
X1780Y1310D01*
X2082Y1310D01*
X2082Y1314D01*
X2084Y1314D01*
X2084Y1318D01*
X2086Y1318D01*
X2086Y1320D01*
X2088Y1320D01*
X2088Y1324D01*
X2090Y1324D01*
X2090Y1326D01*
X2092Y1326D01*
X2092Y1330D01*
X2094Y1330D01*
X2094Y1334D01*
X2096Y1334D01*
X2096Y1336D01*
X2098Y1336D01*
X2098Y1340D01*
X2100Y1340D01*
X2100Y1342D01*
X2102Y1342D01*
X2102Y1346D01*
X2104Y1346D01*
X2104Y1350D01*
X2106Y1350D01*
X2106Y1352D01*
X2108Y1352D01*
X2108Y1356D01*
X2110Y1356D01*
X2110Y1358D01*
X2112Y1358D01*
X2112Y1362D01*
X2114Y1362D01*
X2114Y1366D01*
X2116Y1366D01*
X2116Y1368D01*
X2118Y1368D01*
X2118Y1372D01*
X2120Y1372D01*
X2120Y1374D01*
X2122Y1374D01*
X2122Y1378D01*
X2124Y1378D01*
X2124Y1382D01*
X2126Y1382D01*
X2126Y1384D01*
X2128Y1384D01*
X2128Y1388D01*
X2130Y1388D01*
X2130Y1392D01*
X2132Y1392D01*
X2132Y1394D01*
X2134Y1394D01*
X2134Y1398D01*
X2136Y1398D01*
X2136Y1400D01*
X2138Y1400D01*
X2138Y1404D01*
X2140Y1404D01*
X2140Y1408D01*
X2142Y1408D01*
X2142Y1410D01*
X2144Y1410D01*
X2144Y1414D01*
X2146Y1414D01*
X2146Y1416D01*
X2148Y1416D01*
X2148Y1420D01*
X2150Y1420D01*
X2150Y1424D01*
X2152Y1424D01*
X2152Y1426D01*
X400Y1426D01*
G37*
D02*
G36*
X40Y1392D02*
X40Y1310D01*
X258Y1310D01*
X258Y1312D01*
X252Y1312D01*
X252Y1314D01*
X248Y1314D01*
X248Y1316D01*
X246Y1316D01*
X246Y1318D01*
X242Y1318D01*
X242Y1320D01*
X240Y1320D01*
X240Y1322D01*
X238Y1322D01*
X238Y1326D01*
X236Y1326D01*
X236Y1328D01*
X234Y1328D01*
X234Y1332D01*
X232Y1332D01*
X232Y1336D01*
X230Y1336D01*
X230Y1344D01*
X228Y1344D01*
X228Y1356D01*
X230Y1356D01*
X230Y1364D01*
X232Y1364D01*
X232Y1368D01*
X234Y1368D01*
X234Y1372D01*
X236Y1372D01*
X236Y1374D01*
X238Y1374D01*
X238Y1378D01*
X240Y1378D01*
X240Y1380D01*
X242Y1380D01*
X242Y1382D01*
X246Y1382D01*
X246Y1384D01*
X248Y1384D01*
X248Y1386D01*
X252Y1386D01*
X252Y1388D01*
X258Y1388D01*
X258Y1390D01*
X268Y1390D01*
X268Y1392D01*
X40Y1392D01*
G37*
D02*
G36*
X392Y1392D02*
X392Y1384D01*
X394Y1384D01*
X394Y1382D01*
X396Y1382D01*
X396Y1380D01*
X398Y1380D01*
X398Y1378D01*
X400Y1378D01*
X400Y1376D01*
X402Y1376D01*
X402Y1374D01*
X404Y1374D01*
X404Y1370D01*
X406Y1370D01*
X406Y1366D01*
X408Y1366D01*
X408Y1360D01*
X410Y1360D01*
X410Y1356D01*
X430Y1356D01*
X430Y1364D01*
X432Y1364D01*
X432Y1368D01*
X434Y1368D01*
X434Y1372D01*
X436Y1372D01*
X436Y1374D01*
X438Y1374D01*
X438Y1378D01*
X440Y1378D01*
X440Y1380D01*
X442Y1380D01*
X442Y1382D01*
X446Y1382D01*
X446Y1384D01*
X448Y1384D01*
X448Y1386D01*
X452Y1386D01*
X452Y1388D01*
X458Y1388D01*
X458Y1390D01*
X468Y1390D01*
X468Y1392D01*
X392Y1392D01*
G37*
D02*
G36*
X470Y1392D02*
X470Y1390D01*
X482Y1390D01*
X482Y1388D01*
X486Y1388D01*
X486Y1386D01*
X490Y1386D01*
X490Y1384D01*
X494Y1384D01*
X494Y1382D01*
X496Y1382D01*
X496Y1380D01*
X498Y1380D01*
X498Y1378D01*
X500Y1378D01*
X500Y1376D01*
X502Y1376D01*
X502Y1374D01*
X504Y1374D01*
X504Y1370D01*
X506Y1370D01*
X506Y1366D01*
X508Y1366D01*
X508Y1360D01*
X510Y1360D01*
X510Y1356D01*
X530Y1356D01*
X530Y1364D01*
X532Y1364D01*
X532Y1368D01*
X534Y1368D01*
X534Y1372D01*
X536Y1372D01*
X536Y1374D01*
X538Y1374D01*
X538Y1378D01*
X540Y1378D01*
X540Y1380D01*
X542Y1380D01*
X542Y1382D01*
X546Y1382D01*
X546Y1384D01*
X548Y1384D01*
X548Y1386D01*
X552Y1386D01*
X552Y1388D01*
X558Y1388D01*
X558Y1390D01*
X568Y1390D01*
X568Y1392D01*
X470Y1392D01*
G37*
D02*
G36*
X570Y1392D02*
X570Y1390D01*
X582Y1390D01*
X582Y1388D01*
X586Y1388D01*
X586Y1386D01*
X590Y1386D01*
X590Y1384D01*
X594Y1384D01*
X594Y1382D01*
X596Y1382D01*
X596Y1380D01*
X598Y1380D01*
X598Y1378D01*
X600Y1378D01*
X600Y1376D01*
X602Y1376D01*
X602Y1374D01*
X604Y1374D01*
X604Y1370D01*
X606Y1370D01*
X606Y1366D01*
X608Y1366D01*
X608Y1360D01*
X610Y1360D01*
X610Y1356D01*
X630Y1356D01*
X630Y1364D01*
X632Y1364D01*
X632Y1368D01*
X634Y1368D01*
X634Y1372D01*
X636Y1372D01*
X636Y1374D01*
X638Y1374D01*
X638Y1378D01*
X640Y1378D01*
X640Y1380D01*
X642Y1380D01*
X642Y1382D01*
X646Y1382D01*
X646Y1384D01*
X648Y1384D01*
X648Y1386D01*
X652Y1386D01*
X652Y1388D01*
X658Y1388D01*
X658Y1390D01*
X668Y1390D01*
X668Y1392D01*
X570Y1392D01*
G37*
D02*
G36*
X670Y1392D02*
X670Y1390D01*
X682Y1390D01*
X682Y1388D01*
X686Y1388D01*
X686Y1386D01*
X690Y1386D01*
X690Y1384D01*
X694Y1384D01*
X694Y1382D01*
X696Y1382D01*
X696Y1380D01*
X698Y1380D01*
X698Y1378D01*
X700Y1378D01*
X700Y1376D01*
X702Y1376D01*
X702Y1374D01*
X704Y1374D01*
X704Y1370D01*
X706Y1370D01*
X706Y1366D01*
X708Y1366D01*
X708Y1360D01*
X710Y1360D01*
X710Y1356D01*
X730Y1356D01*
X730Y1364D01*
X732Y1364D01*
X732Y1368D01*
X734Y1368D01*
X734Y1372D01*
X736Y1372D01*
X736Y1374D01*
X738Y1374D01*
X738Y1378D01*
X740Y1378D01*
X740Y1380D01*
X742Y1380D01*
X742Y1382D01*
X746Y1382D01*
X746Y1384D01*
X748Y1384D01*
X748Y1386D01*
X752Y1386D01*
X752Y1388D01*
X758Y1388D01*
X758Y1390D01*
X768Y1390D01*
X768Y1392D01*
X670Y1392D01*
G37*
D02*
G36*
X770Y1392D02*
X770Y1390D01*
X782Y1390D01*
X782Y1388D01*
X786Y1388D01*
X786Y1386D01*
X790Y1386D01*
X790Y1384D01*
X794Y1384D01*
X794Y1382D01*
X796Y1382D01*
X796Y1380D01*
X798Y1380D01*
X798Y1378D01*
X800Y1378D01*
X800Y1376D01*
X802Y1376D01*
X802Y1374D01*
X804Y1374D01*
X804Y1370D01*
X806Y1370D01*
X806Y1366D01*
X808Y1366D01*
X808Y1360D01*
X810Y1360D01*
X810Y1356D01*
X830Y1356D01*
X830Y1364D01*
X832Y1364D01*
X832Y1368D01*
X834Y1368D01*
X834Y1372D01*
X836Y1372D01*
X836Y1374D01*
X838Y1374D01*
X838Y1378D01*
X840Y1378D01*
X840Y1380D01*
X842Y1380D01*
X842Y1382D01*
X846Y1382D01*
X846Y1384D01*
X848Y1384D01*
X848Y1386D01*
X852Y1386D01*
X852Y1388D01*
X858Y1388D01*
X858Y1390D01*
X868Y1390D01*
X868Y1392D01*
X770Y1392D01*
G37*
D02*
G36*
X870Y1392D02*
X870Y1390D01*
X882Y1390D01*
X882Y1388D01*
X886Y1388D01*
X886Y1386D01*
X890Y1386D01*
X890Y1384D01*
X894Y1384D01*
X894Y1382D01*
X896Y1382D01*
X896Y1380D01*
X898Y1380D01*
X898Y1378D01*
X900Y1378D01*
X900Y1376D01*
X902Y1376D01*
X902Y1374D01*
X904Y1374D01*
X904Y1370D01*
X906Y1370D01*
X906Y1366D01*
X908Y1366D01*
X908Y1360D01*
X910Y1360D01*
X910Y1356D01*
X930Y1356D01*
X930Y1364D01*
X932Y1364D01*
X932Y1368D01*
X934Y1368D01*
X934Y1372D01*
X936Y1372D01*
X936Y1374D01*
X938Y1374D01*
X938Y1378D01*
X940Y1378D01*
X940Y1380D01*
X942Y1380D01*
X942Y1382D01*
X946Y1382D01*
X946Y1384D01*
X948Y1384D01*
X948Y1386D01*
X952Y1386D01*
X952Y1388D01*
X958Y1388D01*
X958Y1390D01*
X968Y1390D01*
X968Y1392D01*
X870Y1392D01*
G37*
D02*
G36*
X970Y1392D02*
X970Y1390D01*
X982Y1390D01*
X982Y1388D01*
X986Y1388D01*
X986Y1386D01*
X990Y1386D01*
X990Y1384D01*
X994Y1384D01*
X994Y1382D01*
X996Y1382D01*
X996Y1380D01*
X998Y1380D01*
X998Y1378D01*
X1000Y1378D01*
X1000Y1376D01*
X1002Y1376D01*
X1002Y1374D01*
X1004Y1374D01*
X1004Y1370D01*
X1006Y1370D01*
X1006Y1366D01*
X1008Y1366D01*
X1008Y1360D01*
X1010Y1360D01*
X1010Y1356D01*
X1030Y1356D01*
X1030Y1364D01*
X1032Y1364D01*
X1032Y1368D01*
X1034Y1368D01*
X1034Y1372D01*
X1036Y1372D01*
X1036Y1374D01*
X1038Y1374D01*
X1038Y1378D01*
X1040Y1378D01*
X1040Y1380D01*
X1042Y1380D01*
X1042Y1382D01*
X1046Y1382D01*
X1046Y1384D01*
X1048Y1384D01*
X1048Y1386D01*
X1052Y1386D01*
X1052Y1388D01*
X1058Y1388D01*
X1058Y1390D01*
X1068Y1390D01*
X1068Y1392D01*
X970Y1392D01*
G37*
D02*
G36*
X1070Y1392D02*
X1070Y1390D01*
X1082Y1390D01*
X1082Y1388D01*
X1086Y1388D01*
X1086Y1386D01*
X1090Y1386D01*
X1090Y1384D01*
X1094Y1384D01*
X1094Y1382D01*
X1096Y1382D01*
X1096Y1380D01*
X1098Y1380D01*
X1098Y1378D01*
X1100Y1378D01*
X1100Y1376D01*
X1102Y1376D01*
X1102Y1374D01*
X1104Y1374D01*
X1104Y1370D01*
X1106Y1370D01*
X1106Y1366D01*
X1108Y1366D01*
X1108Y1360D01*
X1110Y1360D01*
X1110Y1356D01*
X1130Y1356D01*
X1130Y1364D01*
X1132Y1364D01*
X1132Y1368D01*
X1134Y1368D01*
X1134Y1372D01*
X1136Y1372D01*
X1136Y1374D01*
X1138Y1374D01*
X1138Y1378D01*
X1140Y1378D01*
X1140Y1380D01*
X1142Y1380D01*
X1142Y1382D01*
X1146Y1382D01*
X1146Y1384D01*
X1148Y1384D01*
X1148Y1386D01*
X1152Y1386D01*
X1152Y1388D01*
X1158Y1388D01*
X1158Y1390D01*
X1168Y1390D01*
X1168Y1392D01*
X1070Y1392D01*
G37*
D02*
G36*
X1170Y1392D02*
X1170Y1390D01*
X1182Y1390D01*
X1182Y1388D01*
X1186Y1388D01*
X1186Y1386D01*
X1190Y1386D01*
X1190Y1384D01*
X1194Y1384D01*
X1194Y1382D01*
X1196Y1382D01*
X1196Y1380D01*
X1198Y1380D01*
X1198Y1378D01*
X1200Y1378D01*
X1200Y1376D01*
X1202Y1376D01*
X1202Y1374D01*
X1204Y1374D01*
X1204Y1370D01*
X1206Y1370D01*
X1206Y1366D01*
X1208Y1366D01*
X1208Y1360D01*
X1210Y1360D01*
X1210Y1356D01*
X1230Y1356D01*
X1230Y1364D01*
X1232Y1364D01*
X1232Y1368D01*
X1234Y1368D01*
X1234Y1372D01*
X1236Y1372D01*
X1236Y1374D01*
X1238Y1374D01*
X1238Y1378D01*
X1240Y1378D01*
X1240Y1380D01*
X1242Y1380D01*
X1242Y1382D01*
X1246Y1382D01*
X1246Y1384D01*
X1248Y1384D01*
X1248Y1386D01*
X1252Y1386D01*
X1252Y1388D01*
X1258Y1388D01*
X1258Y1390D01*
X1268Y1390D01*
X1268Y1392D01*
X1170Y1392D01*
G37*
D02*
G36*
X1270Y1392D02*
X1270Y1390D01*
X1282Y1390D01*
X1282Y1388D01*
X1286Y1388D01*
X1286Y1386D01*
X1290Y1386D01*
X1290Y1384D01*
X1294Y1384D01*
X1294Y1382D01*
X1296Y1382D01*
X1296Y1380D01*
X1298Y1380D01*
X1298Y1378D01*
X1300Y1378D01*
X1300Y1376D01*
X1302Y1376D01*
X1302Y1374D01*
X1304Y1374D01*
X1304Y1370D01*
X1306Y1370D01*
X1306Y1366D01*
X1308Y1366D01*
X1308Y1360D01*
X1310Y1360D01*
X1310Y1356D01*
X1330Y1356D01*
X1330Y1364D01*
X1332Y1364D01*
X1332Y1368D01*
X1334Y1368D01*
X1334Y1372D01*
X1336Y1372D01*
X1336Y1374D01*
X1338Y1374D01*
X1338Y1378D01*
X1340Y1378D01*
X1340Y1380D01*
X1342Y1380D01*
X1342Y1382D01*
X1346Y1382D01*
X1346Y1384D01*
X1348Y1384D01*
X1348Y1386D01*
X1352Y1386D01*
X1352Y1388D01*
X1358Y1388D01*
X1358Y1390D01*
X1368Y1390D01*
X1368Y1392D01*
X1270Y1392D01*
G37*
D02*
G36*
X1370Y1392D02*
X1370Y1390D01*
X1382Y1390D01*
X1382Y1388D01*
X1386Y1388D01*
X1386Y1386D01*
X1390Y1386D01*
X1390Y1384D01*
X1394Y1384D01*
X1394Y1382D01*
X1396Y1382D01*
X1396Y1380D01*
X1398Y1380D01*
X1398Y1378D01*
X1400Y1378D01*
X1400Y1376D01*
X1402Y1376D01*
X1402Y1374D01*
X1404Y1374D01*
X1404Y1370D01*
X1406Y1370D01*
X1406Y1366D01*
X1408Y1366D01*
X1408Y1360D01*
X1410Y1360D01*
X1410Y1356D01*
X1430Y1356D01*
X1430Y1364D01*
X1432Y1364D01*
X1432Y1368D01*
X1434Y1368D01*
X1434Y1372D01*
X1436Y1372D01*
X1436Y1374D01*
X1438Y1374D01*
X1438Y1378D01*
X1440Y1378D01*
X1440Y1380D01*
X1442Y1380D01*
X1442Y1382D01*
X1446Y1382D01*
X1446Y1384D01*
X1448Y1384D01*
X1448Y1386D01*
X1452Y1386D01*
X1452Y1388D01*
X1458Y1388D01*
X1458Y1390D01*
X1468Y1390D01*
X1468Y1392D01*
X1370Y1392D01*
G37*
D02*
G36*
X1470Y1392D02*
X1470Y1390D01*
X1482Y1390D01*
X1482Y1388D01*
X1486Y1388D01*
X1486Y1386D01*
X1490Y1386D01*
X1490Y1384D01*
X1494Y1384D01*
X1494Y1382D01*
X1496Y1382D01*
X1496Y1380D01*
X1498Y1380D01*
X1498Y1378D01*
X1500Y1378D01*
X1500Y1376D01*
X1502Y1376D01*
X1502Y1374D01*
X1504Y1374D01*
X1504Y1370D01*
X1506Y1370D01*
X1506Y1366D01*
X1508Y1366D01*
X1508Y1360D01*
X1510Y1360D01*
X1510Y1356D01*
X1530Y1356D01*
X1530Y1364D01*
X1532Y1364D01*
X1532Y1368D01*
X1534Y1368D01*
X1534Y1372D01*
X1536Y1372D01*
X1536Y1374D01*
X1538Y1374D01*
X1538Y1378D01*
X1540Y1378D01*
X1540Y1380D01*
X1542Y1380D01*
X1542Y1382D01*
X1546Y1382D01*
X1546Y1384D01*
X1548Y1384D01*
X1548Y1386D01*
X1552Y1386D01*
X1552Y1388D01*
X1558Y1388D01*
X1558Y1390D01*
X1568Y1390D01*
X1568Y1392D01*
X1470Y1392D01*
G37*
D02*
G36*
X1570Y1392D02*
X1570Y1390D01*
X1582Y1390D01*
X1582Y1388D01*
X1586Y1388D01*
X1586Y1386D01*
X1590Y1386D01*
X1590Y1384D01*
X1594Y1384D01*
X1594Y1382D01*
X1596Y1382D01*
X1596Y1380D01*
X1598Y1380D01*
X1598Y1378D01*
X1600Y1378D01*
X1600Y1376D01*
X1602Y1376D01*
X1602Y1374D01*
X1604Y1374D01*
X1604Y1370D01*
X1606Y1370D01*
X1606Y1366D01*
X1608Y1366D01*
X1608Y1360D01*
X1610Y1360D01*
X1610Y1356D01*
X1630Y1356D01*
X1630Y1364D01*
X1632Y1364D01*
X1632Y1368D01*
X1634Y1368D01*
X1634Y1372D01*
X1636Y1372D01*
X1636Y1374D01*
X1638Y1374D01*
X1638Y1378D01*
X1640Y1378D01*
X1640Y1380D01*
X1642Y1380D01*
X1642Y1382D01*
X1646Y1382D01*
X1646Y1384D01*
X1648Y1384D01*
X1648Y1386D01*
X1652Y1386D01*
X1652Y1388D01*
X1658Y1388D01*
X1658Y1390D01*
X1668Y1390D01*
X1668Y1392D01*
X1570Y1392D01*
G37*
D02*
G36*
X1670Y1392D02*
X1670Y1390D01*
X1682Y1390D01*
X1682Y1388D01*
X1686Y1388D01*
X1686Y1386D01*
X1690Y1386D01*
X1690Y1384D01*
X1694Y1384D01*
X1694Y1382D01*
X1696Y1382D01*
X1696Y1380D01*
X1698Y1380D01*
X1698Y1378D01*
X1700Y1378D01*
X1700Y1376D01*
X1702Y1376D01*
X1702Y1374D01*
X1704Y1374D01*
X1704Y1370D01*
X1706Y1370D01*
X1706Y1366D01*
X1708Y1366D01*
X1708Y1360D01*
X1710Y1360D01*
X1710Y1356D01*
X1730Y1356D01*
X1730Y1364D01*
X1732Y1364D01*
X1732Y1368D01*
X1734Y1368D01*
X1734Y1372D01*
X1736Y1372D01*
X1736Y1374D01*
X1738Y1374D01*
X1738Y1378D01*
X1740Y1378D01*
X1740Y1380D01*
X1742Y1380D01*
X1742Y1382D01*
X1746Y1382D01*
X1746Y1384D01*
X1748Y1384D01*
X1748Y1386D01*
X1752Y1386D01*
X1752Y1388D01*
X1758Y1388D01*
X1758Y1390D01*
X1768Y1390D01*
X1768Y1392D01*
X1670Y1392D01*
G37*
D02*
G36*
X310Y1344D02*
X310Y1340D01*
X308Y1340D01*
X308Y1334D01*
X306Y1334D01*
X306Y1330D01*
X304Y1330D01*
X304Y1326D01*
X302Y1326D01*
X302Y1324D01*
X300Y1324D01*
X300Y1322D01*
X298Y1322D01*
X298Y1320D01*
X296Y1320D01*
X296Y1318D01*
X294Y1318D01*
X294Y1316D01*
X290Y1316D01*
X290Y1314D01*
X286Y1314D01*
X286Y1312D01*
X280Y1312D01*
X280Y1310D01*
X348Y1310D01*
X348Y1316D01*
X346Y1316D01*
X346Y1318D01*
X342Y1318D01*
X342Y1320D01*
X340Y1320D01*
X340Y1322D01*
X338Y1322D01*
X338Y1326D01*
X336Y1326D01*
X336Y1328D01*
X334Y1328D01*
X334Y1332D01*
X332Y1332D01*
X332Y1336D01*
X330Y1336D01*
X330Y1344D01*
X310Y1344D01*
G37*
D02*
G36*
X410Y1344D02*
X410Y1340D01*
X408Y1340D01*
X408Y1334D01*
X406Y1334D01*
X406Y1330D01*
X404Y1330D01*
X404Y1326D01*
X402Y1326D01*
X402Y1324D01*
X400Y1324D01*
X400Y1322D01*
X398Y1322D01*
X398Y1310D01*
X458Y1310D01*
X458Y1312D01*
X452Y1312D01*
X452Y1314D01*
X448Y1314D01*
X448Y1316D01*
X446Y1316D01*
X446Y1318D01*
X442Y1318D01*
X442Y1320D01*
X440Y1320D01*
X440Y1322D01*
X438Y1322D01*
X438Y1326D01*
X436Y1326D01*
X436Y1328D01*
X434Y1328D01*
X434Y1332D01*
X432Y1332D01*
X432Y1336D01*
X430Y1336D01*
X430Y1344D01*
X410Y1344D01*
G37*
D02*
G36*
X510Y1344D02*
X510Y1340D01*
X508Y1340D01*
X508Y1334D01*
X506Y1334D01*
X506Y1330D01*
X504Y1330D01*
X504Y1326D01*
X502Y1326D01*
X502Y1324D01*
X500Y1324D01*
X500Y1322D01*
X498Y1322D01*
X498Y1320D01*
X496Y1320D01*
X496Y1318D01*
X494Y1318D01*
X494Y1316D01*
X490Y1316D01*
X490Y1314D01*
X486Y1314D01*
X486Y1312D01*
X480Y1312D01*
X480Y1310D01*
X558Y1310D01*
X558Y1312D01*
X552Y1312D01*
X552Y1314D01*
X548Y1314D01*
X548Y1316D01*
X546Y1316D01*
X546Y1318D01*
X542Y1318D01*
X542Y1320D01*
X540Y1320D01*
X540Y1322D01*
X538Y1322D01*
X538Y1326D01*
X536Y1326D01*
X536Y1328D01*
X534Y1328D01*
X534Y1332D01*
X532Y1332D01*
X532Y1336D01*
X530Y1336D01*
X530Y1344D01*
X510Y1344D01*
G37*
D02*
G36*
X610Y1344D02*
X610Y1340D01*
X608Y1340D01*
X608Y1334D01*
X606Y1334D01*
X606Y1330D01*
X604Y1330D01*
X604Y1326D01*
X602Y1326D01*
X602Y1324D01*
X600Y1324D01*
X600Y1322D01*
X598Y1322D01*
X598Y1320D01*
X596Y1320D01*
X596Y1318D01*
X594Y1318D01*
X594Y1316D01*
X590Y1316D01*
X590Y1314D01*
X586Y1314D01*
X586Y1312D01*
X580Y1312D01*
X580Y1310D01*
X658Y1310D01*
X658Y1312D01*
X652Y1312D01*
X652Y1314D01*
X648Y1314D01*
X648Y1316D01*
X646Y1316D01*
X646Y1318D01*
X642Y1318D01*
X642Y1320D01*
X640Y1320D01*
X640Y1322D01*
X638Y1322D01*
X638Y1326D01*
X636Y1326D01*
X636Y1328D01*
X634Y1328D01*
X634Y1332D01*
X632Y1332D01*
X632Y1336D01*
X630Y1336D01*
X630Y1344D01*
X610Y1344D01*
G37*
D02*
G36*
X710Y1344D02*
X710Y1340D01*
X708Y1340D01*
X708Y1334D01*
X706Y1334D01*
X706Y1330D01*
X704Y1330D01*
X704Y1326D01*
X702Y1326D01*
X702Y1324D01*
X700Y1324D01*
X700Y1322D01*
X698Y1322D01*
X698Y1320D01*
X696Y1320D01*
X696Y1318D01*
X694Y1318D01*
X694Y1316D01*
X690Y1316D01*
X690Y1314D01*
X686Y1314D01*
X686Y1312D01*
X680Y1312D01*
X680Y1310D01*
X758Y1310D01*
X758Y1312D01*
X752Y1312D01*
X752Y1314D01*
X748Y1314D01*
X748Y1316D01*
X746Y1316D01*
X746Y1318D01*
X742Y1318D01*
X742Y1320D01*
X740Y1320D01*
X740Y1322D01*
X738Y1322D01*
X738Y1326D01*
X736Y1326D01*
X736Y1328D01*
X734Y1328D01*
X734Y1332D01*
X732Y1332D01*
X732Y1336D01*
X730Y1336D01*
X730Y1344D01*
X710Y1344D01*
G37*
D02*
G36*
X810Y1344D02*
X810Y1340D01*
X808Y1340D01*
X808Y1334D01*
X806Y1334D01*
X806Y1330D01*
X804Y1330D01*
X804Y1326D01*
X802Y1326D01*
X802Y1324D01*
X800Y1324D01*
X800Y1322D01*
X798Y1322D01*
X798Y1320D01*
X796Y1320D01*
X796Y1318D01*
X794Y1318D01*
X794Y1316D01*
X790Y1316D01*
X790Y1314D01*
X786Y1314D01*
X786Y1312D01*
X780Y1312D01*
X780Y1310D01*
X858Y1310D01*
X858Y1312D01*
X852Y1312D01*
X852Y1314D01*
X848Y1314D01*
X848Y1316D01*
X846Y1316D01*
X846Y1318D01*
X842Y1318D01*
X842Y1320D01*
X840Y1320D01*
X840Y1322D01*
X838Y1322D01*
X838Y1326D01*
X836Y1326D01*
X836Y1328D01*
X834Y1328D01*
X834Y1332D01*
X832Y1332D01*
X832Y1336D01*
X830Y1336D01*
X830Y1344D01*
X810Y1344D01*
G37*
D02*
G36*
X910Y1344D02*
X910Y1340D01*
X908Y1340D01*
X908Y1334D01*
X906Y1334D01*
X906Y1330D01*
X904Y1330D01*
X904Y1326D01*
X902Y1326D01*
X902Y1324D01*
X900Y1324D01*
X900Y1322D01*
X898Y1322D01*
X898Y1320D01*
X896Y1320D01*
X896Y1318D01*
X894Y1318D01*
X894Y1316D01*
X890Y1316D01*
X890Y1314D01*
X886Y1314D01*
X886Y1312D01*
X880Y1312D01*
X880Y1310D01*
X958Y1310D01*
X958Y1312D01*
X952Y1312D01*
X952Y1314D01*
X948Y1314D01*
X948Y1316D01*
X946Y1316D01*
X946Y1318D01*
X942Y1318D01*
X942Y1320D01*
X940Y1320D01*
X940Y1322D01*
X938Y1322D01*
X938Y1326D01*
X936Y1326D01*
X936Y1328D01*
X934Y1328D01*
X934Y1332D01*
X932Y1332D01*
X932Y1336D01*
X930Y1336D01*
X930Y1344D01*
X910Y1344D01*
G37*
D02*
G36*
X1010Y1344D02*
X1010Y1340D01*
X1008Y1340D01*
X1008Y1334D01*
X1006Y1334D01*
X1006Y1330D01*
X1004Y1330D01*
X1004Y1326D01*
X1002Y1326D01*
X1002Y1324D01*
X1000Y1324D01*
X1000Y1322D01*
X998Y1322D01*
X998Y1320D01*
X996Y1320D01*
X996Y1318D01*
X994Y1318D01*
X994Y1316D01*
X990Y1316D01*
X990Y1314D01*
X986Y1314D01*
X986Y1312D01*
X980Y1312D01*
X980Y1310D01*
X1058Y1310D01*
X1058Y1312D01*
X1052Y1312D01*
X1052Y1314D01*
X1048Y1314D01*
X1048Y1316D01*
X1046Y1316D01*
X1046Y1318D01*
X1042Y1318D01*
X1042Y1320D01*
X1040Y1320D01*
X1040Y1322D01*
X1038Y1322D01*
X1038Y1326D01*
X1036Y1326D01*
X1036Y1328D01*
X1034Y1328D01*
X1034Y1332D01*
X1032Y1332D01*
X1032Y1336D01*
X1030Y1336D01*
X1030Y1344D01*
X1010Y1344D01*
G37*
D02*
G36*
X1110Y1344D02*
X1110Y1340D01*
X1108Y1340D01*
X1108Y1334D01*
X1106Y1334D01*
X1106Y1330D01*
X1104Y1330D01*
X1104Y1326D01*
X1102Y1326D01*
X1102Y1324D01*
X1100Y1324D01*
X1100Y1322D01*
X1098Y1322D01*
X1098Y1320D01*
X1096Y1320D01*
X1096Y1318D01*
X1094Y1318D01*
X1094Y1316D01*
X1090Y1316D01*
X1090Y1314D01*
X1086Y1314D01*
X1086Y1312D01*
X1080Y1312D01*
X1080Y1310D01*
X1158Y1310D01*
X1158Y1312D01*
X1152Y1312D01*
X1152Y1314D01*
X1148Y1314D01*
X1148Y1316D01*
X1146Y1316D01*
X1146Y1318D01*
X1142Y1318D01*
X1142Y1320D01*
X1140Y1320D01*
X1140Y1322D01*
X1138Y1322D01*
X1138Y1326D01*
X1136Y1326D01*
X1136Y1328D01*
X1134Y1328D01*
X1134Y1332D01*
X1132Y1332D01*
X1132Y1336D01*
X1130Y1336D01*
X1130Y1344D01*
X1110Y1344D01*
G37*
D02*
G36*
X1210Y1344D02*
X1210Y1340D01*
X1208Y1340D01*
X1208Y1334D01*
X1206Y1334D01*
X1206Y1330D01*
X1204Y1330D01*
X1204Y1326D01*
X1202Y1326D01*
X1202Y1324D01*
X1200Y1324D01*
X1200Y1322D01*
X1198Y1322D01*
X1198Y1320D01*
X1196Y1320D01*
X1196Y1318D01*
X1194Y1318D01*
X1194Y1316D01*
X1190Y1316D01*
X1190Y1314D01*
X1186Y1314D01*
X1186Y1312D01*
X1180Y1312D01*
X1180Y1310D01*
X1258Y1310D01*
X1258Y1312D01*
X1252Y1312D01*
X1252Y1314D01*
X1248Y1314D01*
X1248Y1316D01*
X1246Y1316D01*
X1246Y1318D01*
X1242Y1318D01*
X1242Y1320D01*
X1240Y1320D01*
X1240Y1322D01*
X1238Y1322D01*
X1238Y1326D01*
X1236Y1326D01*
X1236Y1328D01*
X1234Y1328D01*
X1234Y1332D01*
X1232Y1332D01*
X1232Y1336D01*
X1230Y1336D01*
X1230Y1344D01*
X1210Y1344D01*
G37*
D02*
G36*
X1310Y1344D02*
X1310Y1340D01*
X1308Y1340D01*
X1308Y1334D01*
X1306Y1334D01*
X1306Y1330D01*
X1304Y1330D01*
X1304Y1326D01*
X1302Y1326D01*
X1302Y1324D01*
X1300Y1324D01*
X1300Y1322D01*
X1298Y1322D01*
X1298Y1320D01*
X1296Y1320D01*
X1296Y1318D01*
X1294Y1318D01*
X1294Y1316D01*
X1290Y1316D01*
X1290Y1314D01*
X1286Y1314D01*
X1286Y1312D01*
X1280Y1312D01*
X1280Y1310D01*
X1358Y1310D01*
X1358Y1312D01*
X1352Y1312D01*
X1352Y1314D01*
X1348Y1314D01*
X1348Y1316D01*
X1346Y1316D01*
X1346Y1318D01*
X1342Y1318D01*
X1342Y1320D01*
X1340Y1320D01*
X1340Y1322D01*
X1338Y1322D01*
X1338Y1326D01*
X1336Y1326D01*
X1336Y1328D01*
X1334Y1328D01*
X1334Y1332D01*
X1332Y1332D01*
X1332Y1336D01*
X1330Y1336D01*
X1330Y1344D01*
X1310Y1344D01*
G37*
D02*
G36*
X1410Y1344D02*
X1410Y1340D01*
X1408Y1340D01*
X1408Y1334D01*
X1406Y1334D01*
X1406Y1330D01*
X1404Y1330D01*
X1404Y1326D01*
X1402Y1326D01*
X1402Y1324D01*
X1400Y1324D01*
X1400Y1322D01*
X1398Y1322D01*
X1398Y1320D01*
X1396Y1320D01*
X1396Y1318D01*
X1394Y1318D01*
X1394Y1316D01*
X1390Y1316D01*
X1390Y1314D01*
X1386Y1314D01*
X1386Y1312D01*
X1380Y1312D01*
X1380Y1310D01*
X1458Y1310D01*
X1458Y1312D01*
X1452Y1312D01*
X1452Y1314D01*
X1448Y1314D01*
X1448Y1316D01*
X1446Y1316D01*
X1446Y1318D01*
X1442Y1318D01*
X1442Y1320D01*
X1440Y1320D01*
X1440Y1322D01*
X1438Y1322D01*
X1438Y1326D01*
X1436Y1326D01*
X1436Y1328D01*
X1434Y1328D01*
X1434Y1332D01*
X1432Y1332D01*
X1432Y1336D01*
X1430Y1336D01*
X1430Y1344D01*
X1410Y1344D01*
G37*
D02*
G36*
X1510Y1344D02*
X1510Y1340D01*
X1508Y1340D01*
X1508Y1334D01*
X1506Y1334D01*
X1506Y1330D01*
X1504Y1330D01*
X1504Y1326D01*
X1502Y1326D01*
X1502Y1324D01*
X1500Y1324D01*
X1500Y1322D01*
X1498Y1322D01*
X1498Y1320D01*
X1496Y1320D01*
X1496Y1318D01*
X1494Y1318D01*
X1494Y1316D01*
X1490Y1316D01*
X1490Y1314D01*
X1486Y1314D01*
X1486Y1312D01*
X1480Y1312D01*
X1480Y1310D01*
X1558Y1310D01*
X1558Y1312D01*
X1552Y1312D01*
X1552Y1314D01*
X1548Y1314D01*
X1548Y1316D01*
X1546Y1316D01*
X1546Y1318D01*
X1542Y1318D01*
X1542Y1320D01*
X1540Y1320D01*
X1540Y1322D01*
X1538Y1322D01*
X1538Y1326D01*
X1536Y1326D01*
X1536Y1328D01*
X1534Y1328D01*
X1534Y1332D01*
X1532Y1332D01*
X1532Y1336D01*
X1530Y1336D01*
X1530Y1344D01*
X1510Y1344D01*
G37*
D02*
G36*
X1610Y1344D02*
X1610Y1340D01*
X1608Y1340D01*
X1608Y1334D01*
X1606Y1334D01*
X1606Y1330D01*
X1604Y1330D01*
X1604Y1326D01*
X1602Y1326D01*
X1602Y1324D01*
X1600Y1324D01*
X1600Y1322D01*
X1598Y1322D01*
X1598Y1320D01*
X1596Y1320D01*
X1596Y1318D01*
X1594Y1318D01*
X1594Y1316D01*
X1590Y1316D01*
X1590Y1314D01*
X1586Y1314D01*
X1586Y1312D01*
X1580Y1312D01*
X1580Y1310D01*
X1658Y1310D01*
X1658Y1312D01*
X1652Y1312D01*
X1652Y1314D01*
X1648Y1314D01*
X1648Y1316D01*
X1646Y1316D01*
X1646Y1318D01*
X1642Y1318D01*
X1642Y1320D01*
X1640Y1320D01*
X1640Y1322D01*
X1638Y1322D01*
X1638Y1326D01*
X1636Y1326D01*
X1636Y1328D01*
X1634Y1328D01*
X1634Y1332D01*
X1632Y1332D01*
X1632Y1336D01*
X1630Y1336D01*
X1630Y1344D01*
X1610Y1344D01*
G37*
D02*
G36*
X1710Y1344D02*
X1710Y1340D01*
X1708Y1340D01*
X1708Y1334D01*
X1706Y1334D01*
X1706Y1330D01*
X1704Y1330D01*
X1704Y1326D01*
X1702Y1326D01*
X1702Y1324D01*
X1700Y1324D01*
X1700Y1322D01*
X1698Y1322D01*
X1698Y1320D01*
X1696Y1320D01*
X1696Y1318D01*
X1694Y1318D01*
X1694Y1316D01*
X1690Y1316D01*
X1690Y1314D01*
X1686Y1314D01*
X1686Y1312D01*
X1680Y1312D01*
X1680Y1310D01*
X1758Y1310D01*
X1758Y1312D01*
X1752Y1312D01*
X1752Y1314D01*
X1748Y1314D01*
X1748Y1316D01*
X1746Y1316D01*
X1746Y1318D01*
X1742Y1318D01*
X1742Y1320D01*
X1740Y1320D01*
X1740Y1322D01*
X1738Y1322D01*
X1738Y1326D01*
X1736Y1326D01*
X1736Y1328D01*
X1734Y1328D01*
X1734Y1332D01*
X1732Y1332D01*
X1732Y1336D01*
X1730Y1336D01*
X1730Y1344D01*
X1710Y1344D01*
G37*
D02*
G36*
X40Y1310D02*
X40Y1308D01*
X348Y1308D01*
X348Y1310D01*
X40Y1310D01*
G37*
D02*
G36*
X40Y1310D02*
X40Y1308D01*
X348Y1308D01*
X348Y1310D01*
X40Y1310D01*
G37*
D02*
G36*
X398Y1310D02*
X398Y1308D01*
X2080Y1308D01*
X2080Y1310D01*
X398Y1310D01*
G37*
D02*
G36*
X398Y1310D02*
X398Y1308D01*
X2080Y1308D01*
X2080Y1310D01*
X398Y1310D01*
G37*
D02*
G36*
X398Y1310D02*
X398Y1308D01*
X2080Y1308D01*
X2080Y1310D01*
X398Y1310D01*
G37*
D02*
G36*
X398Y1310D02*
X398Y1308D01*
X2080Y1308D01*
X2080Y1310D01*
X398Y1310D01*
G37*
D02*
G36*
X398Y1310D02*
X398Y1308D01*
X2080Y1308D01*
X2080Y1310D01*
X398Y1310D01*
G37*
D02*
G36*
X398Y1310D02*
X398Y1308D01*
X2080Y1308D01*
X2080Y1310D01*
X398Y1310D01*
G37*
D02*
G36*
X398Y1310D02*
X398Y1308D01*
X2080Y1308D01*
X2080Y1310D01*
X398Y1310D01*
G37*
D02*
G36*
X398Y1310D02*
X398Y1308D01*
X2080Y1308D01*
X2080Y1310D01*
X398Y1310D01*
G37*
D02*
G36*
X398Y1310D02*
X398Y1308D01*
X2080Y1308D01*
X2080Y1310D01*
X398Y1310D01*
G37*
D02*
G36*
X398Y1310D02*
X398Y1308D01*
X2080Y1308D01*
X2080Y1310D01*
X398Y1310D01*
G37*
D02*
G36*
X398Y1310D02*
X398Y1308D01*
X2080Y1308D01*
X2080Y1310D01*
X398Y1310D01*
G37*
D02*
G36*
X398Y1310D02*
X398Y1308D01*
X2080Y1308D01*
X2080Y1310D01*
X398Y1310D01*
G37*
D02*
G36*
X398Y1310D02*
X398Y1308D01*
X2080Y1308D01*
X2080Y1310D01*
X398Y1310D01*
G37*
D02*
G36*
X398Y1310D02*
X398Y1308D01*
X2080Y1308D01*
X2080Y1310D01*
X398Y1310D01*
G37*
D02*
G36*
X398Y1310D02*
X398Y1308D01*
X2080Y1308D01*
X2080Y1310D01*
X398Y1310D01*
G37*
D02*
G36*
X40Y1308D02*
X40Y1128D01*
X658Y1128D01*
X658Y1130D01*
X652Y1130D01*
X652Y1132D01*
X648Y1132D01*
X648Y1134D01*
X644Y1134D01*
X644Y1136D01*
X642Y1136D01*
X642Y1138D01*
X638Y1138D01*
X638Y1140D01*
X636Y1140D01*
X636Y1142D01*
X634Y1142D01*
X634Y1144D01*
X632Y1144D01*
X632Y1148D01*
X630Y1148D01*
X630Y1150D01*
X628Y1150D01*
X628Y1154D01*
X626Y1154D01*
X626Y1158D01*
X624Y1158D01*
X624Y1166D01*
X622Y1166D01*
X622Y1184D01*
X624Y1184D01*
X624Y1192D01*
X626Y1192D01*
X626Y1196D01*
X628Y1196D01*
X628Y1200D01*
X630Y1200D01*
X630Y1202D01*
X632Y1202D01*
X632Y1206D01*
X634Y1206D01*
X634Y1208D01*
X636Y1208D01*
X636Y1228D01*
X412Y1228D01*
X412Y1230D01*
X408Y1230D01*
X408Y1232D01*
X406Y1232D01*
X406Y1234D01*
X404Y1234D01*
X404Y1236D01*
X402Y1236D01*
X402Y1238D01*
X400Y1238D01*
X400Y1240D01*
X398Y1240D01*
X398Y1242D01*
X396Y1242D01*
X396Y1244D01*
X394Y1244D01*
X394Y1246D01*
X392Y1246D01*
X392Y1248D01*
X390Y1248D01*
X390Y1250D01*
X388Y1250D01*
X388Y1252D01*
X386Y1252D01*
X386Y1254D01*
X384Y1254D01*
X384Y1256D01*
X382Y1256D01*
X382Y1258D01*
X380Y1258D01*
X380Y1260D01*
X378Y1260D01*
X378Y1262D01*
X376Y1262D01*
X376Y1264D01*
X374Y1264D01*
X374Y1266D01*
X372Y1266D01*
X372Y1268D01*
X370Y1268D01*
X370Y1270D01*
X368Y1270D01*
X368Y1272D01*
X366Y1272D01*
X366Y1274D01*
X364Y1274D01*
X364Y1276D01*
X362Y1276D01*
X362Y1278D01*
X360Y1278D01*
X360Y1280D01*
X358Y1280D01*
X358Y1282D01*
X356Y1282D01*
X356Y1284D01*
X354Y1284D01*
X354Y1286D01*
X352Y1286D01*
X352Y1288D01*
X350Y1288D01*
X350Y1292D01*
X348Y1292D01*
X348Y1308D01*
X40Y1308D01*
G37*
D02*
G36*
X398Y1308D02*
X398Y1302D01*
X400Y1302D01*
X400Y1300D01*
X402Y1300D01*
X402Y1298D01*
X404Y1298D01*
X404Y1296D01*
X406Y1296D01*
X406Y1294D01*
X408Y1294D01*
X408Y1292D01*
X410Y1292D01*
X410Y1290D01*
X412Y1290D01*
X412Y1288D01*
X414Y1288D01*
X414Y1286D01*
X416Y1286D01*
X416Y1284D01*
X418Y1284D01*
X418Y1282D01*
X420Y1282D01*
X420Y1280D01*
X422Y1280D01*
X422Y1278D01*
X424Y1278D01*
X424Y1276D01*
X426Y1276D01*
X426Y1274D01*
X428Y1274D01*
X428Y1272D01*
X2058Y1272D01*
X2058Y1276D01*
X2060Y1276D01*
X2060Y1278D01*
X2062Y1278D01*
X2062Y1282D01*
X2064Y1282D01*
X2064Y1286D01*
X2066Y1286D01*
X2066Y1288D01*
X2068Y1288D01*
X2068Y1292D01*
X2070Y1292D01*
X2070Y1294D01*
X2072Y1294D01*
X2072Y1298D01*
X2074Y1298D01*
X2074Y1302D01*
X2076Y1302D01*
X2076Y1304D01*
X2078Y1304D01*
X2078Y1308D01*
X398Y1308D01*
G37*
D02*
G36*
X702Y1228D02*
X702Y1208D01*
X704Y1208D01*
X704Y1206D01*
X706Y1206D01*
X706Y1204D01*
X708Y1204D01*
X708Y1202D01*
X710Y1202D01*
X710Y1198D01*
X712Y1198D01*
X712Y1194D01*
X714Y1194D01*
X714Y1188D01*
X716Y1188D01*
X716Y1162D01*
X714Y1162D01*
X714Y1156D01*
X712Y1156D01*
X712Y1152D01*
X710Y1152D01*
X710Y1150D01*
X708Y1150D01*
X708Y1146D01*
X706Y1146D01*
X706Y1144D01*
X704Y1144D01*
X704Y1142D01*
X702Y1142D01*
X702Y1140D01*
X700Y1140D01*
X700Y1138D01*
X698Y1138D01*
X698Y1136D01*
X694Y1136D01*
X694Y1134D01*
X690Y1134D01*
X690Y1132D01*
X686Y1132D01*
X686Y1130D01*
X680Y1130D01*
X680Y1128D01*
X1058Y1128D01*
X1058Y1130D01*
X1052Y1130D01*
X1052Y1132D01*
X1048Y1132D01*
X1048Y1134D01*
X1044Y1134D01*
X1044Y1136D01*
X1042Y1136D01*
X1042Y1138D01*
X1038Y1138D01*
X1038Y1140D01*
X1036Y1140D01*
X1036Y1142D01*
X1034Y1142D01*
X1034Y1144D01*
X1032Y1144D01*
X1032Y1148D01*
X1030Y1148D01*
X1030Y1150D01*
X1028Y1150D01*
X1028Y1154D01*
X1026Y1154D01*
X1026Y1158D01*
X1024Y1158D01*
X1024Y1166D01*
X1022Y1166D01*
X1022Y1184D01*
X1024Y1184D01*
X1024Y1192D01*
X1026Y1192D01*
X1026Y1196D01*
X1028Y1196D01*
X1028Y1200D01*
X1030Y1200D01*
X1030Y1202D01*
X1032Y1202D01*
X1032Y1206D01*
X1034Y1206D01*
X1034Y1208D01*
X1036Y1208D01*
X1036Y1228D01*
X702Y1228D01*
G37*
D02*
G36*
X40Y1128D02*
X40Y1126D01*
X2252Y1126D01*
X2252Y1128D01*
X40Y1128D01*
G37*
D02*
G36*
X40Y1128D02*
X40Y1126D01*
X2252Y1126D01*
X2252Y1128D01*
X40Y1128D01*
G37*
D02*
G36*
X40Y1128D02*
X40Y1126D01*
X2252Y1126D01*
X2252Y1128D01*
X40Y1128D01*
G37*
D02*
G36*
X40Y1126D02*
X40Y1102D01*
X2282Y1102D01*
X2282Y1104D01*
X2276Y1104D01*
X2276Y1106D01*
X2272Y1106D01*
X2272Y1108D01*
X2268Y1108D01*
X2268Y1110D01*
X2266Y1110D01*
X2266Y1112D01*
X2262Y1112D01*
X2262Y1114D01*
X2260Y1114D01*
X2260Y1116D01*
X2258Y1116D01*
X2258Y1118D01*
X2256Y1118D01*
X2256Y1122D01*
X2254Y1122D01*
X2254Y1124D01*
X2252Y1124D01*
X2252Y1126D01*
X40Y1126D01*
G37*
D02*
G36*
X40Y1102D02*
X40Y1100D01*
X2478Y1100D01*
X2478Y1102D01*
X40Y1102D01*
G37*
D02*
G36*
X40Y1102D02*
X40Y1100D01*
X2478Y1100D01*
X2478Y1102D01*
X40Y1102D01*
G37*
D02*
G36*
X40Y1100D02*
X40Y978D01*
X1954Y978D01*
X1954Y976D01*
X1958Y976D01*
X1958Y974D01*
X2304Y974D01*
X2304Y972D01*
X2310Y972D01*
X2310Y970D01*
X2316Y970D01*
X2316Y968D01*
X2320Y968D01*
X2320Y966D01*
X2322Y966D01*
X2322Y964D01*
X2326Y964D01*
X2326Y962D01*
X2328Y962D01*
X2328Y960D01*
X2330Y960D01*
X2330Y958D01*
X2332Y958D01*
X2332Y954D01*
X2334Y954D01*
X2334Y952D01*
X2336Y952D01*
X2336Y948D01*
X2338Y948D01*
X2338Y946D01*
X2340Y946D01*
X2340Y940D01*
X2342Y940D01*
X2342Y930D01*
X2344Y930D01*
X2344Y920D01*
X2342Y920D01*
X2342Y910D01*
X2340Y910D01*
X2340Y906D01*
X2338Y906D01*
X2338Y902D01*
X2336Y902D01*
X2336Y898D01*
X2334Y898D01*
X2334Y896D01*
X2332Y896D01*
X2332Y892D01*
X2330Y892D01*
X2330Y890D01*
X2328Y890D01*
X2328Y888D01*
X2324Y888D01*
X2324Y886D01*
X2322Y886D01*
X2322Y864D01*
X2326Y864D01*
X2326Y862D01*
X2328Y862D01*
X2328Y860D01*
X2330Y860D01*
X2330Y858D01*
X2332Y858D01*
X2332Y854D01*
X2334Y854D01*
X2334Y852D01*
X2336Y852D01*
X2336Y848D01*
X2338Y848D01*
X2338Y846D01*
X2340Y846D01*
X2340Y840D01*
X2342Y840D01*
X2342Y830D01*
X2344Y830D01*
X2344Y820D01*
X2342Y820D01*
X2342Y810D01*
X2340Y810D01*
X2340Y806D01*
X2338Y806D01*
X2338Y802D01*
X2336Y802D01*
X2336Y798D01*
X2334Y798D01*
X2334Y796D01*
X2332Y796D01*
X2332Y792D01*
X2330Y792D01*
X2330Y790D01*
X2328Y790D01*
X2328Y788D01*
X2324Y788D01*
X2324Y786D01*
X2322Y786D01*
X2322Y764D01*
X2326Y764D01*
X2326Y762D01*
X2328Y762D01*
X2328Y760D01*
X2330Y760D01*
X2330Y758D01*
X2332Y758D01*
X2332Y754D01*
X2334Y754D01*
X2334Y752D01*
X2336Y752D01*
X2336Y748D01*
X2338Y748D01*
X2338Y746D01*
X2340Y746D01*
X2340Y740D01*
X2342Y740D01*
X2342Y730D01*
X2344Y730D01*
X2344Y720D01*
X2342Y720D01*
X2342Y710D01*
X2340Y710D01*
X2340Y706D01*
X2338Y706D01*
X2338Y702D01*
X2336Y702D01*
X2336Y698D01*
X2334Y698D01*
X2334Y696D01*
X2332Y696D01*
X2332Y692D01*
X2330Y692D01*
X2330Y690D01*
X2328Y690D01*
X2328Y688D01*
X2324Y688D01*
X2324Y686D01*
X2322Y686D01*
X2322Y684D01*
X2318Y684D01*
X2318Y682D01*
X2316Y682D01*
X2316Y680D01*
X2310Y680D01*
X2310Y678D01*
X2304Y678D01*
X2304Y676D01*
X2478Y676D01*
X2478Y1100D01*
X40Y1100D01*
G37*
D02*
G36*
X40Y978D02*
X40Y826D01*
X272Y826D01*
X272Y824D01*
X280Y824D01*
X280Y822D01*
X286Y822D01*
X286Y820D01*
X290Y820D01*
X290Y818D01*
X292Y818D01*
X292Y816D01*
X296Y816D01*
X296Y814D01*
X298Y814D01*
X298Y812D01*
X302Y812D01*
X302Y810D01*
X304Y810D01*
X304Y808D01*
X306Y808D01*
X306Y806D01*
X308Y806D01*
X308Y804D01*
X310Y804D01*
X310Y800D01*
X312Y800D01*
X312Y798D01*
X314Y798D01*
X314Y794D01*
X316Y794D01*
X316Y792D01*
X318Y792D01*
X318Y788D01*
X320Y788D01*
X320Y782D01*
X322Y782D01*
X322Y774D01*
X324Y774D01*
X324Y748D01*
X322Y748D01*
X322Y740D01*
X320Y740D01*
X320Y736D01*
X318Y736D01*
X318Y732D01*
X316Y732D01*
X316Y728D01*
X314Y728D01*
X314Y724D01*
X312Y724D01*
X312Y722D01*
X310Y722D01*
X310Y720D01*
X308Y720D01*
X308Y718D01*
X306Y718D01*
X306Y716D01*
X304Y716D01*
X304Y714D01*
X302Y714D01*
X302Y712D01*
X300Y712D01*
X300Y710D01*
X298Y710D01*
X298Y708D01*
X294Y708D01*
X294Y706D01*
X292Y706D01*
X292Y704D01*
X288Y704D01*
X288Y702D01*
X284Y702D01*
X284Y700D01*
X278Y700D01*
X278Y698D01*
X268Y698D01*
X268Y696D01*
X2254Y696D01*
X2254Y700D01*
X2252Y700D01*
X2252Y702D01*
X2250Y702D01*
X2250Y706D01*
X2248Y706D01*
X2248Y714D01*
X2246Y714D01*
X2246Y736D01*
X2248Y736D01*
X2248Y744D01*
X2250Y744D01*
X2250Y748D01*
X2252Y748D01*
X2252Y750D01*
X2254Y750D01*
X2254Y754D01*
X2256Y754D01*
X2256Y756D01*
X2258Y756D01*
X2258Y758D01*
X2260Y758D01*
X2260Y760D01*
X2262Y760D01*
X2262Y762D01*
X2264Y762D01*
X2264Y764D01*
X2266Y764D01*
X2266Y786D01*
X2264Y786D01*
X2264Y788D01*
X2262Y788D01*
X2262Y790D01*
X2260Y790D01*
X2260Y792D01*
X2258Y792D01*
X2258Y794D01*
X2256Y794D01*
X2256Y796D01*
X2254Y796D01*
X2254Y800D01*
X2252Y800D01*
X2252Y802D01*
X2250Y802D01*
X2250Y806D01*
X2248Y806D01*
X2248Y814D01*
X2246Y814D01*
X2246Y836D01*
X2248Y836D01*
X2248Y844D01*
X2250Y844D01*
X2250Y848D01*
X2252Y848D01*
X2252Y850D01*
X2254Y850D01*
X2254Y854D01*
X2256Y854D01*
X2256Y856D01*
X2258Y856D01*
X2258Y858D01*
X2260Y858D01*
X2260Y860D01*
X2262Y860D01*
X2262Y862D01*
X2264Y862D01*
X2264Y864D01*
X2266Y864D01*
X2266Y886D01*
X2264Y886D01*
X2264Y888D01*
X2262Y888D01*
X2262Y890D01*
X2260Y890D01*
X2260Y892D01*
X2258Y892D01*
X2258Y894D01*
X2256Y894D01*
X2256Y896D01*
X2254Y896D01*
X2254Y900D01*
X2252Y900D01*
X2252Y902D01*
X2250Y902D01*
X2250Y906D01*
X2248Y906D01*
X2248Y908D01*
X1964Y908D01*
X1964Y910D01*
X1960Y910D01*
X1960Y912D01*
X1958Y912D01*
X1958Y914D01*
X1956Y914D01*
X1956Y916D01*
X1952Y916D01*
X1952Y918D01*
X1950Y918D01*
X1950Y920D01*
X1936Y920D01*
X1936Y922D01*
X1930Y922D01*
X1930Y924D01*
X1928Y924D01*
X1928Y926D01*
X1926Y926D01*
X1926Y928D01*
X1922Y928D01*
X1922Y932D01*
X1920Y932D01*
X1920Y934D01*
X1918Y934D01*
X1918Y938D01*
X1916Y938D01*
X1916Y946D01*
X1914Y946D01*
X1914Y952D01*
X1916Y952D01*
X1916Y960D01*
X1918Y960D01*
X1918Y964D01*
X1920Y964D01*
X1920Y968D01*
X1922Y968D01*
X1922Y970D01*
X1924Y970D01*
X1924Y972D01*
X1926Y972D01*
X1926Y974D01*
X1930Y974D01*
X1930Y976D01*
X1934Y976D01*
X1934Y978D01*
X40Y978D01*
G37*
D02*
G36*
X1962Y974D02*
X1962Y972D01*
X1964Y972D01*
X1964Y970D01*
X1966Y970D01*
X1966Y968D01*
X1968Y968D01*
X1968Y966D01*
X1970Y966D01*
X1970Y962D01*
X1972Y962D01*
X1972Y956D01*
X1974Y956D01*
X1974Y946D01*
X1976Y946D01*
X1976Y944D01*
X2250Y944D01*
X2250Y948D01*
X2252Y948D01*
X2252Y950D01*
X2254Y950D01*
X2254Y954D01*
X2256Y954D01*
X2256Y956D01*
X2258Y956D01*
X2258Y958D01*
X2260Y958D01*
X2260Y960D01*
X2262Y960D01*
X2262Y962D01*
X2264Y962D01*
X2264Y964D01*
X2266Y964D01*
X2266Y966D01*
X2270Y966D01*
X2270Y968D01*
X2274Y968D01*
X2274Y970D01*
X2278Y970D01*
X2278Y972D01*
X2284Y972D01*
X2284Y974D01*
X1962Y974D01*
G37*
D02*
G36*
X40Y826D02*
X40Y696D01*
X250Y696D01*
X250Y698D01*
X242Y698D01*
X242Y700D01*
X236Y700D01*
X236Y702D01*
X230Y702D01*
X230Y704D01*
X228Y704D01*
X228Y706D01*
X224Y706D01*
X224Y708D01*
X222Y708D01*
X222Y710D01*
X218Y710D01*
X218Y712D01*
X216Y712D01*
X216Y714D01*
X214Y714D01*
X214Y716D01*
X212Y716D01*
X212Y718D01*
X210Y718D01*
X210Y720D01*
X208Y720D01*
X208Y724D01*
X206Y724D01*
X206Y726D01*
X204Y726D01*
X204Y730D01*
X202Y730D01*
X202Y732D01*
X200Y732D01*
X200Y738D01*
X198Y738D01*
X198Y744D01*
X196Y744D01*
X196Y754D01*
X194Y754D01*
X194Y770D01*
X196Y770D01*
X196Y780D01*
X198Y780D01*
X198Y786D01*
X200Y786D01*
X200Y790D01*
X202Y790D01*
X202Y794D01*
X204Y794D01*
X204Y796D01*
X206Y796D01*
X206Y800D01*
X208Y800D01*
X208Y802D01*
X210Y802D01*
X210Y804D01*
X212Y804D01*
X212Y806D01*
X214Y806D01*
X214Y808D01*
X216Y808D01*
X216Y810D01*
X218Y810D01*
X218Y812D01*
X220Y812D01*
X220Y814D01*
X222Y814D01*
X222Y816D01*
X226Y816D01*
X226Y818D01*
X230Y818D01*
X230Y820D01*
X234Y820D01*
X234Y822D01*
X240Y822D01*
X240Y824D01*
X246Y824D01*
X246Y826D01*
X40Y826D01*
G37*
D02*
G36*
X40Y696D02*
X40Y694D01*
X2256Y694D01*
X2256Y696D01*
X40Y696D01*
G37*
D02*
G36*
X40Y696D02*
X40Y694D01*
X2256Y694D01*
X2256Y696D01*
X40Y696D01*
G37*
D02*
G36*
X40Y694D02*
X40Y676D01*
X2286Y676D01*
X2286Y678D01*
X2278Y678D01*
X2278Y680D01*
X2274Y680D01*
X2274Y682D01*
X2270Y682D01*
X2270Y684D01*
X2266Y684D01*
X2266Y686D01*
X2264Y686D01*
X2264Y688D01*
X2262Y688D01*
X2262Y690D01*
X2260Y690D01*
X2260Y692D01*
X2258Y692D01*
X2258Y694D01*
X40Y694D01*
G37*
D02*
G36*
X40Y676D02*
X40Y674D01*
X2478Y674D01*
X2478Y676D01*
X40Y676D01*
G37*
D02*
G36*
X40Y676D02*
X40Y674D01*
X2478Y674D01*
X2478Y676D01*
X40Y676D01*
G37*
D02*
G36*
X40Y674D02*
X40Y616D01*
X454Y616D01*
X454Y614D01*
X462Y614D01*
X462Y612D01*
X464Y612D01*
X464Y610D01*
X468Y610D01*
X468Y608D01*
X472Y608D01*
X472Y606D01*
X474Y606D01*
X474Y604D01*
X476Y604D01*
X476Y602D01*
X478Y602D01*
X478Y598D01*
X480Y598D01*
X480Y596D01*
X482Y596D01*
X482Y592D01*
X484Y592D01*
X484Y586D01*
X486Y586D01*
X486Y578D01*
X488Y578D01*
X488Y574D01*
X2304Y574D01*
X2304Y572D01*
X2310Y572D01*
X2310Y570D01*
X2316Y570D01*
X2316Y568D01*
X2320Y568D01*
X2320Y566D01*
X2322Y566D01*
X2322Y564D01*
X2326Y564D01*
X2326Y562D01*
X2328Y562D01*
X2328Y560D01*
X2330Y560D01*
X2330Y558D01*
X2332Y558D01*
X2332Y554D01*
X2334Y554D01*
X2334Y552D01*
X2336Y552D01*
X2336Y548D01*
X2338Y548D01*
X2338Y546D01*
X2340Y546D01*
X2340Y540D01*
X2342Y540D01*
X2342Y530D01*
X2344Y530D01*
X2344Y520D01*
X2342Y520D01*
X2342Y510D01*
X2340Y510D01*
X2340Y506D01*
X2338Y506D01*
X2338Y502D01*
X2336Y502D01*
X2336Y498D01*
X2334Y498D01*
X2334Y496D01*
X2332Y496D01*
X2332Y492D01*
X2330Y492D01*
X2330Y490D01*
X2328Y490D01*
X2328Y488D01*
X2324Y488D01*
X2324Y486D01*
X2322Y486D01*
X2322Y464D01*
X2326Y464D01*
X2326Y462D01*
X2328Y462D01*
X2328Y460D01*
X2330Y460D01*
X2330Y458D01*
X2332Y458D01*
X2332Y454D01*
X2334Y454D01*
X2334Y452D01*
X2336Y452D01*
X2336Y448D01*
X2338Y448D01*
X2338Y446D01*
X2340Y446D01*
X2340Y440D01*
X2342Y440D01*
X2342Y430D01*
X2344Y430D01*
X2344Y420D01*
X2342Y420D01*
X2342Y410D01*
X2340Y410D01*
X2340Y406D01*
X2338Y406D01*
X2338Y402D01*
X2336Y402D01*
X2336Y398D01*
X2334Y398D01*
X2334Y396D01*
X2332Y396D01*
X2332Y392D01*
X2330Y392D01*
X2330Y390D01*
X2328Y390D01*
X2328Y388D01*
X2324Y388D01*
X2324Y386D01*
X2322Y386D01*
X2322Y364D01*
X2326Y364D01*
X2326Y362D01*
X2328Y362D01*
X2328Y360D01*
X2330Y360D01*
X2330Y358D01*
X2332Y358D01*
X2332Y354D01*
X2334Y354D01*
X2334Y352D01*
X2336Y352D01*
X2336Y348D01*
X2338Y348D01*
X2338Y346D01*
X2340Y346D01*
X2340Y340D01*
X2342Y340D01*
X2342Y330D01*
X2344Y330D01*
X2344Y320D01*
X2342Y320D01*
X2342Y310D01*
X2340Y310D01*
X2340Y306D01*
X2338Y306D01*
X2338Y302D01*
X2336Y302D01*
X2336Y298D01*
X2334Y298D01*
X2334Y296D01*
X2332Y296D01*
X2332Y292D01*
X2330Y292D01*
X2330Y290D01*
X2328Y290D01*
X2328Y288D01*
X2324Y288D01*
X2324Y286D01*
X2322Y286D01*
X2322Y284D01*
X2318Y284D01*
X2318Y282D01*
X2316Y282D01*
X2316Y280D01*
X2310Y280D01*
X2310Y278D01*
X2304Y278D01*
X2304Y276D01*
X2478Y276D01*
X2478Y674D01*
X40Y674D01*
G37*
D02*
G36*
X40Y616D02*
X40Y432D01*
X358Y432D01*
X358Y434D01*
X352Y434D01*
X352Y436D01*
X346Y436D01*
X346Y438D01*
X344Y438D01*
X344Y440D01*
X340Y440D01*
X340Y442D01*
X338Y442D01*
X338Y444D01*
X336Y444D01*
X336Y446D01*
X334Y446D01*
X334Y448D01*
X332Y448D01*
X332Y450D01*
X330Y450D01*
X330Y454D01*
X328Y454D01*
X328Y458D01*
X326Y458D01*
X326Y464D01*
X324Y464D01*
X324Y486D01*
X326Y486D01*
X326Y492D01*
X328Y492D01*
X328Y496D01*
X330Y496D01*
X330Y500D01*
X332Y500D01*
X332Y502D01*
X334Y502D01*
X334Y504D01*
X336Y504D01*
X336Y506D01*
X338Y506D01*
X338Y508D01*
X340Y508D01*
X340Y510D01*
X342Y510D01*
X342Y512D01*
X346Y512D01*
X346Y514D01*
X350Y514D01*
X350Y534D01*
X348Y534D01*
X348Y536D01*
X344Y536D01*
X344Y538D01*
X342Y538D01*
X342Y540D01*
X338Y540D01*
X338Y542D01*
X336Y542D01*
X336Y544D01*
X334Y544D01*
X334Y546D01*
X332Y546D01*
X332Y550D01*
X330Y550D01*
X330Y552D01*
X328Y552D01*
X328Y556D01*
X326Y556D01*
X326Y562D01*
X324Y562D01*
X324Y584D01*
X326Y584D01*
X326Y590D01*
X328Y590D01*
X328Y594D01*
X330Y594D01*
X330Y598D01*
X332Y598D01*
X332Y600D01*
X334Y600D01*
X334Y602D01*
X336Y602D01*
X336Y604D01*
X338Y604D01*
X338Y606D01*
X340Y606D01*
X340Y608D01*
X342Y608D01*
X342Y610D01*
X346Y610D01*
X346Y612D01*
X350Y612D01*
X350Y614D01*
X356Y614D01*
X356Y616D01*
X40Y616D01*
G37*
D02*
G36*
X376Y616D02*
X376Y614D01*
X384Y614D01*
X384Y612D01*
X386Y612D01*
X386Y610D01*
X390Y610D01*
X390Y608D01*
X394Y608D01*
X394Y606D01*
X396Y606D01*
X396Y604D01*
X416Y604D01*
X416Y606D01*
X418Y606D01*
X418Y608D01*
X420Y608D01*
X420Y610D01*
X424Y610D01*
X424Y612D01*
X428Y612D01*
X428Y614D01*
X434Y614D01*
X434Y616D01*
X376Y616D01*
G37*
D02*
G36*
X488Y574D02*
X488Y568D01*
X486Y568D01*
X486Y560D01*
X484Y560D01*
X484Y554D01*
X482Y554D01*
X482Y552D01*
X480Y552D01*
X480Y548D01*
X478Y548D01*
X478Y546D01*
X476Y546D01*
X476Y544D01*
X474Y544D01*
X474Y542D01*
X472Y542D01*
X472Y540D01*
X470Y540D01*
X470Y538D01*
X466Y538D01*
X466Y536D01*
X464Y536D01*
X464Y534D01*
X460Y534D01*
X460Y514D01*
X464Y514D01*
X464Y512D01*
X468Y512D01*
X468Y510D01*
X470Y510D01*
X470Y508D01*
X472Y508D01*
X472Y506D01*
X476Y506D01*
X476Y502D01*
X508Y502D01*
X508Y500D01*
X854Y500D01*
X854Y498D01*
X858Y498D01*
X858Y496D01*
X860Y496D01*
X860Y494D01*
X864Y494D01*
X864Y492D01*
X866Y492D01*
X866Y490D01*
X870Y490D01*
X870Y488D01*
X872Y488D01*
X872Y486D01*
X876Y486D01*
X876Y484D01*
X880Y484D01*
X880Y482D01*
X882Y482D01*
X882Y480D01*
X886Y480D01*
X886Y478D01*
X888Y478D01*
X888Y476D01*
X892Y476D01*
X892Y474D01*
X1030Y474D01*
X1030Y472D01*
X1036Y472D01*
X1036Y470D01*
X1040Y470D01*
X1040Y468D01*
X1044Y468D01*
X1044Y466D01*
X1048Y466D01*
X1048Y464D01*
X1050Y464D01*
X1050Y462D01*
X1052Y462D01*
X1052Y460D01*
X1054Y460D01*
X1054Y458D01*
X1056Y458D01*
X1056Y456D01*
X1058Y456D01*
X1058Y454D01*
X1060Y454D01*
X1060Y450D01*
X1062Y450D01*
X1062Y446D01*
X1064Y446D01*
X1064Y442D01*
X1066Y442D01*
X1066Y436D01*
X1068Y436D01*
X1068Y414D01*
X1066Y414D01*
X1066Y408D01*
X1064Y408D01*
X1064Y404D01*
X1062Y404D01*
X1062Y400D01*
X1060Y400D01*
X1060Y396D01*
X1058Y396D01*
X1058Y394D01*
X1056Y394D01*
X1056Y392D01*
X1054Y392D01*
X1054Y390D01*
X1052Y390D01*
X1052Y388D01*
X1050Y388D01*
X1050Y386D01*
X1048Y386D01*
X1048Y384D01*
X1044Y384D01*
X1044Y382D01*
X1040Y382D01*
X1040Y380D01*
X1036Y380D01*
X1036Y378D01*
X1028Y378D01*
X1028Y376D01*
X2018Y376D01*
X2018Y378D01*
X2020Y378D01*
X2020Y386D01*
X2022Y386D01*
X2022Y390D01*
X2024Y390D01*
X2024Y392D01*
X2026Y392D01*
X2026Y394D01*
X2028Y394D01*
X2028Y396D01*
X2030Y396D01*
X2030Y398D01*
X2032Y398D01*
X2032Y400D01*
X2034Y400D01*
X2034Y402D01*
X2036Y402D01*
X2036Y404D01*
X2038Y404D01*
X2038Y406D01*
X2040Y406D01*
X2040Y408D01*
X2042Y408D01*
X2042Y410D01*
X2044Y410D01*
X2044Y412D01*
X2046Y412D01*
X2046Y414D01*
X2048Y414D01*
X2048Y416D01*
X2050Y416D01*
X2050Y418D01*
X2052Y418D01*
X2052Y420D01*
X2054Y420D01*
X2054Y422D01*
X2056Y422D01*
X2056Y424D01*
X2058Y424D01*
X2058Y426D01*
X2060Y426D01*
X2060Y428D01*
X2062Y428D01*
X2062Y430D01*
X2064Y430D01*
X2064Y432D01*
X2066Y432D01*
X2066Y434D01*
X2068Y434D01*
X2068Y436D01*
X2070Y436D01*
X2070Y438D01*
X2072Y438D01*
X2072Y440D01*
X2074Y440D01*
X2074Y442D01*
X2076Y442D01*
X2076Y444D01*
X2078Y444D01*
X2078Y446D01*
X2080Y446D01*
X2080Y448D01*
X2084Y448D01*
X2084Y450D01*
X2232Y450D01*
X2232Y452D01*
X2254Y452D01*
X2254Y454D01*
X2256Y454D01*
X2256Y456D01*
X2258Y456D01*
X2258Y458D01*
X2260Y458D01*
X2260Y460D01*
X2262Y460D01*
X2262Y462D01*
X2264Y462D01*
X2264Y464D01*
X2266Y464D01*
X2266Y486D01*
X2264Y486D01*
X2264Y488D01*
X2262Y488D01*
X2262Y490D01*
X2260Y490D01*
X2260Y492D01*
X2258Y492D01*
X2258Y494D01*
X2256Y494D01*
X2256Y496D01*
X2254Y496D01*
X2254Y500D01*
X2252Y500D01*
X2252Y502D01*
X2250Y502D01*
X2250Y506D01*
X2248Y506D01*
X2248Y514D01*
X2246Y514D01*
X2246Y536D01*
X2248Y536D01*
X2248Y544D01*
X2250Y544D01*
X2250Y548D01*
X2252Y548D01*
X2252Y550D01*
X2254Y550D01*
X2254Y554D01*
X2256Y554D01*
X2256Y556D01*
X2258Y556D01*
X2258Y558D01*
X2260Y558D01*
X2260Y560D01*
X2262Y560D01*
X2262Y562D01*
X2264Y562D01*
X2264Y564D01*
X2266Y564D01*
X2266Y566D01*
X2270Y566D01*
X2270Y568D01*
X2274Y568D01*
X2274Y570D01*
X2278Y570D01*
X2278Y572D01*
X2284Y572D01*
X2284Y574D01*
X488Y574D01*
G37*
D02*
G36*
X930Y474D02*
X930Y472D01*
X936Y472D01*
X936Y470D01*
X940Y470D01*
X940Y468D01*
X944Y468D01*
X944Y466D01*
X948Y466D01*
X948Y464D01*
X950Y464D01*
X950Y462D01*
X952Y462D01*
X952Y460D01*
X954Y460D01*
X954Y458D01*
X956Y458D01*
X956Y456D01*
X958Y456D01*
X958Y454D01*
X960Y454D01*
X960Y452D01*
X980Y452D01*
X980Y456D01*
X982Y456D01*
X982Y458D01*
X984Y458D01*
X984Y460D01*
X986Y460D01*
X986Y462D01*
X988Y462D01*
X988Y464D01*
X992Y464D01*
X992Y466D01*
X994Y466D01*
X994Y468D01*
X998Y468D01*
X998Y470D01*
X1002Y470D01*
X1002Y472D01*
X1010Y472D01*
X1010Y474D01*
X930Y474D01*
G37*
D02*
G36*
X478Y450D02*
X478Y448D01*
X476Y448D01*
X476Y444D01*
X472Y444D01*
X472Y442D01*
X470Y442D01*
X470Y440D01*
X468Y440D01*
X468Y438D01*
X464Y438D01*
X464Y436D01*
X460Y436D01*
X460Y434D01*
X452Y434D01*
X452Y432D01*
X860Y432D01*
X860Y434D01*
X858Y434D01*
X858Y436D01*
X854Y436D01*
X854Y438D01*
X852Y438D01*
X852Y440D01*
X848Y440D01*
X848Y442D01*
X846Y442D01*
X846Y444D01*
X842Y444D01*
X842Y446D01*
X840Y446D01*
X840Y448D01*
X500Y448D01*
X500Y450D01*
X478Y450D01*
G37*
D02*
G36*
X394Y444D02*
X394Y442D01*
X392Y442D01*
X392Y440D01*
X390Y440D01*
X390Y438D01*
X386Y438D01*
X386Y436D01*
X382Y436D01*
X382Y434D01*
X374Y434D01*
X374Y432D01*
X436Y432D01*
X436Y434D01*
X430Y434D01*
X430Y436D01*
X424Y436D01*
X424Y438D01*
X422Y438D01*
X422Y440D01*
X418Y440D01*
X418Y442D01*
X416Y442D01*
X416Y444D01*
X394Y444D01*
G37*
D02*
G36*
X40Y432D02*
X40Y430D01*
X864Y430D01*
X864Y432D01*
X40Y432D01*
G37*
D02*
G36*
X40Y432D02*
X40Y430D01*
X864Y430D01*
X864Y432D01*
X40Y432D01*
G37*
D02*
G36*
X40Y432D02*
X40Y430D01*
X864Y430D01*
X864Y432D01*
X40Y432D01*
G37*
D02*
G36*
X40Y430D02*
X40Y376D01*
X910Y376D01*
X910Y378D01*
X904Y378D01*
X904Y380D01*
X898Y380D01*
X898Y382D01*
X894Y382D01*
X894Y384D01*
X892Y384D01*
X892Y386D01*
X890Y386D01*
X890Y388D01*
X886Y388D01*
X886Y390D01*
X884Y390D01*
X884Y392D01*
X882Y392D01*
X882Y396D01*
X880Y396D01*
X880Y398D01*
X878Y398D01*
X878Y402D01*
X876Y402D01*
X876Y404D01*
X874Y404D01*
X874Y410D01*
X872Y410D01*
X872Y418D01*
X870Y418D01*
X870Y428D01*
X866Y428D01*
X866Y430D01*
X40Y430D01*
G37*
D02*
G36*
X960Y398D02*
X960Y396D01*
X958Y396D01*
X958Y394D01*
X956Y394D01*
X956Y392D01*
X954Y392D01*
X954Y390D01*
X952Y390D01*
X952Y388D01*
X950Y388D01*
X950Y386D01*
X948Y386D01*
X948Y384D01*
X944Y384D01*
X944Y382D01*
X940Y382D01*
X940Y380D01*
X936Y380D01*
X936Y378D01*
X928Y378D01*
X928Y376D01*
X1010Y376D01*
X1010Y378D01*
X1004Y378D01*
X1004Y380D01*
X998Y380D01*
X998Y382D01*
X994Y382D01*
X994Y384D01*
X992Y384D01*
X992Y386D01*
X990Y386D01*
X990Y388D01*
X986Y388D01*
X986Y390D01*
X984Y390D01*
X984Y392D01*
X982Y392D01*
X982Y396D01*
X980Y396D01*
X980Y398D01*
X960Y398D01*
G37*
D02*
G36*
X2102Y398D02*
X2102Y396D01*
X2100Y396D01*
X2100Y394D01*
X2098Y394D01*
X2098Y392D01*
X2096Y392D01*
X2096Y390D01*
X2094Y390D01*
X2094Y388D01*
X2092Y388D01*
X2092Y386D01*
X2090Y386D01*
X2090Y384D01*
X2088Y384D01*
X2088Y382D01*
X2086Y382D01*
X2086Y380D01*
X2084Y380D01*
X2084Y378D01*
X2082Y378D01*
X2082Y376D01*
X2080Y376D01*
X2080Y374D01*
X2078Y374D01*
X2078Y372D01*
X2076Y372D01*
X2076Y370D01*
X2074Y370D01*
X2074Y368D01*
X2072Y368D01*
X2072Y366D01*
X2070Y366D01*
X2070Y276D01*
X2286Y276D01*
X2286Y278D01*
X2278Y278D01*
X2278Y280D01*
X2274Y280D01*
X2274Y282D01*
X2270Y282D01*
X2270Y284D01*
X2266Y284D01*
X2266Y286D01*
X2264Y286D01*
X2264Y288D01*
X2262Y288D01*
X2262Y290D01*
X2260Y290D01*
X2260Y292D01*
X2258Y292D01*
X2258Y294D01*
X2256Y294D01*
X2256Y296D01*
X2254Y296D01*
X2254Y300D01*
X2252Y300D01*
X2252Y302D01*
X2250Y302D01*
X2250Y306D01*
X2248Y306D01*
X2248Y314D01*
X2246Y314D01*
X2246Y336D01*
X2248Y336D01*
X2248Y344D01*
X2250Y344D01*
X2250Y348D01*
X2252Y348D01*
X2252Y350D01*
X2254Y350D01*
X2254Y354D01*
X2256Y354D01*
X2256Y356D01*
X2258Y356D01*
X2258Y358D01*
X2260Y358D01*
X2260Y360D01*
X2262Y360D01*
X2262Y362D01*
X2264Y362D01*
X2264Y364D01*
X2266Y364D01*
X2266Y386D01*
X2264Y386D01*
X2264Y388D01*
X2262Y388D01*
X2262Y390D01*
X2260Y390D01*
X2260Y392D01*
X2258Y392D01*
X2258Y394D01*
X2256Y394D01*
X2256Y396D01*
X2254Y396D01*
X2254Y398D01*
X2102Y398D01*
G37*
D02*
G36*
X40Y376D02*
X40Y374D01*
X2018Y374D01*
X2018Y376D01*
X40Y376D01*
G37*
D02*
G36*
X40Y376D02*
X40Y374D01*
X2018Y374D01*
X2018Y376D01*
X40Y376D01*
G37*
D02*
G36*
X40Y376D02*
X40Y374D01*
X2018Y374D01*
X2018Y376D01*
X40Y376D01*
G37*
D02*
G36*
X40Y374D02*
X40Y352D01*
X272Y352D01*
X272Y350D01*
X280Y350D01*
X280Y348D01*
X286Y348D01*
X286Y346D01*
X290Y346D01*
X290Y344D01*
X292Y344D01*
X292Y342D01*
X296Y342D01*
X296Y340D01*
X298Y340D01*
X298Y338D01*
X302Y338D01*
X302Y336D01*
X304Y336D01*
X304Y334D01*
X306Y334D01*
X306Y332D01*
X308Y332D01*
X308Y330D01*
X310Y330D01*
X310Y326D01*
X312Y326D01*
X312Y324D01*
X314Y324D01*
X314Y320D01*
X316Y320D01*
X316Y318D01*
X318Y318D01*
X318Y314D01*
X320Y314D01*
X320Y308D01*
X322Y308D01*
X322Y300D01*
X324Y300D01*
X324Y274D01*
X322Y274D01*
X322Y266D01*
X320Y266D01*
X320Y262D01*
X318Y262D01*
X318Y258D01*
X316Y258D01*
X316Y254D01*
X314Y254D01*
X314Y250D01*
X312Y250D01*
X312Y248D01*
X310Y248D01*
X310Y246D01*
X308Y246D01*
X308Y244D01*
X306Y244D01*
X306Y242D01*
X304Y242D01*
X304Y240D01*
X302Y240D01*
X302Y238D01*
X300Y238D01*
X300Y236D01*
X298Y236D01*
X298Y234D01*
X294Y234D01*
X294Y232D01*
X292Y232D01*
X292Y230D01*
X288Y230D01*
X288Y228D01*
X284Y228D01*
X284Y226D01*
X278Y226D01*
X278Y224D01*
X268Y224D01*
X268Y222D01*
X1680Y222D01*
X1680Y224D01*
X1682Y224D01*
X1682Y226D01*
X1684Y226D01*
X1684Y228D01*
X1686Y228D01*
X1686Y230D01*
X1688Y230D01*
X1688Y232D01*
X1690Y232D01*
X1690Y234D01*
X1692Y234D01*
X1692Y236D01*
X1694Y236D01*
X1694Y238D01*
X1696Y238D01*
X1696Y240D01*
X1698Y240D01*
X1698Y242D01*
X1700Y242D01*
X1700Y244D01*
X1702Y244D01*
X1702Y246D01*
X1706Y246D01*
X1706Y248D01*
X1710Y248D01*
X1710Y250D01*
X2018Y250D01*
X2018Y374D01*
X40Y374D01*
G37*
D02*
G36*
X40Y352D02*
X40Y224D01*
X130Y224D01*
X130Y222D01*
X250Y222D01*
X250Y224D01*
X242Y224D01*
X242Y226D01*
X236Y226D01*
X236Y228D01*
X230Y228D01*
X230Y230D01*
X228Y230D01*
X228Y232D01*
X224Y232D01*
X224Y234D01*
X222Y234D01*
X222Y236D01*
X218Y236D01*
X218Y238D01*
X216Y238D01*
X216Y240D01*
X214Y240D01*
X214Y242D01*
X212Y242D01*
X212Y244D01*
X210Y244D01*
X210Y246D01*
X208Y246D01*
X208Y250D01*
X206Y250D01*
X206Y252D01*
X204Y252D01*
X204Y256D01*
X202Y256D01*
X202Y258D01*
X200Y258D01*
X200Y264D01*
X198Y264D01*
X198Y270D01*
X196Y270D01*
X196Y280D01*
X194Y280D01*
X194Y296D01*
X196Y296D01*
X196Y306D01*
X198Y306D01*
X198Y312D01*
X200Y312D01*
X200Y316D01*
X202Y316D01*
X202Y320D01*
X204Y320D01*
X204Y322D01*
X206Y322D01*
X206Y326D01*
X208Y326D01*
X208Y328D01*
X210Y328D01*
X210Y330D01*
X212Y330D01*
X212Y332D01*
X214Y332D01*
X214Y334D01*
X216Y334D01*
X216Y336D01*
X218Y336D01*
X218Y338D01*
X220Y338D01*
X220Y340D01*
X222Y340D01*
X222Y342D01*
X226Y342D01*
X226Y344D01*
X230Y344D01*
X230Y346D01*
X234Y346D01*
X234Y348D01*
X240Y348D01*
X240Y350D01*
X246Y350D01*
X246Y352D01*
X40Y352D01*
G37*
D02*
G36*
X2070Y276D02*
X2070Y274D01*
X2478Y274D01*
X2478Y276D01*
X2070Y276D01*
G37*
D02*
G36*
X2070Y276D02*
X2070Y274D01*
X2478Y274D01*
X2478Y276D01*
X2070Y276D01*
G37*
D02*
G36*
X2070Y274D02*
X2070Y224D01*
X2406Y224D01*
X2406Y222D01*
X2416Y222D01*
X2416Y220D01*
X2424Y220D01*
X2424Y218D01*
X2430Y218D01*
X2430Y216D01*
X2434Y216D01*
X2434Y214D01*
X2438Y214D01*
X2438Y212D01*
X2442Y212D01*
X2442Y210D01*
X2446Y210D01*
X2446Y208D01*
X2450Y208D01*
X2450Y206D01*
X2452Y206D01*
X2452Y204D01*
X2454Y204D01*
X2454Y202D01*
X2458Y202D01*
X2458Y200D01*
X2478Y200D01*
X2478Y274D01*
X2070Y274D01*
G37*
D02*
G36*
X40Y224D02*
X40Y202D01*
X60Y202D01*
X60Y204D01*
X62Y204D01*
X62Y206D01*
X64Y206D01*
X64Y208D01*
X68Y208D01*
X68Y210D01*
X72Y210D01*
X72Y212D01*
X74Y212D01*
X74Y214D01*
X80Y214D01*
X80Y216D01*
X84Y216D01*
X84Y218D01*
X90Y218D01*
X90Y220D01*
X98Y220D01*
X98Y222D01*
X108Y222D01*
X108Y224D01*
X40Y224D01*
G37*
D02*
G36*
X2070Y224D02*
X2070Y174D01*
X2154Y174D01*
X2154Y172D01*
X2160Y172D01*
X2160Y170D01*
X2166Y170D01*
X2166Y168D01*
X2170Y168D01*
X2170Y166D01*
X2172Y166D01*
X2172Y164D01*
X2176Y164D01*
X2176Y162D01*
X2178Y162D01*
X2178Y160D01*
X2180Y160D01*
X2180Y158D01*
X2182Y158D01*
X2182Y154D01*
X2184Y154D01*
X2184Y152D01*
X2186Y152D01*
X2186Y148D01*
X2188Y148D01*
X2188Y146D01*
X2190Y146D01*
X2190Y140D01*
X2192Y140D01*
X2192Y130D01*
X2194Y130D01*
X2194Y120D01*
X2192Y120D01*
X2192Y110D01*
X2190Y110D01*
X2190Y106D01*
X2188Y106D01*
X2188Y102D01*
X2186Y102D01*
X2186Y98D01*
X2184Y98D01*
X2184Y96D01*
X2182Y96D01*
X2182Y92D01*
X2180Y92D01*
X2180Y90D01*
X2178Y90D01*
X2178Y88D01*
X2174Y88D01*
X2174Y86D01*
X2172Y86D01*
X2172Y84D01*
X2168Y84D01*
X2168Y82D01*
X2166Y82D01*
X2166Y80D01*
X2160Y80D01*
X2160Y78D01*
X2154Y78D01*
X2154Y76D01*
X2308Y76D01*
X2308Y80D01*
X2306Y80D01*
X2306Y84D01*
X2304Y84D01*
X2304Y88D01*
X2302Y88D01*
X2302Y94D01*
X2300Y94D01*
X2300Y100D01*
X2298Y100D01*
X2298Y110D01*
X2296Y110D01*
X2296Y140D01*
X2298Y140D01*
X2298Y150D01*
X2300Y150D01*
X2300Y156D01*
X2302Y156D01*
X2302Y162D01*
X2304Y162D01*
X2304Y166D01*
X2306Y166D01*
X2306Y170D01*
X2308Y170D01*
X2308Y174D01*
X2310Y174D01*
X2310Y178D01*
X2312Y178D01*
X2312Y180D01*
X2314Y180D01*
X2314Y184D01*
X2316Y184D01*
X2316Y186D01*
X2318Y186D01*
X2318Y188D01*
X2320Y188D01*
X2320Y190D01*
X2322Y190D01*
X2322Y192D01*
X2324Y192D01*
X2324Y196D01*
X2328Y196D01*
X2328Y198D01*
X2330Y198D01*
X2330Y200D01*
X2332Y200D01*
X2332Y202D01*
X2334Y202D01*
X2334Y204D01*
X2336Y204D01*
X2336Y206D01*
X2340Y206D01*
X2340Y208D01*
X2342Y208D01*
X2342Y210D01*
X2346Y210D01*
X2346Y212D01*
X2350Y212D01*
X2350Y214D01*
X2354Y214D01*
X2354Y216D01*
X2358Y216D01*
X2358Y218D01*
X2364Y218D01*
X2364Y220D01*
X2372Y220D01*
X2372Y222D01*
X2384Y222D01*
X2384Y224D01*
X2070Y224D01*
G37*
D02*
G36*
X142Y222D02*
X142Y220D01*
X1678Y220D01*
X1678Y222D01*
X142Y222D01*
G37*
D02*
G36*
X142Y222D02*
X142Y220D01*
X1678Y220D01*
X1678Y222D01*
X142Y222D01*
G37*
D02*
G36*
X150Y220D02*
X150Y218D01*
X154Y218D01*
X154Y216D01*
X160Y216D01*
X160Y214D01*
X164Y214D01*
X164Y212D01*
X168Y212D01*
X168Y210D01*
X170Y210D01*
X170Y208D01*
X174Y208D01*
X174Y206D01*
X176Y206D01*
X176Y204D01*
X180Y204D01*
X180Y202D01*
X182Y202D01*
X182Y200D01*
X184Y200D01*
X184Y198D01*
X186Y198D01*
X186Y196D01*
X188Y196D01*
X188Y194D01*
X190Y194D01*
X190Y192D01*
X192Y192D01*
X192Y190D01*
X194Y190D01*
X194Y188D01*
X196Y188D01*
X196Y186D01*
X198Y186D01*
X198Y182D01*
X200Y182D01*
X200Y180D01*
X202Y180D01*
X202Y178D01*
X204Y178D01*
X204Y174D01*
X1580Y174D01*
X1580Y172D01*
X1586Y172D01*
X1586Y170D01*
X1590Y170D01*
X1590Y168D01*
X1594Y168D01*
X1594Y166D01*
X1598Y166D01*
X1598Y164D01*
X1600Y164D01*
X1600Y162D01*
X1602Y162D01*
X1602Y160D01*
X1604Y160D01*
X1604Y158D01*
X1606Y158D01*
X1606Y156D01*
X1608Y156D01*
X1608Y154D01*
X1610Y154D01*
X1610Y152D01*
X1630Y152D01*
X1630Y156D01*
X1632Y156D01*
X1632Y158D01*
X1634Y158D01*
X1634Y160D01*
X1636Y160D01*
X1636Y162D01*
X1638Y162D01*
X1638Y164D01*
X1642Y164D01*
X1642Y166D01*
X1644Y166D01*
X1644Y182D01*
X1646Y182D01*
X1646Y188D01*
X1648Y188D01*
X1648Y190D01*
X1650Y190D01*
X1650Y194D01*
X1652Y194D01*
X1652Y196D01*
X1654Y196D01*
X1654Y198D01*
X1656Y198D01*
X1656Y200D01*
X1658Y200D01*
X1658Y202D01*
X1660Y202D01*
X1660Y204D01*
X1662Y204D01*
X1662Y206D01*
X1664Y206D01*
X1664Y208D01*
X1666Y208D01*
X1666Y210D01*
X1668Y210D01*
X1668Y212D01*
X1670Y212D01*
X1670Y214D01*
X1672Y214D01*
X1672Y216D01*
X1674Y216D01*
X1674Y218D01*
X1676Y218D01*
X1676Y220D01*
X150Y220D01*
G37*
D02*
G36*
X1728Y198D02*
X1728Y196D01*
X1726Y196D01*
X1726Y194D01*
X1724Y194D01*
X1724Y192D01*
X1722Y192D01*
X1722Y190D01*
X1720Y190D01*
X1720Y188D01*
X1718Y188D01*
X1718Y186D01*
X1716Y186D01*
X1716Y184D01*
X1714Y184D01*
X1714Y182D01*
X1712Y182D01*
X1712Y180D01*
X1710Y180D01*
X1710Y178D01*
X1708Y178D01*
X1708Y176D01*
X1706Y176D01*
X1706Y174D01*
X1954Y174D01*
X1954Y172D01*
X1960Y172D01*
X1960Y170D01*
X1966Y170D01*
X1966Y168D01*
X1970Y168D01*
X1970Y166D01*
X1972Y166D01*
X1972Y164D01*
X1976Y164D01*
X1976Y162D01*
X1978Y162D01*
X1978Y160D01*
X1980Y160D01*
X1980Y158D01*
X1982Y158D01*
X1982Y154D01*
X1984Y154D01*
X1984Y152D01*
X2004Y152D01*
X2004Y154D01*
X2006Y154D01*
X2006Y156D01*
X2008Y156D01*
X2008Y176D01*
X2006Y176D01*
X2006Y178D01*
X2004Y178D01*
X2004Y180D01*
X2002Y180D01*
X2002Y182D01*
X2000Y182D01*
X2000Y184D01*
X1998Y184D01*
X1998Y186D01*
X1994Y186D01*
X1994Y188D01*
X1992Y188D01*
X1992Y190D01*
X1990Y190D01*
X1990Y192D01*
X1988Y192D01*
X1988Y194D01*
X1986Y194D01*
X1986Y196D01*
X1984Y196D01*
X1984Y198D01*
X1728Y198D01*
G37*
D02*
G36*
X206Y174D02*
X206Y170D01*
X208Y170D01*
X208Y166D01*
X210Y166D01*
X210Y162D01*
X212Y162D01*
X212Y156D01*
X214Y156D01*
X214Y148D01*
X216Y148D01*
X216Y138D01*
X218Y138D01*
X218Y112D01*
X216Y112D01*
X216Y102D01*
X214Y102D01*
X214Y94D01*
X212Y94D01*
X212Y88D01*
X210Y88D01*
X210Y84D01*
X208Y84D01*
X208Y80D01*
X206Y80D01*
X206Y76D01*
X770Y76D01*
X770Y174D01*
X206Y174D01*
G37*
D02*
G36*
X868Y174D02*
X868Y162D01*
X888Y162D01*
X888Y164D01*
X892Y164D01*
X892Y166D01*
X894Y166D01*
X894Y168D01*
X898Y168D01*
X898Y170D01*
X902Y170D01*
X902Y172D01*
X910Y172D01*
X910Y174D01*
X868Y174D01*
G37*
D02*
G36*
X930Y174D02*
X930Y172D01*
X936Y172D01*
X936Y170D01*
X940Y170D01*
X940Y168D01*
X944Y168D01*
X944Y166D01*
X948Y166D01*
X948Y164D01*
X950Y164D01*
X950Y162D01*
X952Y162D01*
X952Y160D01*
X954Y160D01*
X954Y158D01*
X956Y158D01*
X956Y156D01*
X958Y156D01*
X958Y154D01*
X960Y154D01*
X960Y152D01*
X980Y152D01*
X980Y156D01*
X982Y156D01*
X982Y158D01*
X984Y158D01*
X984Y160D01*
X986Y160D01*
X986Y162D01*
X988Y162D01*
X988Y164D01*
X992Y164D01*
X992Y166D01*
X994Y166D01*
X994Y168D01*
X998Y168D01*
X998Y170D01*
X1002Y170D01*
X1002Y172D01*
X1010Y172D01*
X1010Y174D01*
X930Y174D01*
G37*
D02*
G36*
X1030Y174D02*
X1030Y172D01*
X1036Y172D01*
X1036Y170D01*
X1040Y170D01*
X1040Y168D01*
X1044Y168D01*
X1044Y166D01*
X1048Y166D01*
X1048Y164D01*
X1050Y164D01*
X1050Y162D01*
X1052Y162D01*
X1052Y160D01*
X1054Y160D01*
X1054Y158D01*
X1056Y158D01*
X1056Y156D01*
X1058Y156D01*
X1058Y154D01*
X1060Y154D01*
X1060Y150D01*
X1062Y150D01*
X1062Y146D01*
X1064Y146D01*
X1064Y142D01*
X1066Y142D01*
X1066Y136D01*
X1068Y136D01*
X1068Y114D01*
X1066Y114D01*
X1066Y108D01*
X1064Y108D01*
X1064Y104D01*
X1062Y104D01*
X1062Y100D01*
X1060Y100D01*
X1060Y96D01*
X1058Y96D01*
X1058Y94D01*
X1056Y94D01*
X1056Y92D01*
X1054Y92D01*
X1054Y90D01*
X1052Y90D01*
X1052Y88D01*
X1050Y88D01*
X1050Y86D01*
X1048Y86D01*
X1048Y84D01*
X1044Y84D01*
X1044Y82D01*
X1040Y82D01*
X1040Y80D01*
X1036Y80D01*
X1036Y78D01*
X1028Y78D01*
X1028Y76D01*
X1360Y76D01*
X1360Y78D01*
X1354Y78D01*
X1354Y80D01*
X1348Y80D01*
X1348Y82D01*
X1344Y82D01*
X1344Y84D01*
X1342Y84D01*
X1342Y86D01*
X1340Y86D01*
X1340Y88D01*
X1336Y88D01*
X1336Y90D01*
X1334Y90D01*
X1334Y92D01*
X1332Y92D01*
X1332Y96D01*
X1330Y96D01*
X1330Y98D01*
X1328Y98D01*
X1328Y102D01*
X1326Y102D01*
X1326Y104D01*
X1324Y104D01*
X1324Y110D01*
X1322Y110D01*
X1322Y118D01*
X1320Y118D01*
X1320Y132D01*
X1322Y132D01*
X1322Y140D01*
X1324Y140D01*
X1324Y146D01*
X1326Y146D01*
X1326Y150D01*
X1328Y150D01*
X1328Y152D01*
X1330Y152D01*
X1330Y156D01*
X1332Y156D01*
X1332Y158D01*
X1334Y158D01*
X1334Y160D01*
X1336Y160D01*
X1336Y162D01*
X1338Y162D01*
X1338Y164D01*
X1342Y164D01*
X1342Y166D01*
X1344Y166D01*
X1344Y168D01*
X1348Y168D01*
X1348Y170D01*
X1352Y170D01*
X1352Y172D01*
X1360Y172D01*
X1360Y174D01*
X1030Y174D01*
G37*
D02*
G36*
X1380Y174D02*
X1380Y172D01*
X1386Y172D01*
X1386Y170D01*
X1390Y170D01*
X1390Y168D01*
X1394Y168D01*
X1394Y166D01*
X1398Y166D01*
X1398Y164D01*
X1400Y164D01*
X1400Y162D01*
X1402Y162D01*
X1402Y160D01*
X1404Y160D01*
X1404Y158D01*
X1406Y158D01*
X1406Y156D01*
X1408Y156D01*
X1408Y154D01*
X1410Y154D01*
X1410Y152D01*
X1430Y152D01*
X1430Y156D01*
X1432Y156D01*
X1432Y158D01*
X1434Y158D01*
X1434Y160D01*
X1436Y160D01*
X1436Y162D01*
X1438Y162D01*
X1438Y164D01*
X1442Y164D01*
X1442Y166D01*
X1444Y166D01*
X1444Y168D01*
X1448Y168D01*
X1448Y170D01*
X1452Y170D01*
X1452Y172D01*
X1460Y172D01*
X1460Y174D01*
X1380Y174D01*
G37*
D02*
G36*
X1480Y174D02*
X1480Y172D01*
X1486Y172D01*
X1486Y170D01*
X1490Y170D01*
X1490Y168D01*
X1494Y168D01*
X1494Y166D01*
X1498Y166D01*
X1498Y164D01*
X1500Y164D01*
X1500Y162D01*
X1502Y162D01*
X1502Y160D01*
X1504Y160D01*
X1504Y158D01*
X1506Y158D01*
X1506Y156D01*
X1508Y156D01*
X1508Y154D01*
X1510Y154D01*
X1510Y152D01*
X1530Y152D01*
X1530Y156D01*
X1532Y156D01*
X1532Y158D01*
X1534Y158D01*
X1534Y160D01*
X1536Y160D01*
X1536Y162D01*
X1538Y162D01*
X1538Y164D01*
X1542Y164D01*
X1542Y166D01*
X1544Y166D01*
X1544Y168D01*
X1548Y168D01*
X1548Y170D01*
X1552Y170D01*
X1552Y172D01*
X1560Y172D01*
X1560Y174D01*
X1480Y174D01*
G37*
D02*
G36*
X1706Y174D02*
X1706Y156D01*
X1708Y156D01*
X1708Y154D01*
X1710Y154D01*
X1710Y150D01*
X1712Y150D01*
X1712Y146D01*
X1714Y146D01*
X1714Y142D01*
X1716Y142D01*
X1716Y136D01*
X1718Y136D01*
X1718Y114D01*
X1716Y114D01*
X1716Y108D01*
X1714Y108D01*
X1714Y104D01*
X1712Y104D01*
X1712Y100D01*
X1710Y100D01*
X1710Y96D01*
X1708Y96D01*
X1708Y94D01*
X1706Y94D01*
X1706Y92D01*
X1704Y92D01*
X1704Y90D01*
X1702Y90D01*
X1702Y88D01*
X1700Y88D01*
X1700Y86D01*
X1698Y86D01*
X1698Y84D01*
X1694Y84D01*
X1694Y82D01*
X1690Y82D01*
X1690Y80D01*
X1686Y80D01*
X1686Y78D01*
X1678Y78D01*
X1678Y76D01*
X1936Y76D01*
X1936Y78D01*
X1928Y78D01*
X1928Y80D01*
X1924Y80D01*
X1924Y82D01*
X1920Y82D01*
X1920Y84D01*
X1916Y84D01*
X1916Y86D01*
X1914Y86D01*
X1914Y88D01*
X1912Y88D01*
X1912Y90D01*
X1910Y90D01*
X1910Y92D01*
X1908Y92D01*
X1908Y94D01*
X1906Y94D01*
X1906Y96D01*
X1904Y96D01*
X1904Y100D01*
X1902Y100D01*
X1902Y102D01*
X1900Y102D01*
X1900Y106D01*
X1898Y106D01*
X1898Y114D01*
X1896Y114D01*
X1896Y136D01*
X1898Y136D01*
X1898Y144D01*
X1900Y144D01*
X1900Y148D01*
X1902Y148D01*
X1902Y150D01*
X1904Y150D01*
X1904Y154D01*
X1906Y154D01*
X1906Y156D01*
X1908Y156D01*
X1908Y158D01*
X1910Y158D01*
X1910Y160D01*
X1912Y160D01*
X1912Y162D01*
X1914Y162D01*
X1914Y164D01*
X1916Y164D01*
X1916Y166D01*
X1920Y166D01*
X1920Y168D01*
X1924Y168D01*
X1924Y170D01*
X1928Y170D01*
X1928Y172D01*
X1934Y172D01*
X1934Y174D01*
X1706Y174D01*
G37*
D02*
G36*
X2070Y174D02*
X2070Y166D01*
X2072Y166D01*
X2072Y164D01*
X2076Y164D01*
X2076Y162D01*
X2078Y162D01*
X2078Y160D01*
X2080Y160D01*
X2080Y158D01*
X2082Y158D01*
X2082Y154D01*
X2084Y154D01*
X2084Y152D01*
X2104Y152D01*
X2104Y154D01*
X2106Y154D01*
X2106Y156D01*
X2108Y156D01*
X2108Y158D01*
X2110Y158D01*
X2110Y160D01*
X2112Y160D01*
X2112Y162D01*
X2114Y162D01*
X2114Y164D01*
X2116Y164D01*
X2116Y166D01*
X2120Y166D01*
X2120Y168D01*
X2124Y168D01*
X2124Y170D01*
X2128Y170D01*
X2128Y172D01*
X2134Y172D01*
X2134Y174D01*
X2070Y174D01*
G37*
D02*
G36*
X960Y98D02*
X960Y96D01*
X958Y96D01*
X958Y94D01*
X956Y94D01*
X956Y92D01*
X954Y92D01*
X954Y90D01*
X952Y90D01*
X952Y88D01*
X950Y88D01*
X950Y86D01*
X948Y86D01*
X948Y84D01*
X944Y84D01*
X944Y82D01*
X940Y82D01*
X940Y80D01*
X936Y80D01*
X936Y78D01*
X928Y78D01*
X928Y76D01*
X1010Y76D01*
X1010Y78D01*
X1004Y78D01*
X1004Y80D01*
X998Y80D01*
X998Y82D01*
X994Y82D01*
X994Y84D01*
X992Y84D01*
X992Y86D01*
X990Y86D01*
X990Y88D01*
X986Y88D01*
X986Y90D01*
X984Y90D01*
X984Y92D01*
X982Y92D01*
X982Y96D01*
X980Y96D01*
X980Y98D01*
X960Y98D01*
G37*
D02*
G36*
X1410Y98D02*
X1410Y96D01*
X1408Y96D01*
X1408Y94D01*
X1406Y94D01*
X1406Y92D01*
X1404Y92D01*
X1404Y90D01*
X1402Y90D01*
X1402Y88D01*
X1400Y88D01*
X1400Y86D01*
X1398Y86D01*
X1398Y84D01*
X1394Y84D01*
X1394Y82D01*
X1390Y82D01*
X1390Y80D01*
X1386Y80D01*
X1386Y78D01*
X1378Y78D01*
X1378Y76D01*
X1460Y76D01*
X1460Y78D01*
X1454Y78D01*
X1454Y80D01*
X1448Y80D01*
X1448Y82D01*
X1444Y82D01*
X1444Y84D01*
X1442Y84D01*
X1442Y86D01*
X1440Y86D01*
X1440Y88D01*
X1436Y88D01*
X1436Y90D01*
X1434Y90D01*
X1434Y92D01*
X1432Y92D01*
X1432Y96D01*
X1430Y96D01*
X1430Y98D01*
X1410Y98D01*
G37*
D02*
G36*
X1510Y98D02*
X1510Y96D01*
X1508Y96D01*
X1508Y94D01*
X1506Y94D01*
X1506Y92D01*
X1504Y92D01*
X1504Y90D01*
X1502Y90D01*
X1502Y88D01*
X1500Y88D01*
X1500Y86D01*
X1498Y86D01*
X1498Y84D01*
X1494Y84D01*
X1494Y82D01*
X1490Y82D01*
X1490Y80D01*
X1486Y80D01*
X1486Y78D01*
X1478Y78D01*
X1478Y76D01*
X1560Y76D01*
X1560Y78D01*
X1554Y78D01*
X1554Y80D01*
X1548Y80D01*
X1548Y82D01*
X1544Y82D01*
X1544Y84D01*
X1542Y84D01*
X1542Y86D01*
X1540Y86D01*
X1540Y88D01*
X1536Y88D01*
X1536Y90D01*
X1534Y90D01*
X1534Y92D01*
X1532Y92D01*
X1532Y96D01*
X1530Y96D01*
X1530Y98D01*
X1510Y98D01*
G37*
D02*
G36*
X1610Y98D02*
X1610Y96D01*
X1608Y96D01*
X1608Y94D01*
X1606Y94D01*
X1606Y92D01*
X1604Y92D01*
X1604Y90D01*
X1602Y90D01*
X1602Y88D01*
X1600Y88D01*
X1600Y86D01*
X1598Y86D01*
X1598Y84D01*
X1594Y84D01*
X1594Y82D01*
X1590Y82D01*
X1590Y80D01*
X1586Y80D01*
X1586Y78D01*
X1578Y78D01*
X1578Y76D01*
X1660Y76D01*
X1660Y78D01*
X1654Y78D01*
X1654Y80D01*
X1648Y80D01*
X1648Y82D01*
X1644Y82D01*
X1644Y84D01*
X1642Y84D01*
X1642Y86D01*
X1640Y86D01*
X1640Y88D01*
X1636Y88D01*
X1636Y90D01*
X1634Y90D01*
X1634Y92D01*
X1632Y92D01*
X1632Y96D01*
X1630Y96D01*
X1630Y98D01*
X1610Y98D01*
G37*
D02*
G36*
X1984Y98D02*
X1984Y96D01*
X1982Y96D01*
X1982Y92D01*
X1980Y92D01*
X1980Y90D01*
X1978Y90D01*
X1978Y88D01*
X1974Y88D01*
X1974Y86D01*
X1972Y86D01*
X1972Y84D01*
X1968Y84D01*
X1968Y82D01*
X1966Y82D01*
X1966Y80D01*
X1960Y80D01*
X1960Y78D01*
X1954Y78D01*
X1954Y76D01*
X2036Y76D01*
X2036Y78D01*
X2028Y78D01*
X2028Y80D01*
X2024Y80D01*
X2024Y82D01*
X2020Y82D01*
X2020Y84D01*
X2016Y84D01*
X2016Y86D01*
X2014Y86D01*
X2014Y88D01*
X2012Y88D01*
X2012Y90D01*
X2010Y90D01*
X2010Y92D01*
X2008Y92D01*
X2008Y94D01*
X2006Y94D01*
X2006Y96D01*
X2004Y96D01*
X2004Y98D01*
X1984Y98D01*
G37*
D02*
G36*
X2084Y98D02*
X2084Y96D01*
X2082Y96D01*
X2082Y92D01*
X2080Y92D01*
X2080Y90D01*
X2078Y90D01*
X2078Y88D01*
X2074Y88D01*
X2074Y86D01*
X2072Y86D01*
X2072Y84D01*
X2068Y84D01*
X2068Y82D01*
X2066Y82D01*
X2066Y80D01*
X2060Y80D01*
X2060Y78D01*
X2054Y78D01*
X2054Y76D01*
X2136Y76D01*
X2136Y78D01*
X2128Y78D01*
X2128Y80D01*
X2124Y80D01*
X2124Y82D01*
X2120Y82D01*
X2120Y84D01*
X2116Y84D01*
X2116Y86D01*
X2114Y86D01*
X2114Y88D01*
X2112Y88D01*
X2112Y90D01*
X2110Y90D01*
X2110Y92D01*
X2108Y92D01*
X2108Y94D01*
X2106Y94D01*
X2106Y96D01*
X2104Y96D01*
X2104Y98D01*
X2084Y98D01*
G37*
D02*
G36*
X868Y88D02*
X868Y76D01*
X910Y76D01*
X910Y78D01*
X904Y78D01*
X904Y80D01*
X898Y80D01*
X898Y82D01*
X894Y82D01*
X894Y84D01*
X892Y84D01*
X892Y86D01*
X890Y86D01*
X890Y88D01*
X868Y88D01*
G37*
D02*
G36*
X204Y76D02*
X204Y74D01*
X2310Y74D01*
X2310Y76D01*
X204Y76D01*
G37*
D02*
G36*
X204Y76D02*
X204Y74D01*
X2310Y74D01*
X2310Y76D01*
X204Y76D01*
G37*
D02*
G36*
X204Y76D02*
X204Y74D01*
X2310Y74D01*
X2310Y76D01*
X204Y76D01*
G37*
D02*
G36*
X204Y76D02*
X204Y74D01*
X2310Y74D01*
X2310Y76D01*
X204Y76D01*
G37*
D02*
G36*
X204Y76D02*
X204Y74D01*
X2310Y74D01*
X2310Y76D01*
X204Y76D01*
G37*
D02*
G36*
X204Y76D02*
X204Y74D01*
X2310Y74D01*
X2310Y76D01*
X204Y76D01*
G37*
D02*
G36*
X204Y76D02*
X204Y74D01*
X2310Y74D01*
X2310Y76D01*
X204Y76D01*
G37*
D02*
G36*
X204Y76D02*
X204Y74D01*
X2310Y74D01*
X2310Y76D01*
X204Y76D01*
G37*
D02*
G36*
X204Y76D02*
X204Y74D01*
X2310Y74D01*
X2310Y76D01*
X204Y76D01*
G37*
D02*
G36*
X204Y76D02*
X204Y74D01*
X2310Y74D01*
X2310Y76D01*
X204Y76D01*
G37*
D02*
G36*
X204Y76D02*
X204Y74D01*
X2310Y74D01*
X2310Y76D01*
X204Y76D01*
G37*
D02*
G36*
X202Y74D02*
X202Y70D01*
X200Y70D01*
X200Y68D01*
X198Y68D01*
X198Y64D01*
X196Y64D01*
X196Y62D01*
X194Y62D01*
X194Y42D01*
X2320Y42D01*
X2320Y62D01*
X2318Y62D01*
X2318Y64D01*
X2316Y64D01*
X2316Y66D01*
X2314Y66D01*
X2314Y70D01*
X2312Y70D01*
X2312Y72D01*
X2310Y72D01*
X2310Y74D01*
X202Y74D01*
G37*
D02*
G36*
X549Y1396D02*
X586Y1396D01*
X586Y1370D01*
X549Y1370D01*
X549Y1396D01*
G37*
D02*
G36*
X618Y1198D02*
X650Y1198D01*
X650Y1155D01*
X618Y1155D01*
X618Y1198D01*
G37*
D02*
G36*
X684Y1198D02*
X716Y1198D01*
X716Y1155D01*
X684Y1155D01*
X684Y1198D01*
G37*
D02*
G36*
X2269Y710D02*
X2314Y710D01*
X2314Y676D01*
X2269Y676D01*
X2269Y710D01*
G37*
D02*
G36*
X2242Y751D02*
X2272Y751D01*
X2272Y706D01*
X2242Y706D01*
X2242Y751D01*
G37*
D02*
G36*
X2242Y351D02*
X2272Y351D01*
X2272Y306D01*
X2242Y306D01*
X2242Y351D01*
G37*
D02*
G36*
X1421Y2338D02*
X1462Y2338D01*
X1462Y2306D01*
X1421Y2306D01*
X1421Y2338D01*
G37*
D02*
G36*
X1456Y2373D02*
X1490Y2373D01*
X1490Y2332D01*
X1456Y2332D01*
X1456Y2373D01*
G37*
D02*
G54D22*
X1338Y2385D02*
X1349Y2385D01*
X1438Y2385D02*
X1449Y2385D01*
X1334Y2384D02*
X1353Y2384D01*
X1434Y2384D02*
X1453Y2384D01*
X1331Y2383D02*
X1356Y2383D01*
X1431Y2383D02*
X1456Y2383D01*
X1329Y2382D02*
X1358Y2382D01*
X1429Y2382D02*
X1458Y2382D01*
X1327Y2381D02*
X1360Y2381D01*
X1427Y2381D02*
X1460Y2381D01*
X1325Y2380D02*
X1362Y2380D01*
X1425Y2380D02*
X1462Y2380D01*
X1324Y2379D02*
X1363Y2379D01*
X1424Y2379D02*
X1463Y2379D01*
X1322Y2378D02*
X1365Y2378D01*
X1422Y2378D02*
X1465Y2378D01*
X1321Y2377D02*
X1366Y2377D01*
X1421Y2377D02*
X1466Y2377D01*
X1320Y2376D02*
X1367Y2376D01*
X1420Y2376D02*
X1467Y2376D01*
X1319Y2375D02*
X1368Y2375D01*
X1419Y2375D02*
X1468Y2375D01*
X1318Y2374D02*
X1369Y2374D01*
X1418Y2374D02*
X1469Y2374D01*
X1317Y2373D02*
X1370Y2373D01*
X1417Y2373D02*
X1470Y2373D01*
X1316Y2372D02*
X1371Y2372D01*
X1416Y2372D02*
X1471Y2372D01*
X1316Y2371D02*
X1371Y2371D01*
X1416Y2371D02*
X1471Y2371D01*
X1315Y2370D02*
X1372Y2370D01*
X1415Y2370D02*
X1472Y2370D01*
X1314Y2369D02*
X1373Y2369D01*
X1414Y2369D02*
X1473Y2369D01*
X1314Y2368D02*
X1373Y2368D01*
X1414Y2368D02*
X1473Y2368D01*
X1313Y2367D02*
X1374Y2367D01*
X1413Y2367D02*
X1474Y2367D01*
X1313Y2366D02*
X1374Y2366D01*
X1413Y2366D02*
X1474Y2366D01*
X1312Y2365D02*
X1338Y2365D01*
X1349Y2365D02*
X1375Y2365D01*
X1412Y2365D02*
X1438Y2365D01*
X1449Y2365D02*
X1475Y2365D01*
X1312Y2364D02*
X1336Y2364D01*
X1351Y2364D02*
X1375Y2364D01*
X1412Y2364D02*
X1436Y2364D01*
X1451Y2364D02*
X1475Y2364D01*
X1312Y2363D02*
X1334Y2363D01*
X1353Y2363D02*
X1376Y2363D01*
X1411Y2363D02*
X1434Y2363D01*
X1453Y2363D02*
X1476Y2363D01*
X1311Y2362D02*
X1333Y2362D01*
X1354Y2362D02*
X1376Y2362D01*
X1411Y2362D02*
X1433Y2362D01*
X1454Y2362D02*
X1476Y2362D01*
X1311Y2361D02*
X1332Y2361D01*
X1355Y2361D02*
X1376Y2361D01*
X1411Y2361D02*
X1432Y2361D01*
X1455Y2361D02*
X1476Y2361D01*
X1310Y2360D02*
X1331Y2360D01*
X1356Y2360D02*
X1377Y2360D01*
X1410Y2360D02*
X1431Y2360D01*
X1456Y2360D02*
X1477Y2360D01*
X1310Y2359D02*
X1330Y2359D01*
X1357Y2359D02*
X1377Y2359D01*
X1410Y2359D02*
X1430Y2359D01*
X1457Y2359D02*
X1477Y2359D01*
X1310Y2358D02*
X1330Y2358D01*
X1357Y2358D02*
X1377Y2358D01*
X1410Y2358D02*
X1430Y2358D01*
X1457Y2358D02*
X1477Y2358D01*
X1310Y2357D02*
X1329Y2357D01*
X1358Y2357D02*
X1377Y2357D01*
X1410Y2357D02*
X1429Y2357D01*
X1458Y2357D02*
X1477Y2357D01*
X1310Y2356D02*
X1329Y2356D01*
X1358Y2356D02*
X1377Y2356D01*
X1410Y2356D02*
X1429Y2356D01*
X1458Y2356D02*
X1477Y2356D01*
X1309Y2355D02*
X1329Y2355D01*
X1358Y2355D02*
X1378Y2355D01*
X1409Y2355D02*
X1429Y2355D01*
X1458Y2355D02*
X1478Y2355D01*
X1309Y2354D02*
X1328Y2354D01*
X1359Y2354D02*
X1378Y2354D01*
X1409Y2354D02*
X1428Y2354D01*
X1459Y2354D02*
X1478Y2354D01*
X1309Y2353D02*
X1328Y2353D01*
X1359Y2353D02*
X1378Y2353D01*
X1409Y2353D02*
X1428Y2353D01*
X1459Y2353D02*
X1478Y2353D01*
X1309Y2352D02*
X1328Y2352D01*
X1359Y2352D02*
X1378Y2352D01*
X1409Y2352D02*
X1428Y2352D01*
X1459Y2352D02*
X1478Y2352D01*
X1309Y2351D02*
X1328Y2351D01*
X1359Y2351D02*
X1378Y2351D01*
X1409Y2351D02*
X1428Y2351D01*
X1459Y2351D02*
X1478Y2351D01*
X1309Y2350D02*
X1328Y2350D01*
X1359Y2350D02*
X1378Y2350D01*
X1409Y2350D02*
X1428Y2350D01*
X1459Y2350D02*
X1478Y2350D01*
X1309Y2349D02*
X1328Y2349D01*
X1359Y2349D02*
X1378Y2349D01*
X1409Y2349D02*
X1428Y2349D01*
X1459Y2349D02*
X1478Y2349D01*
X1309Y2348D02*
X1328Y2348D01*
X1359Y2348D02*
X1378Y2348D01*
X1409Y2348D02*
X1428Y2348D01*
X1459Y2348D02*
X1478Y2348D01*
X1309Y2347D02*
X1328Y2347D01*
X1359Y2347D02*
X1378Y2347D01*
X1409Y2347D02*
X1428Y2347D01*
X1459Y2347D02*
X1478Y2347D01*
X1309Y2346D02*
X1329Y2346D01*
X1358Y2346D02*
X1378Y2346D01*
X1409Y2346D02*
X1429Y2346D01*
X1458Y2346D02*
X1478Y2346D01*
X1310Y2345D02*
X1329Y2345D01*
X1358Y2345D02*
X1377Y2345D01*
X1410Y2345D02*
X1429Y2345D01*
X1458Y2345D02*
X1477Y2345D01*
X1310Y2344D02*
X1329Y2344D01*
X1358Y2344D02*
X1377Y2344D01*
X1410Y2344D02*
X1429Y2344D01*
X1458Y2344D02*
X1477Y2344D01*
X1310Y2343D02*
X1330Y2343D01*
X1357Y2343D02*
X1377Y2343D01*
X1410Y2343D02*
X1430Y2343D01*
X1457Y2343D02*
X1477Y2343D01*
X1310Y2342D02*
X1331Y2342D01*
X1356Y2342D02*
X1377Y2342D01*
X1410Y2342D02*
X1431Y2342D01*
X1456Y2342D02*
X1477Y2342D01*
X1311Y2341D02*
X1332Y2341D01*
X1355Y2341D02*
X1376Y2341D01*
X1411Y2341D02*
X1432Y2341D01*
X1455Y2341D02*
X1476Y2341D01*
X1311Y2340D02*
X1332Y2340D01*
X1355Y2340D02*
X1376Y2340D01*
X1411Y2340D02*
X1432Y2340D01*
X1455Y2340D02*
X1476Y2340D01*
X1311Y2339D02*
X1334Y2339D01*
X1353Y2339D02*
X1376Y2339D01*
X1411Y2339D02*
X1434Y2339D01*
X1453Y2339D02*
X1476Y2339D01*
X1312Y2338D02*
X1335Y2338D01*
X1352Y2338D02*
X1375Y2338D01*
X1412Y2338D02*
X1435Y2338D01*
X1452Y2338D02*
X1475Y2338D01*
X1312Y2337D02*
X1336Y2337D01*
X1351Y2337D02*
X1375Y2337D01*
X1412Y2337D02*
X1436Y2337D01*
X1451Y2337D02*
X1475Y2337D01*
X1312Y2336D02*
X1339Y2336D01*
X1348Y2336D02*
X1375Y2336D01*
X1412Y2336D02*
X1439Y2336D01*
X1448Y2336D02*
X1475Y2336D01*
X1313Y2335D02*
X1374Y2335D01*
X1413Y2335D02*
X1474Y2335D01*
X1313Y2334D02*
X1374Y2334D01*
X1413Y2334D02*
X1474Y2334D01*
X1314Y2333D02*
X1373Y2333D01*
X1414Y2333D02*
X1473Y2333D01*
X1315Y2332D02*
X1372Y2332D01*
X1415Y2332D02*
X1472Y2332D01*
X1315Y2331D02*
X1372Y2331D01*
X1415Y2331D02*
X1472Y2331D01*
X1316Y2330D02*
X1371Y2330D01*
X1416Y2330D02*
X1471Y2330D01*
X1317Y2329D02*
X1370Y2329D01*
X1417Y2329D02*
X1470Y2329D01*
X1317Y2328D02*
X1370Y2328D01*
X1417Y2328D02*
X1470Y2328D01*
X1318Y2327D02*
X1369Y2327D01*
X1418Y2327D02*
X1469Y2327D01*
X1319Y2326D02*
X1368Y2326D01*
X1419Y2326D02*
X1468Y2326D01*
X1320Y2325D02*
X1367Y2325D01*
X1420Y2325D02*
X1467Y2325D01*
X1321Y2324D02*
X1366Y2324D01*
X1421Y2324D02*
X1466Y2324D01*
X1323Y2323D02*
X1364Y2323D01*
X1423Y2323D02*
X1464Y2323D01*
X1324Y2322D02*
X1363Y2322D01*
X1424Y2322D02*
X1463Y2322D01*
X1326Y2321D02*
X1361Y2321D01*
X1426Y2321D02*
X1461Y2321D01*
X1327Y2320D02*
X1360Y2320D01*
X1427Y2320D02*
X1460Y2320D01*
X1330Y2319D02*
X1357Y2319D01*
X1430Y2319D02*
X1457Y2319D01*
X1332Y2318D02*
X1355Y2318D01*
X1432Y2318D02*
X1455Y2318D01*
X1335Y2317D02*
X1352Y2317D01*
X1435Y2317D02*
X1452Y2317D01*
X1340Y2316D02*
X1347Y2316D01*
X1440Y2316D02*
X1447Y2316D01*
D02*
G04 End of Copper0*
M02*