; NON-PLATED HOLES START AT T1
; THROUGH (PLATED) HOLES START AT T100
M48
INCH
T100C0.038000
T101C0.015748
T102C0.090000
T103C0.030000
T104C0.035000
T105C0.035433
T106C0.137795
T107C0.036000
%
T100
X022943Y017747
X014693Y001247
X009193Y001247
X018443Y023997
X022943Y005247
X008193Y001247
X022943Y016747
X019443Y001247
X006693Y023997
X004693Y023997
X020443Y023997
X022943Y012497
X022943Y013497
X022943Y014497
X021443Y001247
X022943Y011497
X022943Y018747
X005693Y023997
X009193Y023997
X022943Y007247
X021443Y023997
X013693Y001247
X010193Y023997
X022943Y009247
X022943Y003247
X010193Y001247
X022943Y019747
X015693Y001247
X022943Y004247
X010193Y004247
X019443Y023997
X022943Y020747
X022943Y008247
X020443Y001247
X022943Y021747
X016693Y001247
X009193Y004247
T101
X016943Y017997
X019443Y009490
X016191Y018502
X018193Y015247
T102
X002593Y007609
X002593Y002869
T103
X014443Y023497
X013443Y023497
T104
X006693Y011747
X015443Y014747
X010443Y015997
X006443Y017247
X006443Y015997
X010693Y011747
X014693Y016247
X011443Y014747
X014693Y020247
X010443Y017247
T105
X007693Y021497
X008693Y021497
X016693Y013497
X013693Y021497
X010693Y021497
X007693Y013497
X013693Y013497
X006693Y013497
X015693Y021497
X003693Y013497
X010693Y013497
X017693Y021497
X016693Y021497
X009693Y013497
X015693Y013497
X012693Y013497
X008693Y013497
X011693Y013497
X012693Y021497
X004693Y013497
X005693Y013497
X006693Y021497
X017693Y013497
X011693Y021497
X009693Y021497
X014693Y021497
X002693Y013497
X014693Y013497
T106
X001193Y001247
X023943Y001247
X001193Y023997
X023943Y023997
T107
X004443Y004747
X003663Y004747
X004443Y005732
X003663Y005732
T00
M30
